<svg width="14" height="14" viewBox="0 0 14 14" fill="none" xmlns="http://www.w3.org/2000/svg">
<path d="M5.04651 10.7441C4.98139 10.7441 4.92279 10.7311 4.85767 10.705C4.67535 10.6334 4.55814 10.451 4.55814 10.2557V6.34872C4.55814 6.08175 4.77953 5.86035 5.04651 5.86035C5.31348 5.86035 5.53488 6.08175 5.53488 6.34872V9.0771L6.00372 8.60826C6.19255 8.41942 6.50511 8.41942 6.69395 8.60826C6.88279 8.7971 6.88279 9.10965 6.69395 9.29849L5.39162 10.6008C5.30046 10.692 5.17023 10.7441 5.04651 10.7441Z" fill="white"/>
<path d="M5.04615 10.7442C4.92243 10.7442 4.79871 10.6987 4.70103 10.601L3.39871 9.29866C3.20987 9.10982 3.20987 8.79726 3.39871 8.60842C3.58755 8.41959 3.9001 8.41959 4.08894 8.60842L5.39127 9.91075C5.5801 10.0996 5.5801 10.4121 5.39127 10.601C5.29359 10.6987 5.16987 10.7442 5.04615 10.7442Z" fill="white"/>
<path d="M8.95349 14H5.04651C1.5107 14 0 12.4893 0 8.95349V5.04651C0 1.5107 1.5107 0 5.04651 0H8.30233C8.5693 0 8.7907 0.221395 8.7907 0.488372C8.7907 0.755349 8.5693 0.976744 8.30233 0.976744H5.04651C2.04465 0.976744 0.976744 2.04465 0.976744 5.04651V8.95349C0.976744 11.9553 2.04465 13.0233 5.04651 13.0233H8.95349C11.9553 13.0233 13.0233 11.9553 13.0233 8.95349V5.69767C13.0233 5.4307 13.2447 5.2093 13.5116 5.2093C13.7786 5.2093 14 5.4307 14 5.69767V8.95349C14 12.4893 12.4893 14 8.95349 14Z" fill="white"/>
<path d="M13.5116 6.18607H10.907C8.68001 6.18607 7.81396 5.32002 7.81396 3.09304V0.488387C7.81396 0.293039 7.93117 0.110713 8.1135 0.0390851C8.29583 -0.0390544 8.5042 0.00652697 8.64745 0.143271L13.8568 5.35257C13.9935 5.48932 14.0391 5.70421 13.9609 5.88653C13.8828 6.06886 13.707 6.18607 13.5116 6.18607ZM8.79071 1.66699V3.09304C8.79071 4.77304 9.22699 5.20932 10.907 5.20932H12.333L8.79071 1.66699Z" fill="white"/>
</svg>
