<svg width="20" height="20" viewBox="0 0 20 20" fill="none" xmlns="http://www.w3.org/2000/svg">
<g clip-path="url(#clip0_46_29532)">
<path d="M10 4.16667C11.3473 4.16667 12.5844 4.62794 13.5719 5.39505L16.6029 2.50341C14.8407 0.949961 12.5339 0 10 0C6.16034 0 2.83057 2.1666 1.15485 5.34154L4.52521 8.00232C5.34165 5.76614 7.48124 4.16667 10 4.16667Z" fill="#F44336"/>
<path d="M19.9134 11.2519C19.9655 10.8422 20 10.4242 20 10.0003C20 9.28545 19.9219 8.58935 19.7794 7.91699H10V12.0837H15.4052C14.9679 13.2201 14.1894 14.1818 13.1983 14.8499L16.5812 17.5206C18.3745 15.9465 19.6016 13.7423 19.9134 11.2519Z" fill="#2196F3"/>
<path d="M4.16667 10.0003C4.16667 9.29738 4.29738 8.62661 4.5252 8.00257L1.15484 5.3418C0.420278 6.7336 0 8.31706 0 10.0003C0 11.6646 0.412547 13.2305 1.13185 14.6111L4.50648 11.9469C4.29036 11.3373 4.16667 10.6839 4.16667 10.0003Z" fill="#FFC107"/>
<path d="M9.99999 15.833C7.46205 15.833 5.30868 14.2093 4.50647 11.9463L1.13184 14.6105C2.79937 17.8109 6.1415 19.9997 9.99999 19.9997C12.5231 19.9997 14.824 19.0623 16.5812 17.5199L13.1983 14.8492C12.2843 15.4654 11.1903 15.833 9.99999 15.833Z" fill="#00B060"/>
<path opacity="0.1" d="M9.99999 19.7916C7.05693 19.7916 4.41059 18.5773 2.53961 16.6427C4.37112 18.6981 7.03038 19.9999 9.99999 19.9999C12.9421 19.9999 15.5794 18.7238 17.4068 16.7006C15.5413 18.6038 12.9151 19.7916 9.99999 19.7916Z" fill="#222222"/>
<path opacity="0.1" d="M10 11.875V12.0833H15.4052L15.4896 11.875H10Z" fill="#222222"/>
<path d="M19.9954 10.1229C19.9961 10.0818 20 10.0415 20 10.0004C20 9.98871 19.9982 9.97747 19.9982 9.96582C19.9976 10.0183 19.995 10.0702 19.9954 10.1229Z" fill="#E6E6E6"/>
<path opacity="0.2" d="M10 7.91699V8.12533H19.8213C19.8082 8.05656 19.7939 7.98525 19.7794 7.91699H10Z" fill="white"/>
<path d="M19.7794 7.91667H10V12.0833H15.4052C14.5646 14.268 12.481 15.8333 10 15.8333C6.77836 15.8333 4.16667 13.2216 4.16667 10C4.16667 6.77831 6.77836 4.16667 10 4.16667C11.1682 4.16667 12.2449 4.52555 13.1571 5.11724C13.2967 5.20798 13.4408 5.29317 13.5719 5.39505L16.6029 2.50341L16.5345 2.45082C14.7808 0.930888 12.5029 0 10 0C4.47713 0 0 4.47713 0 10C0 15.5228 4.47713 20 10 20C15.0981 20 19.2962 16.1823 19.9134 11.2515C19.9655 10.8418 20 10.4239 20 10C20 9.28513 19.9219 8.58902 19.7794 7.91667Z" fill="url(#paint0_linear_46_29532)"/>
<path opacity="0.1" d="M13.1572 4.9094C12.245 4.31772 11.1683 3.95883 10.0001 3.95883C6.77844 3.95883 4.16675 6.57048 4.16675 9.79217C4.16675 9.82731 4.16722 9.85478 4.16783 9.88982C4.22403 6.71676 6.81359 4.16717 10.0001 4.16717C11.1683 4.16717 12.245 4.52605 13.1572 5.11774C13.2968 5.20848 13.4408 5.29367 13.572 5.39555L16.603 2.50391L13.572 5.18722C13.4408 5.08534 13.2968 5.00014 13.1572 4.9094Z" fill="#222222"/>
<path opacity="0.2" d="M10 0.208333C12.4792 0.208333 14.7358 1.12366 16.4827 2.618L16.6029 2.50341L16.5112 2.42356C14.7575 0.903633 12.5029 0 10 0C4.47713 0 0 4.47713 0 10C0 10.0351 0.00488283 10.0691 0.00523883 10.1042C0.0616963 4.62987 4.51228 0.208333 10 0.208333Z" fill="white"/>
</g>
<defs>
<linearGradient id="paint0_linear_46_29532" x1="0" y1="10" x2="20" y2="10" gradientUnits="userSpaceOnUse">
<stop stop-color="white" stop-opacity="0.2"/>
<stop offset="1" stop-color="white" stop-opacity="0"/>
</linearGradient>
<clipPath id="clip0_46_29532">
<rect width="20" height="20" fill="white"/>
</clipPath>
</defs>
</svg>
