<svg width="24" height="25" viewBox="0 0 24 25" fill="none" xmlns="http://www.w3.org/2000/svg">
<path d="M12 2.19971C6.486 2.19971 2 6.68571 2 12.1997C2 17.7137 6.486 22.1997 12 22.1997C17.514 22.1997 22 17.7137 22 12.1997C22 6.68571 17.514 2.19971 12 2.19971ZM12 20.1997C7.589 20.1997 4 16.6107 4 12.1997C4 7.78871 7.589 4.19971 12 4.19971C16.411 4.19971 20 7.78871 20 12.1997C20 16.6107 16.411 20.1997 12 20.1997Z" fill="#D1D5DB"/>
<path d="M11 11.1997H13V17.1997H11V11.1997ZM11 7.19971H13V9.19971H11V7.19971Z" fill="#D1D5DB"/>
</svg>
