<svg width="246" height="65" viewBox="0 0 246 65" fill="none" xmlns="http://www.w3.org/2000/svg">
<g id="image 40" clip-path="url(#clip0_403_7495)">
<path id="Vector" d="M202.901 65C202.784 63.976 202.558 60.5515 202.958 59.7172L203.126 59.6774C203.409 59.9426 203.464 60.3329 203.475 60.7033C203.495 61.4345 203.665 64.446 203.262 64.8617C203.213 64.912 203.161 64.9562 203.107 65H202.901Z" fill="white"/>
<path id="Vector_2" d="M235.95 59.6728C236.103 59.6872 236.214 59.7396 236.349 59.8064C236.372 59.8612 236.392 59.917 236.41 59.9738C236.633 60.7158 236.637 63.5872 236.257 64.285C236.821 64.2694 238.071 64.1271 238.501 64.4506C238.395 64.706 238.288 64.7017 238.042 64.8139C237.258 64.7605 236.512 64.7933 235.73 64.8605C236.223 63.2487 235.52 61.3103 235.95 59.6728Z" fill="white"/>
<path id="Vector_3" d="M198.912 59.6728L199.251 59.7522C199.304 59.8414 199.349 59.9334 199.367 60.0373C199.508 60.8722 199.622 63.6325 199.165 64.2844C199.744 64.2675 200.974 64.136 201.432 64.4496L201.359 64.6333L200.949 64.8059C200.179 64.7572 199.44 64.7973 198.672 64.8577C199.097 63.3716 198.353 60.9633 198.912 59.6728Z" fill="white"/>
<path id="Vector_4" d="M206.16 59.6731C206.398 59.658 206.638 59.6504 206.876 59.6771C207.272 59.7212 207.783 59.8126 208.037 60.1572C208.317 60.5389 208.214 61.1276 208.164 61.5639L208.045 61.5995C207.787 61.1647 207.507 60.5913 207.066 60.3129C206.858 60.182 206.58 60.1134 206.338 60.1799C206.064 60.255 205.872 60.3832 205.731 60.6297C205.45 61.1215 205.547 63.222 205.717 63.7742C205.827 64.1296 205.974 64.2194 206.286 64.3813C206.614 64.3899 206.826 64.3672 207.124 64.2218C207.188 64.1982 207.255 64.1737 207.314 64.1391C207.622 63.9588 207.688 63.3164 207.788 62.9779L207.994 62.87C208.059 62.909 208.146 62.9393 208.176 63.0098C208.33 63.3704 208.187 63.9008 208.038 64.243C207.884 64.5968 207.359 64.8746 207.007 65.0074C206.727 65.1131 206.392 65.1263 206.117 64.996C205.643 64.771 205.333 64.3598 205.164 63.8711C204.921 63.1641 204.817 60.9927 205.156 60.3372C205.376 59.9095 205.734 59.8129 206.16 59.6731Z" fill="white"/>
<path id="Vector_5" d="M217.719 59.6731C218.196 59.6507 218.679 59.6614 219.124 59.8521C219.338 59.9438 219.55 60.1042 219.634 60.3298C219.755 60.6579 219.803 61.2993 219.664 61.6231C219.258 61.4456 218.992 60.5809 218.556 60.2881C218.25 60.0827 217.94 60.171 217.607 60.2452C217.416 60.3994 217.309 60.4518 217.231 60.6916C217.029 61.3168 217.037 63.4906 217.385 64.0731C217.543 64.3374 217.687 64.3709 217.961 64.4466C218.266 64.3748 218.551 64.3203 218.812 64.136C219.36 63.8064 219 63.2297 219.392 62.8765L219.609 62.9077C219.655 62.9632 219.698 63.0243 219.72 63.0935C219.814 63.3879 219.744 63.9033 219.617 64.1743C219.468 64.4895 219.205 64.6983 218.879 64.809C218.438 64.9589 217.704 64.9828 217.287 64.7599C216.92 64.5637 216.702 64.1777 216.591 63.7895C216.35 62.9528 216.297 61.0096 216.75 60.2369C216.973 59.8558 217.321 59.7847 217.719 59.6731Z" fill="white"/>
<path id="Vector_6" d="M189.398 59.6728L189.663 59.701C190.467 60.5052 189.402 63.1463 190.048 63.975C190.267 64.2565 190.742 64.4852 191.09 64.511C192.727 63.9067 191.474 61.0396 192.132 59.804C192.177 59.7206 192.255 59.7224 192.342 59.6958L192.477 59.8917L192.354 60.2712C192.367 60.2961 192.38 60.3206 192.391 60.3464C192.397 60.3611 192.403 60.3761 192.409 60.3908C192.727 61.135 192.676 62.9356 192.471 63.7377C192.348 64.2188 192.089 64.6496 191.649 64.8991C191.352 65.0678 190.997 65.0987 190.669 65.0092C190.61 64.9931 190.553 64.974 190.496 64.9522C190.44 64.9305 190.384 64.906 190.33 64.8786C190.276 64.8514 190.223 64.8215 190.172 64.7888C190.121 64.7563 190.071 64.7213 190.023 64.6839C189.975 64.6465 189.93 64.6068 189.886 64.5649C189.842 64.5228 189.8 64.4788 189.761 64.4328C189.721 64.3866 189.684 64.3387 189.649 64.289C189.615 64.2391 189.582 64.1877 189.553 64.1348C189.009 63.165 189.098 60.7542 189.398 59.6728Z" fill="white"/>
<path id="Vector_7" d="M213.002 59.6731C213.168 59.6545 213.335 59.6521 213.502 59.666C213.967 59.7001 214.394 59.7706 214.711 60.1468C214.92 60.3939 214.911 60.8704 214.885 61.1733L214.675 61.3321C214.205 61.223 214.156 60.4675 213.74 60.1373C213.521 59.9631 213.429 59.9668 213.166 59.9919C213.046 60.06 212.952 60.1391 212.866 60.2476C212.639 60.5328 212.548 60.8345 212.592 61.2018C212.701 62.1112 214.033 61.8181 214.664 62.3243C214.955 62.5582 215.178 62.8725 215.208 63.2554C215.243 63.6862 214.969 64.1593 214.697 64.476C214.352 64.8764 213.963 64.8804 213.47 64.9218C213.205 64.8979 212.93 64.8774 212.67 64.8203C212.439 64.7697 212.142 64.629 212.022 64.4172C211.821 64.0606 211.883 63.6479 211.978 63.2726L212.182 63.173C212.466 63.3692 212.537 63.9183 212.697 64.247C213.034 64.4043 213.336 64.4653 213.703 64.3666C213.974 64.2936 214.283 64.1271 214.421 63.8714C214.543 63.6448 214.602 63.425 214.514 63.1733C214.214 62.3062 213.195 62.5711 212.54 62.247C212.271 62.1143 212.045 61.8582 211.952 61.5731C211.808 61.1288 211.941 60.5849 212.164 60.1851C212.344 59.8638 212.673 59.7749 213.002 59.6731Z" fill="white"/>
<path id="Vector_8" d="M240.798 59.6731C241.271 59.617 241.998 59.6553 242.38 59.9699C242.584 60.1373 242.683 60.3715 242.707 60.6303C242.736 60.9252 242.739 61.1193 242.548 61.348C242.098 61.2435 242.209 60.6708 241.898 60.4114C241.668 60.2204 241.432 60.137 241.129 60.1759C240.783 60.2207 240.692 60.3126 240.485 60.565C240.439 60.8311 240.395 61.0684 240.459 61.3358C240.607 61.9557 242.022 62.0689 242.549 62.3988C242.801 62.557 243.035 62.8029 243.095 63.1043C243.194 63.6053 242.76 64.1884 242.506 64.5818C242.174 64.8519 241.753 64.8688 241.344 64.9255C240.913 64.8838 240.378 64.874 240.025 64.5928C239.826 64.4349 239.734 64.1427 239.712 63.8984C239.688 63.6221 239.711 63.3658 239.885 63.1521C240.203 63.2956 240.534 64.0532 240.792 64.3564C241.125 64.4214 241.592 64.449 241.908 64.2985C242.046 64.2332 242.13 64.1581 242.185 64.0176C242.295 63.7337 242.354 63.3511 242.221 63.0644C241.968 62.5223 241.144 62.4914 240.635 62.3056C240.302 62.1835 240.028 61.9803 239.885 61.6464C239.718 61.2533 239.723 60.6916 239.896 60.3004C240.068 59.9116 240.429 59.808 240.798 59.6731Z" fill="white"/>
<path id="Vector_9" d="M184.691 59.7163C185.71 59.7111 186.786 59.5946 187.583 60.3709C187.838 60.6189 188.051 60.9731 188.045 61.3376C188.039 61.716 187.816 62.0428 187.545 62.289C186.909 62.8651 186.202 62.8627 185.398 62.9028C185.609 63.3315 185.602 64.1706 185.463 64.6305C185.419 64.7743 185.317 64.8964 185.211 65H184.889C185.018 64.2672 185.057 60.3022 184.691 59.7163ZM185.487 60.2716C185.515 60.9252 185.573 61.5853 185.445 62.2314L185.434 62.2908C185.427 62.3252 185.418 62.3589 185.41 62.3929C185.839 62.3595 186.377 62.3739 186.754 62.1572L186.822 62.0673C187.09 61.8772 187.201 61.7153 187.327 61.414C187.314 61.0982 187.31 60.916 187.056 60.6864C186.582 60.259 186.088 60.2639 185.487 60.2716Z" fill="white"/>
<path id="Vector_10" d="M221.275 65L221.281 64.9669C221.474 63.7794 220.97 60.4598 221.543 59.6997C221.793 59.8941 221.922 60.1692 221.965 60.4889C222.016 60.8725 222.018 61.6556 221.794 61.9668C222.422 61.9499 223.068 61.8996 223.694 61.9291C223.699 61.9214 223.704 61.9134 223.709 61.9058C224.092 61.2564 223.596 60.11 224.203 59.6375C224.772 60.2565 224.533 63.2845 224.493 64.1903C224.479 64.5232 224.406 64.7489 224.182 65H223.978H221.594H221.275ZM221.805 62.4043C221.864 62.5643 221.909 62.7339 221.927 62.9041C221.999 63.601 222.036 64.4411 221.594 65H223.978C223.805 64.1513 223.968 63.2717 223.778 62.4181C223.137 62.5027 222.451 62.4291 221.805 62.4043Z" fill="white"/>
<path id="Vector_11" d="M194.09 59.7926C194.788 59.6642 196.103 59.62 196.718 59.9686C197.344 60.7683 196.647 61.2374 196.814 62.0388C196.906 62.4813 197.365 62.855 197.349 63.3238C197.338 63.6798 197.207 63.9717 196.957 64.2218L196.89 64.4273C196.313 64.9936 194.888 64.8133 194.092 64.8519C194.381 63.9143 194.352 60.8017 194.09 59.7926ZM194.876 62.3065C194.825 62.9988 194.934 63.7488 194.648 64.3911C195.125 64.3552 195.792 64.384 196.2 64.1234C196.439 63.9683 196.698 63.6963 196.77 63.4081C196.832 63.1641 196.709 63.0101 196.604 62.7989C196.009 62.3411 195.612 62.3215 194.876 62.3065ZM194.695 60.2716C194.891 60.8612 194.872 61.3309 194.688 61.9208C195.087 61.9045 195.762 61.96 196.074 61.7003L196.126 61.5884C196.36 61.3122 196.423 61.2251 196.493 60.8615C196.326 60.5549 196.188 60.4252 195.848 60.3166C195.472 60.1971 195.08 60.2366 194.695 60.2716Z" fill="white"/>
<path id="Vector_12" d="M232.094 59.6731C232.585 59.6222 233.232 59.6191 233.639 59.9355C234.051 60.2553 234.246 60.8606 234.313 61.3582C234.427 62.2019 234.439 63.7604 233.869 64.4604C233.574 64.8225 233.198 64.8351 232.767 64.8786C232.482 64.9485 231.965 64.8712 231.7 64.7486C231.353 64.5876 231.184 64.3043 231.059 63.9582C230.736 63.0586 230.721 61.1773 231.149 60.3096C231.348 59.9064 231.697 59.8126 232.094 59.6731ZM231.968 60.2716C231.509 60.6818 231.557 61.2309 231.525 61.8003C231.483 62.5414 231.44 63.3545 231.759 64.0452C231.994 64.2617 232.17 64.3896 232.518 64.3647C232.609 64.3583 232.7 64.3335 232.787 64.3083C233.056 64.2375 233.288 64.2286 233.446 63.9692C233.837 63.3247 233.792 61.7546 233.592 61.0654C233.518 60.8124 233.397 60.4773 233.154 60.3421C232.765 60.1253 232.387 60.1845 231.968 60.2716Z" fill="white"/>
<path id="Vector_13" d="M227.229 59.6731C227.722 59.6197 228.379 59.6228 228.792 59.9294C229.182 60.2179 229.396 60.8029 229.468 61.2665C229.6 62.1222 229.605 63.7141 229.043 64.4356C228.764 64.7937 228.421 64.8136 228.001 64.8685C227.708 64.9528 227.184 64.8906 226.905 64.7722C226.559 64.626 226.351 64.3123 226.22 63.9744C225.862 63.0512 225.865 61.2723 226.279 60.3734C226.481 59.934 226.805 59.8294 227.229 59.6731ZM227.098 60.2716C226.58 60.832 226.628 62.048 226.657 62.782C226.675 63.2266 226.742 63.6519 226.934 64.0557C227.207 64.289 227.371 64.377 227.738 64.3718C227.829 64.3706 227.92 64.3347 228.001 64.296C228.259 64.2215 228.454 64.2176 228.6 63.9671C228.974 63.3269 228.963 61.8147 228.766 61.1221C228.681 60.8265 228.553 60.4764 228.269 60.3209C227.911 60.1262 227.483 60.1925 227.098 60.2716Z" fill="white"/>
<path id="Vector_14" d="M209.944 47.7026L210.238 47.6944C210.336 47.7474 210.441 47.7756 210.483 47.8829C210.659 48.3315 210.633 48.9993 210.444 49.4414L208.498 49.423C208.577 49.5432 208.642 49.6762 208.676 49.817C208.858 50.5648 208.85 55.988 208.525 56.5138C208.009 56.4838 207.501 56.5988 206.989 56.4792C206.672 56.1361 206.67 55.7893 206.482 55.3653C206.558 55.2482 206.619 55.1191 206.651 54.9829C206.828 54.2413 206.813 49.9494 206.487 49.4297L204.685 49.4319C204.741 49.3439 204.79 49.2534 204.824 49.1538C204.987 48.6773 204.931 48.1806 204.71 47.7376L209.944 47.7026Z" fill="white"/>
<path id="Vector_15" d="M116.386 36.091C116.801 36.0278 117.252 36.0373 117.672 36.0168C117.701 36.0952 117.724 36.1756 117.74 36.2577C117.893 37.0319 116.41 48.5759 116.154 48.9548C117.165 48.9472 122.896 48.7338 123.399 49.0784C123.436 49.1765 123.467 49.2807 123.464 49.3868C123.454 49.7244 123.31 49.9985 123.081 50.2395C122.184 50.387 121.112 50.276 120.198 50.2726C118.275 50.261 116.353 50.2635 114.431 50.2803C114.436 50.272 114.44 50.2634 114.445 50.2548C114.452 50.2404 114.459 50.2257 114.467 50.2113C115.014 49.1701 116.114 38.2019 116.386 36.091Z" fill="white"/>
<path id="Vector_16" d="M196.584 47.7026C196.762 47.6796 196.855 47.7299 197.005 47.8109C197.183 48.2864 197.103 48.9738 196.905 49.434L193.803 49.4261C193.863 49.5088 193.903 49.5916 193.932 49.6894C194.082 50.2061 194.048 50.7012 193.786 51.1728L196.182 51.1277C196.226 51.2019 196.264 51.2776 196.293 51.3595C196.464 51.8504 196.383 52.4421 196.166 52.9023L193.886 52.8343C194.047 53.5014 194.046 54.1196 193.86 54.7809C194.678 54.749 195.633 54.6175 196.441 54.7214C196.718 54.7573 196.861 54.749 197.038 54.9793L196.854 55.3631C196.917 55.4778 196.981 55.6008 197.015 55.7271C197.091 56.0024 197.078 56.2511 196.947 56.5028C195.229 56.4988 193.509 56.4801 191.791 56.5479C191.81 56.4835 191.828 56.4191 191.843 56.3538C192.08 55.3267 192.157 48.4143 191.736 47.7293L196.584 47.7026Z" fill="white"/>
<path id="Vector_17" d="M188.85 47.7125C189.584 47.7217 190.317 47.7493 191.045 47.6472C191.047 47.7069 191.047 47.7664 191.042 47.8262C190.988 48.4222 189.259 51.6002 188.784 52.0218C188.853 52.0782 188.922 52.138 188.983 52.2039C189.41 52.6653 190.944 55.3414 190.93 55.9911L191.217 56.2961L191.155 56.4329C190.473 56.6343 189.604 56.5181 188.895 56.5028C188.898 56.4375 188.897 56.3713 188.888 56.3066C188.775 55.5499 187.338 53.0192 186.763 52.5973C186.838 52.7454 186.921 52.9076 186.975 53.0636C187.245 53.8393 187.247 55.7933 186.902 56.5221C186.218 56.4663 185.484 56.5184 184.796 56.5239C184.852 56.4346 184.898 56.3401 184.934 56.2403C185.174 55.5425 185.091 48.3097 184.817 47.7318L186.383 47.7027L186.781 47.6861C186.93 47.7765 186.96 47.7805 187.016 47.9467C187.311 48.8267 187.213 50.712 186.808 51.53C186.886 51.4691 186.96 51.4034 187.03 51.3328C187.514 50.8453 188.849 48.4029 188.85 47.7125Z" fill="white"/>
<path id="Vector_18" d="M202.159 47.7137C202.768 47.7241 203.383 47.6892 203.992 47.6754C204.392 48.4213 204.177 55.0713 204.144 56.4323C203.87 56.5859 203.272 56.5126 202.943 56.5144C201.741 56.3329 200.58 52.428 199.336 51.5444C199.438 51.706 199.534 51.8755 199.587 52.0607C199.805 52.8165 199.902 55.8132 199.519 56.5123L197.664 56.516C198.301 55.5557 197.634 49.572 197.906 47.9262C198.137 47.676 198.37 47.7275 198.699 47.7026C198.836 47.6901 198.983 47.6711 199.121 47.6796C199.36 47.6944 199.514 47.8379 199.668 48.0068C200.194 48.5798 202.235 51.9028 202.201 52.5537C202.253 52.4329 202.298 52.3042 202.328 52.1757C202.531 51.3016 202.571 48.3989 202.159 47.7137Z" fill="white"/>
<path id="Vector_19" d="M82.7589 36.091C83.6522 35.9692 84.6292 36.0336 85.5332 36.0256C85.7176 36.3105 85.7436 36.5637 85.754 36.8946C85.8404 39.6301 85.7663 42.3926 85.7644 45.1306C85.7635 46.6384 85.9176 48.3447 85.7213 49.8329C85.7001 49.9933 85.6294 50.1073 85.5197 50.2239C84.6463 50.4097 83.5257 50.2763 82.6235 50.2695C82.9877 49.37 82.761 37.9922 82.7589 36.091Z" fill="white"/>
<path id="Vector_20" d="M229.613 47.7026C230.6 47.5585 232.038 47.465 232.898 48.0378C233.424 48.3879 233.661 48.9297 233.779 49.5321C233.966 50.4866 234.038 54.8293 233.498 55.6044C233.093 56.1855 232.493 56.3755 231.828 56.4979C231.159 56.699 230.089 56.7174 229.435 56.4635C228.858 56.2394 228.405 55.766 228.16 55.2028C227.681 54.1012 227.709 49.8942 228.162 48.7776C228.404 48.1831 229.067 47.9298 229.613 47.7026ZM230.249 49.3785C229.769 49.9516 229.878 52.734 229.953 53.5453C229.993 53.9736 230.038 54.4203 230.343 54.7472C230.647 54.8729 230.913 54.9124 231.234 54.8162C231.398 54.7444 231.59 54.7153 231.656 54.5424C231.884 53.9448 231.959 50.2128 231.667 49.6229C231.584 49.4549 231.448 49.3792 231.27 49.3322C230.985 49.2568 230.535 49.3221 230.249 49.3785Z" fill="white"/>
<path id="Vector_21" d="M222.852 47.7026C223.832 47.5481 225.278 47.4715 226.126 48.0467C226.655 48.4054 226.896 48.9686 227.008 49.5794C227.178 50.5071 227.246 54.8763 226.717 55.61C226.29 56.202 225.69 56.3811 225.002 56.5013C224.329 56.7027 223.234 56.7205 222.582 56.447C222.013 56.2078 221.574 55.7271 221.342 55.1596C220.93 54.149 220.905 49.8691 221.333 48.8726C221.622 48.2021 222.209 47.943 222.852 47.7026ZM223.483 49.3785C222.959 49.954 223.108 52.4204 223.146 53.2402C223.17 53.7602 223.186 54.3026 223.504 54.7374C223.745 54.8787 223.973 54.929 224.252 54.856C224.267 54.8523 224.28 54.8462 224.294 54.8413C224.598 54.7505 224.754 54.7499 224.944 54.482C225.023 53.4125 225.219 50.3738 224.797 49.4889C224.384 49.2268 223.94 49.2982 223.483 49.3785Z" fill="white"/>
<path id="Vector_22" d="M234.657 47.8222C235.657 47.53 237.819 47.5496 238.824 47.828C239.506 48.0169 240.098 48.4278 240.446 49.0538C241.135 50.2956 241.023 53.4662 240.634 54.8333C240.516 55.2469 240.368 55.5063 239.978 55.7228C239.957 55.7829 239.932 55.8298 239.89 55.8782C239.091 56.8075 235.745 56.5212 234.617 56.5307C234.668 56.452 234.71 56.3686 234.742 56.2805C234.967 55.6765 234.889 48.3254 234.657 47.8222ZM236.664 49.4981C236.989 50.1745 236.97 53.9886 236.717 54.7217C236.708 54.7467 236.699 54.7714 236.689 54.7959C237.193 54.7794 237.788 54.8192 238.253 54.611L238.43 54.4062C239.017 53.8412 238.943 52.577 238.957 51.7924C238.968 51.1197 238.892 50.2349 238.383 49.7314C238.126 49.4767 237.786 49.4058 237.436 49.4184C237.18 49.4276 236.914 49.4478 236.664 49.4981Z" fill="white"/>
<path id="Vector_23" d="M214.642 47.7462L216.536 47.6891C216.994 48.2303 217.778 52.9308 217.723 53.7391C217.795 53.6609 217.836 53.5812 217.87 53.4809C218.126 52.7319 218.64 48.3526 218.343 47.7324L220.397 47.706C220.411 47.7367 220.424 47.7673 220.435 47.7989C220.627 48.3232 220.358 49.1333 220.134 49.6177C220.159 49.6735 220.175 49.7262 220.183 49.7872C220.287 50.5335 219.269 56.0787 218.903 56.5209C218.175 56.4642 217.404 56.5181 216.672 56.5239C216.704 56.427 216.73 56.328 216.739 56.2259C216.807 55.3892 216.021 51.6532 215.48 50.9802C215.535 51.1308 215.598 51.308 215.617 51.4671C215.704 52.2097 215.019 55.9537 214.564 56.512C213.799 56.4994 213.032 56.5227 212.267 56.5337C212.809 55.2377 210.63 48.9248 211.167 47.7026L212.818 47.7042C212.832 47.725 212.847 47.7459 212.859 47.7676C212.867 47.7802 212.874 47.7931 212.881 47.8057C212.943 47.9133 212.998 48.0209 213.032 48.1411C213.278 49.0312 213.785 53.1725 213.402 53.8513C213.538 53.6863 213.683 53.5094 213.78 53.3181C214.105 52.6776 214.856 48.3778 214.642 47.7462Z" fill="white"/>
<path id="Vector_24" d="M139.4 36.0909C139.901 36.021 140.428 35.9055 140.866 36.2216C141.615 37.3741 146.145 46.6921 146.064 47.4273C146.753 46.204 147.127 39.0552 147.484 37.0016C147.529 36.7431 147.608 36.3108 147.839 36.1599C148.127 35.9711 148.658 36.0088 148.977 36.0796C149.018 36.1612 149.052 36.2446 149.056 36.3368C149.088 37.1892 147.47 49.7814 147.384 49.9451C147.336 50.038 147.213 50.1481 147.142 50.2312C146.99 50.2536 146.837 50.2754 146.684 50.2885C146.445 50.3091 146.18 50.295 146.001 50.1257C145.446 49.5993 145.058 48.4357 144.74 47.7459C144.027 46.2034 141.214 39.5602 140.338 38.8163C140.341 38.8265 140.344 38.8363 140.347 38.8467C140.361 38.8902 140.376 38.9313 140.39 38.9746C140.652 39.7711 139.489 49.343 139.038 50.2585C138.566 50.3057 138.052 50.2689 137.575 50.2723C137.898 49.5355 139.429 37.5933 139.4 36.0909Z" fill="white"/>
<path id="Vector_25" d="M12.2408 36.0443L22.9547 36.0269C22.9706 36.8777 22.9531 37.7319 22.9512 38.583C21.6373 38.5334 20.3085 38.58 18.9931 38.5855L18.9987 46.4756L18.9908 50.28L16.0812 50.2757C16.0585 46.3744 16.0666 42.4734 16.1054 38.5726C14.8177 38.554 13.5302 38.5592 12.2428 38.5882C12.2261 37.7417 12.2411 36.8915 12.2408 36.0443Z" fill="white"/>
<path id="Vector_26" d="M47.3731 36.0499C50.9397 35.9772 54.5194 36.0379 58.0873 36.0358C58.1268 36.8798 58.101 37.7343 58.0986 38.5797C56.7872 38.5502 55.4676 38.5809 54.1556 38.5846L54.1688 46.5952C54.1692 47.8214 54.1627 49.0476 54.1492 50.2738L51.2297 50.2781C51.0028 46.4195 51.2024 42.4392 51.2156 38.5656C49.9254 38.538 48.6306 38.5692 47.34 38.5784C47.3376 37.7362 47.3605 36.8924 47.3731 36.0499Z" fill="white"/>
<path id="Vector_27" d="M131.163 36.091C131.681 36.0042 132.248 36.0336 132.774 36.0226C132.866 36.1051 132.938 36.198 132.987 36.312C133.484 37.4731 133.689 39.6586 133.945 40.966C134.507 43.8382 135.26 46.7923 135.618 49.6913C135.646 49.9166 135.639 50.0862 135.55 50.2993L134.036 50.2763C134.192 49.6278 133.858 48.0464 133.509 47.4617C132.155 47.3522 130.732 47.4466 129.371 47.4565L127.643 47.4399C127.656 47.4991 127.668 47.5659 127.661 47.6269C127.587 48.2714 126.857 49.8194 126.385 50.2493C125.89 50.3131 125.342 50.2815 124.84 50.2956C125.387 49.7155 130.697 37.4973 131.163 36.091ZM131.681 38.1256C131.542 38.9718 128.618 45.825 128.07 46.2472L129.849 46.2208L133.354 46.2291C133.446 45.6846 132.125 38.5925 131.87 38.2406C131.829 38.1854 131.742 38.1569 131.681 38.1256Z" fill="white"/>
<path id="Vector_28" d="M104.993 36.0909C105.384 36.0367 105.786 36.0496 106.181 36.0443C108.075 36.0198 111.52 35.5256 112.971 36.9617C113.623 37.6065 113.883 38.5174 113.878 39.4167C113.878 39.573 113.871 39.729 113.855 39.8846C113.84 40.0401 113.817 40.1945 113.787 40.3478C113.757 40.5011 113.719 40.6526 113.674 40.8022C113.628 40.9516 113.576 41.0986 113.516 41.2431C113.456 41.3876 113.39 41.5288 113.316 41.6665C113.243 41.8045 113.163 41.9384 113.076 42.0682C112.989 42.1982 112.896 42.3236 112.797 42.4444C112.698 42.5652 112.593 42.6809 112.483 42.7915C110.812 44.4376 107.78 43.9701 105.63 43.9471C105.052 44.5649 105.422 49.2265 104.584 50.2784L103.082 50.2861C103.087 50.2784 103.092 50.2711 103.096 50.2634C103.104 50.2508 103.111 50.2376 103.118 50.2248C103.597 49.4325 104.956 37.6939 104.993 36.0909ZM106.222 37.4078C106.435 38.0324 105.97 41.8125 105.677 42.4097C105.629 42.506 105.571 42.6008 105.508 42.6878C106.902 42.6915 109.741 42.9653 110.897 42.311L111.011 42.1464C111.563 41.883 111.939 41.4498 112.141 40.8706C112.393 40.1485 112.568 39.2671 112.207 38.5499C111.938 38.0137 111.413 37.6908 110.856 37.516C109.613 37.1257 107.529 37.2616 106.222 37.4078Z" fill="white"/>
<path id="Vector_29" d="M91.4368 35.9714C92.7932 35.8527 94.0767 35.8613 95.3437 36.4343C96.32 36.8759 97.3487 37.6917 97.734 38.7253C97.9404 39.2796 98.1511 40.2255 97.8981 40.7795C97.0777 41.0484 95.924 40.9758 95.0573 41.0144C95.1287 40.816 95.0729 40.5539 95.0457 40.3481C94.9697 39.7736 94.7235 39.2962 94.2556 38.9421C93.6927 38.5165 92.9393 38.3472 92.2453 38.4466C91.6925 38.5257 91.1701 38.7805 90.8357 39.2398C90.2103 40.0983 90.1913 44.8387 90.4011 46.0378C90.4988 46.5961 90.7879 47.1097 91.2571 47.4374C91.8285 47.8366 92.5605 47.9387 93.237 47.8161C93.7885 47.7161 94.3444 47.4485 94.6644 46.9726C94.8825 46.6482 94.9131 46.3505 94.8347 45.9835C94.9244 45.8281 95.0368 45.6079 95.1734 45.4917C95.6107 45.1204 97.3631 45.3841 97.9318 45.4623L97.9404 45.4914C98.1716 46.3113 97.7955 47.3804 97.3952 48.093C96.7408 49.2577 95.6833 49.8559 94.4182 50.2024C92.894 50.6197 91.0681 50.4762 89.6897 49.675C89.5627 49.6014 89.4397 49.5217 89.3206 49.4359C89.2016 49.35 89.0871 49.2587 88.977 49.1618C88.867 49.0647 88.762 48.9624 88.6622 48.8549C88.5622 48.7476 88.4677 48.6355 88.3789 48.5188C88.2899 48.4019 88.2069 48.281 88.1299 48.1561C88.0528 48.0312 87.982 47.9029 87.9177 47.771C87.8534 47.6392 87.7956 47.5045 87.7444 47.3669C87.6933 47.2292 87.6491 47.0893 87.6118 46.9475C87.2317 45.5022 87.2789 41.2741 87.5334 39.784C87.6317 39.21 87.8203 38.645 88.118 38.1427C88.8622 36.8878 90.0844 36.3249 91.4368 35.9714Z" fill="white"/>
<path id="Vector_30" d="M59.4543 36.0477C62.6819 35.9993 65.9162 36.0404 69.1443 36.0385C69.2172 36.1486 69.2776 36.2654 69.3091 36.3945C69.4558 36.9957 69.4512 38.0425 69.133 38.5818C66.8845 38.5272 64.6296 38.5695 62.3802 38.5784C62.3643 39.6528 62.3833 40.7289 62.3891 41.8033L66.891 41.8116C66.9366 41.8934 66.9761 41.9768 67.0021 42.067C67.1831 42.6909 67.1748 43.7698 66.8622 44.3453C65.3729 44.2776 63.8744 44.326 62.3839 44.342L62.3683 45.5997L62.386 47.714C64.6359 47.6995 66.8857 47.7051 69.1355 47.7309C69.2181 47.8446 69.2837 47.9669 69.3137 48.1055C69.4353 48.6718 69.4552 49.779 69.1342 50.2772C65.9076 50.258 62.6809 50.263 59.4543 50.2922C59.344 48.3318 59.4243 46.3278 59.423 44.3631C59.4212 41.5942 59.3719 38.8154 59.4543 36.0477Z" fill="white"/>
<path id="Vector_31" d="M3.70648 45.3887C3.79355 46.1739 3.86754 46.7531 4.51299 47.2768C5.16711 47.8078 6.00924 47.989 6.8363 47.8967C7.38191 47.836 7.99622 47.6349 8.34654 47.1872C8.52508 46.9591 8.60771 46.6896 8.56854 46.4008C8.50316 45.9185 8.14625 45.5307 7.76718 45.2553C5.55308 43.6478 1.68464 43.909 1.09838 40.4846C0.940821 39.5641 1.1845 38.6039 1.72217 37.8456C2.47143 36.7891 3.64414 36.1872 4.90242 35.9769C6.48509 35.7123 8.39912 35.9386 9.72243 36.9001C10.5933 37.5329 11.2332 38.56 11.3857 39.6316C11.4421 40.0271 11.4479 40.4398 11.4605 40.8387C10.516 40.8534 9.55641 40.8332 8.61457 40.896C8.50539 40.0566 8.36075 39.4038 7.66348 38.8602C7.12739 38.442 6.40886 38.308 5.74455 38.3997C5.20046 38.4745 4.64679 38.7139 4.31075 39.1643C4.10314 39.4424 3.98814 39.7794 4.05089 40.1277C4.12743 40.5526 4.46026 40.8881 4.80926 41.1143C6.99037 42.5302 10.7557 42.3306 11.4638 45.5055C11.6825 46.486 11.5366 47.4972 10.9927 48.3468C10.322 49.3942 9.16956 50.0166 7.97815 50.2729C6.2939 50.6353 4.21703 50.4802 2.75913 49.5236C1.49066 48.6914 1.09516 47.5837 0.799805 46.1761V45.5843C1.65864 45.2992 2.80387 45.3927 3.70648 45.3887Z" fill="white"/>
<path id="Vector_32" d="M74.5578 35.9708C75.6413 35.8742 76.658 35.8552 77.7137 36.1731C78.8878 36.5272 80.0644 37.2962 80.6537 38.4015C81.0349 39.1162 81.2104 40.1301 80.9685 40.9105L78.1534 40.9163C78.2707 40.5763 78.1329 40.0326 77.9862 39.7144C77.7443 39.1904 77.2512 38.7369 76.7061 38.5444C76.1245 38.339 75.2536 38.3675 74.695 38.6428C72.4063 39.7714 74.0922 44.3085 73.4164 46.2809C73.413 46.2901 73.4096 46.2993 73.4066 46.3085C74.0962 46.7902 74.2573 47.5171 75.1693 47.7995C75.2498 47.8251 75.3313 47.8465 75.414 47.8639C75.4965 47.8813 75.5797 47.8945 75.6636 47.9035C75.7475 47.9127 75.8316 47.9177 75.916 47.9185C76.0003 47.9193 76.0845 47.916 76.1686 47.9087C76.2527 47.9011 76.3362 47.8895 76.4191 47.8737C76.502 47.858 76.584 47.8382 76.6651 47.8142C76.7459 47.7905 76.8254 47.7627 76.9036 47.7309C76.9818 47.6992 77.0583 47.6637 77.133 47.6245C77.6065 47.3727 78.0021 46.934 78.1522 46.4125C78.2876 45.9406 78.2484 45.3099 78.0138 44.8773C77.1566 44.8521 76.2979 44.8807 75.441 44.8972C75.4692 44.8537 75.4924 44.8111 75.5136 44.7635C75.7325 44.2665 75.6535 43.4056 75.4655 42.9107L75.6474 42.6032C76.108 42.2135 80.0139 42.4076 80.8913 42.411C80.9385 42.4922 80.9743 42.5747 81.0025 42.6642C81.3887 43.8952 81.1492 46.7752 80.5425 47.9108C79.937 49.0443 78.8771 49.8296 77.6549 50.1898C76.1561 50.6313 74.3516 50.5179 72.9735 49.7541C72.8394 49.6801 72.7093 49.5996 72.5834 49.5125C72.4574 49.4255 72.3361 49.3323 72.2195 49.2332C72.1029 49.1339 71.9916 49.029 71.8854 48.9186C71.7792 48.8083 71.6789 48.6928 71.5844 48.5722C71.4898 48.4518 71.4015 48.3269 71.3195 48.1975C71.2374 48.0681 71.1621 47.9349 71.0935 47.798C71.0249 47.6611 70.9632 47.521 70.9085 47.3779C70.854 47.2347 70.8067 47.0891 70.7667 46.9413C70.2883 45.2173 70.3416 39.7625 71.2159 38.2387C71.9534 36.9531 73.1864 36.3491 74.5578 35.9708Z" fill="white"/>
<path id="Vector_33" d="M40.4187 36.0348L43.9835 36.025C44.9522 38.7523 45.7898 41.5347 46.6721 44.2914C47.3032 46.2637 48.0444 48.2594 48.5163 50.2757L45.4348 50.287C45.1699 49.6646 45.0924 48.6884 44.7032 48.1635C44.5883 48.0083 44.438 48.0313 44.2548 48.0034L39.6455 48.0062C39.4626 48.7709 39.206 49.5285 38.9781 50.2815L35.8477 50.2754C36.5545 47.6563 37.4748 45.0613 38.2995 42.4747C38.9788 40.3442 39.5729 38.1026 40.4187 36.0348ZM42.0967 39.8054C41.5369 41.7637 41.0426 43.8057 40.3452 45.7162L42.4715 45.7205L44.0135 45.7168C43.8086 45.0349 42.4388 40.0008 42.0967 39.8054Z" fill="white"/>
<path id="Vector_34" d="M38.5204 15.0596C39.9108 16.7195 41.0883 18.6498 42.3219 20.4345C44.0427 22.9243 45.8416 25.3899 47.4751 27.9366C41.7565 27.7996 36.0122 27.9032 30.2905 27.9115C32.9393 23.5701 35.8631 19.3958 38.5204 15.0596Z" fill="#417695"/>
<path id="Vector_35" d="M30.2773 0.936882C32.3405 1.05134 34.439 0.984301 36.5065 0.985427L47.439 0.957428C46.0893 3.44417 43.5698 6.68657 41.8842 9.11837C40.948 10.469 39.6167 12.7555 38.5247 13.8526C35.8437 9.50953 32.8743 5.32942 30.2773 0.936882Z" fill="#417695"/>
<path id="Vector_36" d="M24.3088 36.0517C26.4503 36.0302 30.0033 35.6816 31.9655 36.3154C32.9519 36.6336 33.844 37.2812 34.3159 38.2209C34.8482 39.2812 34.85 40.7409 34.4795 41.8505C34.0691 43.0803 33.1513 43.6647 32.0512 44.2086C33.0744 46.1797 34.0884 48.223 34.945 50.2714C33.9319 50.279 32.853 50.3591 31.8503 50.2217C30.9302 48.2971 30.0777 46.3352 29.1974 44.3919L27.2501 44.4214C27.2597 46.372 27.2556 48.3226 27.2376 50.2732L24.2768 50.2695C24.1558 47.786 24.2565 45.244 24.254 42.7528C24.2518 40.5471 24.1241 38.2476 24.3088 36.0517ZM27.2491 38.5784L27.249 42.1451C28.4748 42.1611 30.317 42.4413 31.3328 41.6282C31.6519 41.1232 31.9682 40.4932 31.8329 39.8744C31.7502 39.4958 31.5291 39.2309 31.2068 39.031C30.115 38.3531 28.4758 38.5524 27.2491 38.5784Z" fill="white"/>
<path id="Vector_37" d="M165.831 1.0041L167.832 0.953644C168.253 1.61744 168.043 13.7401 168.043 15.3498L168.038 49.9657L168.03 60.1333C168.029 61.5967 168.198 63.2493 167.994 64.6882L167.773 65H165.971C166.246 63.8999 166.033 61.9036 166.028 60.7072L166.024 52.3321L166.024 14.2954C166.024 12.8809 166.216 1.64287 165.865 1.05749C165.854 1.0394 165.842 1.0219 165.831 1.0041Z" fill="white"/>
<path id="Vector_38" d="M58.4469 0.93881C60.8699 0.990847 63.3441 0.862708 65.7583 0.99249C66.5686 1.73552 74.329 13.8443 74.3795 14.4223C74.3857 14.5476 74.3771 14.6571 74.3167 14.7702C72.9986 17.238 70.9823 20.042 69.4507 22.4444C68.5589 23.8429 67.1578 26.4281 66.1181 27.5814C66.0094 27.7017 65.8918 27.8131 65.7583 27.9054C63.3218 27.9078 60.8727 27.8582 58.438 27.9453C60.3276 24.7854 62.6578 21.7752 64.7602 18.747C65.5886 17.5537 66.8488 16.1405 67.2917 14.7679C67.3535 14.5752 67.4402 14.2913 67.3698 14.0954C66.9762 12.9989 65.9172 11.8231 65.2453 10.8705L60.9869 4.76248C60.1282 3.52812 59.1375 2.27322 58.4469 0.93881Z" fill="#417695"/>
<path id="Vector_39" d="M91.2271 1.06497C93.4899 0.778767 96.0343 0.984118 98.3232 0.983517C99.8333 0.983122 101.543 0.81884 103.032 1.0021C103.537 1.33591 111.46 13.6082 111.598 14.2395C111.617 14.3273 111.631 14.4229 111.624 14.5124C111.617 14.6569 111.597 14.7962 111.525 14.9238C109.971 17.6638 108.11 20.3143 106.414 22.9733C105.739 24.0301 104.095 26.9794 103.31 27.7055C103.227 27.7824 103.132 27.8485 103.034 27.905C100.54 27.9476 97.9379 28.0506 95.4505 27.8858C95.525 27.771 95.5856 27.6445 95.6187 27.5114C95.7862 26.832 95.8055 25.0934 95.4512 24.5113C96.2578 24.5336 97.8261 24.7902 98.5323 24.4007C98.8781 24.2099 99.064 23.795 99.1592 23.4275C99.3387 22.7343 99.6648 20.3701 99.3185 19.7801C100.318 19.7616 101.324 19.6645 102.322 19.599C102.393 19.3632 102.375 19.1886 102.328 18.9512C101.938 17.0054 101.321 15.1026 100.893 13.1626C100.593 11.8015 100.489 10.3952 100.137 9.04684C99.9399 8.2976 99.6702 7.57543 99.328 6.88032C97.6053 3.40227 94.6828 2.23736 91.2271 1.06497Z" fill="#95CDB5"/>
<path id="Vector_40" d="M67.3599 0.936135C72.1162 1.09588 76.8956 0.990557 81.6556 0.984591C83.7341 0.981987 86.0295 0.794542 88.0847 1.08046C88.0768 1.09278 88.0697 1.10558 88.0614 1.11743C87.8609 1.39832 85.3655 2.16105 84.8042 2.44433C80.8321 4.44956 78.6176 9.19444 79.1731 13.5354C79.5471 16.4583 80.8422 18.7006 83.0472 20.6206C83.2732 20.8173 83.9669 21.2577 84.0658 21.5068C84.3295 22.4404 84.3488 26.9889 84.0318 27.9008C82.7204 28.1282 80.7929 27.9268 79.4304 27.9261C75.4357 27.9239 71.4272 27.8505 67.434 27.959C68.0201 27.4165 75.3263 16.0891 75.982 14.861C76.0448 14.7431 76.0644 14.603 76.076 14.4713C76.0809 14.4264 76.0822 14.384 76.0776 14.3388C76.0298 13.8643 67.8787 1.33771 67.3599 0.936135Z" fill="#95CDB5"/>
<path id="Vector_41" d="M223.512 0H227.2H245.59C245.715 0.191531 245.769 0.366057 245.784 0.592319C246.006 3.92379 245.808 7.60227 245.806 10.9658C245.805 12.3016 246.001 15.3724 245.759 16.5526C245.735 16.6676 245.691 16.7739 245.637 16.8775C245.939 17.534 245.922 23.8306 245.699 24.412C245.682 24.4586 245.661 24.5018 245.639 24.5464C245.745 25.1505 245.273 26.4598 245.075 27.056C244.199 29.6939 241.44 34.8339 238.888 36.1133C238.893 36.1047 238.899 36.0965 238.903 36.0879C238.964 35.9818 239.038 35.8877 239.085 35.773C239.361 35.1061 239.312 33.0844 239.04 32.439C239.329 32.252 239.527 31.9996 239.743 31.7372C239.934 31.5033 240.118 31.265 240.298 31.0222C240.477 30.7792 240.65 30.532 240.817 30.2806C240.984 30.0292 241.144 29.7739 241.299 29.5146C241.453 29.2554 241.601 28.9925 241.743 28.726C241.885 28.4595 242.02 28.1897 242.148 27.9166C242.277 27.6435 242.398 27.3674 242.513 27.0883C242.628 26.8092 242.736 26.5275 242.837 26.2431C242.939 25.9588 243.033 25.6721 243.12 25.3831C243.207 25.0942 243.287 24.8032 243.36 24.5103C243.433 24.2174 243.499 23.923 243.557 23.6269C243.616 23.3307 243.667 23.0334 243.711 22.7348C243.755 22.4361 243.792 22.1366 243.821 21.8362C243.85 21.5358 243.872 21.2348 243.887 20.9333C243.901 20.6319 243.909 20.3302 243.909 20.0283C243.909 19.7265 243.901 19.4248 243.886 19.1234C243.871 18.8219 243.849 18.521 243.819 18.2206C243.787 17.9149 243.748 17.6101 243.701 17.3064C243.654 17.0026 243.6 16.7002 243.538 16.399C243.476 16.0979 243.407 15.7985 243.331 15.5007C243.255 15.203 243.171 14.9073 243.08 14.6136C242.99 14.3199 242.892 14.0286 242.787 13.7397C242.682 13.4508 242.571 13.1646 242.452 12.8811C242.333 12.5976 242.207 12.3172 242.075 12.0399C241.942 11.7626 241.803 11.4886 241.657 11.2181C241.512 10.9475 241.359 10.6807 241.2 10.4176C241.042 10.1545 240.877 9.89538 240.705 9.64033C240.534 9.38526 240.356 9.13451 240.173 8.88811C239.989 8.6417 239.799 8.39991 239.604 8.16274C239.408 7.92558 239.207 7.69331 239.001 7.46596C238.794 7.2386 238.582 7.01642 238.364 6.79943C238.147 6.58242 237.924 6.37083 237.696 6.16467C237.468 5.95853 237.236 5.75806 236.998 5.56326C236.193 4.90128 232.999 2.57804 232 2.67487C232.129 2.97397 234.183 3.9845 234.609 4.28654C235.01 4.57386 235.399 4.87687 235.776 5.19555C236.153 5.51426 236.517 5.84762 236.867 6.19564C237.217 6.54363 237.553 6.90516 237.874 7.28022C238.195 7.65527 238.5 8.04265 238.79 8.44234C238.968 8.69291 239.141 8.94765 239.307 9.20655C239.473 9.46546 239.633 9.72824 239.787 9.99489C239.941 10.2615 240.088 10.5317 240.228 10.8055C240.369 11.0792 240.503 11.3562 240.63 11.6364C240.757 11.9166 240.878 12.1997 240.991 12.4858C241.105 12.7718 241.212 13.0604 241.311 13.3516C241.411 13.6428 241.503 13.9362 241.589 14.2319C241.675 14.5275 241.753 14.8251 241.824 15.1246C241.895 15.424 241.959 15.725 242.016 16.0275C242.072 16.33 242.121 16.6338 242.164 16.9387C242.205 17.2436 242.24 17.5493 242.267 17.8559C242.294 18.1625 242.314 18.4696 242.327 18.7771C242.339 19.0846 242.344 19.3923 242.341 19.7001C242.339 20.0079 242.329 20.3154 242.312 20.6227C242.295 20.93 242.27 21.2367 242.238 21.5428C242.206 21.8489 242.166 22.1541 242.119 22.4583C241.783 24.5526 240.557 28.7582 238.787 30.0391C238.877 29.8901 238.979 29.7342 239.05 29.5761C239.505 28.5688 239.13 26.1288 239.208 24.9589C239.282 23.8491 239.732 22.7504 239.962 21.6641C240.542 18.927 240.121 15.6792 239.144 13.082C239.045 12.8222 238.94 12.565 238.829 12.3103C238.718 12.0557 238.601 11.8039 238.477 11.5549C238.354 11.306 238.225 11.0602 238.089 10.8176C237.954 10.575 237.813 10.3359 237.666 10.1002C237.519 9.86446 237.366 9.63247 237.208 9.40421C237.049 9.17596 236.886 8.95171 236.716 8.73146C236.547 8.51122 236.372 8.29524 236.193 8.08352C236.013 7.8718 235.828 7.66459 235.638 7.46191C235.448 7.2592 235.253 7.06127 235.054 6.86811C234.854 6.67493 234.65 6.48674 234.441 6.30353C234.232 6.12032 234.019 5.94233 233.802 5.76955C233.584 5.59675 233.362 5.42936 233.137 5.26739C232.911 5.10542 232.682 4.94906 232.449 4.79829C232.215 4.64752 231.978 4.50254 231.738 4.36334C231.498 4.22416 231.254 4.09092 231.007 3.96362C230.761 3.83632 230.511 3.71512 230.258 3.60002C230.051 3.5062 229.843 3.4166 229.633 3.33122C229.423 3.24582 229.211 3.16471 228.998 3.0879C228.784 3.01109 228.569 2.93863 228.353 2.87052C228.136 2.8024 227.919 2.73869 227.7 2.67939C227.481 2.62008 227.26 2.56523 227.039 2.51484C226.818 2.46444 226.596 2.41854 226.373 2.37713C226.15 2.33573 225.926 2.29885 225.702 2.2665C225.477 2.23415 225.252 2.20636 225.026 2.18312C224.801 2.15988 224.575 2.14121 224.348 2.12712C224.122 2.11303 223.895 2.10353 223.668 2.09861C223.442 2.09369 223.215 2.09336 222.988 2.09762C222.761 2.10188 222.535 2.11073 222.308 2.12416C222.082 2.1376 221.856 2.1556 221.63 2.17819C221.404 2.20077 221.179 2.22791 220.954 2.25961C220.73 2.29131 220.506 2.32754 220.283 2.36829C220.06 2.40905 219.837 2.45431 219.616 2.50407C219.395 2.55382 219.175 2.60803 218.955 2.6667C218.736 2.72537 218.518 2.78845 218.302 2.85593C218.085 2.92342 217.87 2.99526 217.656 3.07147C217.443 3.14765 217.231 3.22813 217.02 3.31292C216.81 3.39768 216.601 3.48668 216.394 3.57991C216.187 3.67311 215.983 3.77048 215.78 3.87201C215.577 3.97351 215.376 4.07909 215.177 4.18873C214.979 4.29837 214.782 4.41198 214.588 4.52955C214.394 4.64714 214.203 4.76861 214.014 4.89395C213.825 5.01929 213.638 5.1484 213.454 5.28128C213.27 5.41418 213.089 5.55075 212.911 5.69097C212.732 5.83119 212.557 5.97495 212.384 6.12227C212.212 6.26958 212.042 6.42034 211.876 6.57454C211.709 6.72872 211.546 6.8862 211.386 7.04698C211.226 7.20779 211.069 7.37176 210.915 7.5389C210.762 7.70604 210.612 7.87621 210.465 8.04942C209.668 8.99281 208.004 12.2915 207.063 12.6464L206.874 12.5398C208.303 7.00568 214.725 2.44324 219.888 0.808088C220.632 0.572371 223.063 0.330375 223.476 0.0274545C223.488 0.0185937 223.5 0.00915151 223.512 0ZM227.2 0C228.481 0.307671 229.812 0.408875 231.08 0.765884C231.387 0.852005 231.692 0.945272 231.995 1.04568C232.298 1.1461 232.598 1.25355 232.896 1.36803C233.193 1.48252 233.488 1.60392 233.781 1.73222C234.073 1.86053 234.362 1.99561 234.647 2.13745C234.933 2.2793 235.215 2.42776 235.494 2.58284C235.773 2.73792 236.048 2.89943 236.319 3.06739C236.591 3.23537 236.858 3.4096 237.121 3.59009C237.384 3.77057 237.643 3.95712 237.897 4.14973C238.152 4.34234 238.402 4.5408 238.647 4.74512C238.892 4.94944 239.132 5.15939 239.367 5.37495C239.603 5.59053 239.833 5.81149 240.057 6.03783C240.282 6.26418 240.502 6.49569 240.716 6.73235C240.93 6.96898 241.139 7.2105 241.342 7.45691C241.544 7.70332 241.741 7.95435 241.932 8.20999C242.123 8.46562 242.308 8.72559 242.487 8.9899C242.666 9.25421 242.839 9.52256 243.005 9.79495C243.75 11.009 245.945 15.5943 245.637 16.8775C245.691 16.7739 245.735 16.6676 245.759 16.5526C246.001 15.3724 245.805 12.3016 245.806 10.9658C245.808 7.60227 246.006 3.92379 245.784 0.592319C245.769 0.366057 245.715 0.191531 245.59 0H227.2Z" fill="white"/>
<path id="Vector_42" d="M88.0846 1.08046C89.131 1.06453 90.1808 1.03252 91.227 1.06497C94.6827 2.23736 97.6053 3.40226 99.3279 6.88031C99.6701 7.57543 99.9398 8.2976 100.137 9.04684C100.489 10.3952 100.593 11.8015 100.893 13.1626C101.321 15.1026 101.938 17.0054 102.328 18.9512C102.375 19.1886 102.393 19.3632 102.322 19.599C101.324 19.6645 100.318 19.7616 99.3184 19.7801C99.6648 20.3701 99.3386 22.7343 99.1592 23.4275C99.0639 23.795 98.878 24.2099 98.5323 24.4007C97.8261 24.7902 96.2578 24.5336 95.4511 24.5113C95.8054 25.0934 95.7861 26.832 95.6186 27.5114C95.5855 27.6445 95.5249 27.771 95.4505 27.8858C94.7865 28.0439 85.2974 28.0259 84.0317 27.9008C84.3486 26.9889 84.3293 22.4404 84.0656 21.5068C83.9667 21.2577 83.2731 20.8173 83.0471 20.6206C80.8421 18.7006 79.5469 16.4583 79.173 13.5354C78.6175 9.19444 80.8319 4.44956 84.804 2.44433C85.3654 2.16105 87.8607 1.39832 88.0613 1.11743C88.0696 1.10558 88.0766 1.09278 88.0846 1.08046Z" fill="#FAF7F7"/>
<path id="Vector_43" d="M88.3627 2.57342C89.829 2.4327 91.2387 2.45897 92.6572 2.89966C92.8032 2.94436 92.9479 2.99263 93.0915 3.04448C93.235 3.09634 93.3771 3.15171 93.5178 3.21057C93.6587 3.26946 93.798 3.3318 93.9358 3.39757C94.0734 3.46335 94.2094 3.53248 94.3437 3.60496C94.4781 3.67746 94.6105 3.75324 94.7409 3.83231C94.8716 3.91135 95.0001 3.99357 95.1265 4.07897C95.2531 4.16439 95.3774 4.25287 95.4995 4.34443C95.6216 4.43598 95.7415 4.53049 95.8591 4.62797C95.9765 4.72545 96.0914 4.82578 96.2039 4.92897C96.3164 5.03213 96.4263 5.13801 96.5337 5.24661C96.6409 5.35521 96.7454 5.4664 96.8473 5.58019C96.949 5.69396 97.0479 5.81018 97.1441 5.92883C97.24 6.04751 97.333 6.16847 97.4231 6.29173C97.5131 6.415 97.6001 6.54042 97.684 6.66799C97.7679 6.79556 97.8486 6.92513 97.9259 7.0567C98.0035 7.18826 98.0777 7.32165 98.1486 7.45688C98.4741 8.08128 98.743 8.75851 98.9219 9.43997C99.2002 10.4999 99.2391 11.6248 99.426 12.7044C99.6149 13.7955 99.9692 14.8821 100.255 15.9521C100.433 16.6159 100.858 17.7445 100.652 18.3989C99.8042 18.4977 98.9562 18.5362 98.1033 18.5753C98.1556 18.6737 98.1985 18.7807 98.2218 18.8899C98.3743 19.6005 98.091 22.6789 97.722 23.2353C96.549 23.2198 95.3755 23.1798 94.2029 23.1502C94.5541 23.9006 94.4427 25.8455 94.2029 26.6331L92.645 26.6258L85.2796 26.6303C85.2836 26.623 85.2879 26.6158 85.2916 26.6084C85.2977 26.5961 85.3029 26.5833 85.3091 26.571C85.3201 26.5492 85.3329 26.5284 85.344 26.5065C85.6643 25.8638 85.5982 21.4525 85.3593 20.7301C85.2089 20.4933 84.6004 20.1707 84.3471 19.9661C82.4377 18.4234 81.2172 16.8026 80.6547 14.3797C80.6179 14.2238 80.5849 14.067 80.5557 13.9095C80.5265 13.7519 80.5013 13.5938 80.4801 13.435C80.4587 13.2762 80.4412 13.117 80.4277 12.9573C80.4143 12.7977 80.4047 12.6378 80.3989 12.4776C80.3934 12.3175 80.3918 12.1574 80.394 11.9972C80.3961 11.837 80.4022 11.6769 80.4124 11.517C80.4226 11.3571 80.4367 11.1975 80.4547 11.0383C80.4726 10.8791 80.4945 10.7204 80.5202 10.5623C80.5459 10.4042 80.5756 10.2468 80.609 10.0901C80.6427 9.93345 80.6801 9.77769 80.7211 9.62286C80.7624 9.46802 80.8074 9.3143 80.8562 9.16169C80.905 9.00909 80.9574 8.85777 81.0136 8.70774C81.0697 8.5577 81.1296 8.40915 81.193 8.26209C81.2565 8.115 81.3236 7.96957 81.3943 7.82579C81.4651 7.68203 81.5393 7.5401 81.6169 7.39998C81.6945 7.25986 81.7755 7.12174 81.8601 6.9856C83.3788 4.55178 85.6138 3.20585 88.3627 2.57342Z" fill="#95CDB5"/>
<path id="Vector_44" d="M88.314 6.16479C88.7596 6.17807 89.2217 6.18712 89.656 6.29522C90.8571 6.59422 92.1479 7.46529 92.7816 8.5422C93.0664 9.02657 93.4042 9.83064 93.2578 10.3931L95.9654 10.3943C96.0211 10.4771 96.0658 10.56 96.0967 10.6554C96.3365 11.3933 96.2526 17.7036 95.9687 18.2771L91.2093 18.2756L88.073 18.2767C88.4141 17.6558 88.2717 16.5661 88.1247 15.9041C87.1521 15.7232 86.3515 15.4469 85.5565 14.8388C85.4289 14.7419 85.3064 14.6389 85.189 14.5299C85.0716 14.4208 84.9597 14.3063 84.8534 14.1863C84.7472 14.0662 84.6473 13.9413 84.5536 13.8113C84.4596 13.6814 84.3724 13.5472 84.2917 13.4087C84.2111 13.2702 84.1374 13.1281 84.0706 12.9823C84.0038 12.8366 83.9444 12.6879 83.8924 12.5363C83.8403 12.3847 83.7959 12.2309 83.7591 12.0749C83.7222 11.9189 83.693 11.7614 83.6716 11.6026C83.652 11.4472 83.6401 11.2912 83.636 11.1347C83.6317 10.9781 83.6353 10.8217 83.6468 10.6655C83.658 10.5093 83.677 10.3541 83.7037 10.1998C83.7305 10.0455 83.7647 9.89284 83.8063 9.74191C83.8482 9.59098 83.8974 9.44248 83.9539 9.29641C84.0103 9.15037 84.0738 9.00746 84.1444 8.86769C84.215 8.72794 84.2924 8.59201 84.3765 8.45991C84.4605 8.3278 84.5508 8.20017 84.6476 8.07702C85.5875 6.88013 86.8443 6.34397 88.314 6.16479Z" fill="#FAF7F7"/>
<path id="Vector_45" d="M89.5245 12.8679C89.5833 12.8785 89.6473 12.893 89.7006 12.9216C90.0249 13.0958 90.4297 13.5049 90.5434 13.8591L90.2978 14.065C90.0613 14.2354 89.9805 14.3335 89.6807 14.3267C89.4516 13.9497 89.5272 13.3044 89.5245 12.8679Z" fill="#95CDB5"/>
<path id="Vector_46" d="M90.4146 11.7903C90.4228 11.7882 90.4311 11.7858 90.4394 11.7838C90.9364 11.6672 91.5002 11.5872 91.9458 11.8518C91.9161 12.1748 91.8178 12.2649 91.6246 12.5106L91.5691 12.7262C91.2053 12.6701 90.7324 12.052 90.4146 11.7903Z" fill="#95CDB5"/>
<path id="Vector_47" d="M93.2349 11.7904C93.735 11.6837 94.2121 11.6965 94.7211 11.7128C94.9921 12.6421 95.0313 16.0692 94.6883 16.9694C93.4134 17.0064 92.1265 16.9786 90.8504 16.9825C90.5068 16.9965 90.0465 17.0459 89.7415 16.863C89.4955 16.7155 89.4426 16.6569 89.373 16.3921C89.5412 15.6923 92.0338 14.6406 92.6606 13.7339C93.0058 13.2347 93.3445 12.3993 93.2349 11.7904Z" fill="#95CDB5"/>
<path id="Vector_48" d="M87.9762 7.48132C88.0003 7.4782 88.0244 7.47528 88.0485 7.47258C88.1714 7.45989 88.2947 7.4532 88.4184 7.4525C88.5419 7.45179 88.6653 7.45707 88.7884 7.46835C88.9115 7.47966 89.0337 7.49689 89.155 7.52005C89.2764 7.54323 89.3965 7.57223 89.5151 7.60706C89.6337 7.64191 89.7503 7.68242 89.8648 7.7286C89.9796 7.77477 90.0918 7.8264 90.2014 7.88346C90.311 7.94055 90.4177 8.00283 90.5214 8.07028C90.6249 8.13771 90.725 8.21002 90.8216 8.2872C91.4708 8.81462 91.8806 9.52367 91.9672 10.3548C90.7095 10.4928 89.3292 10.3915 88.058 10.3966C88.1238 10.5012 88.1838 10.613 88.2114 10.7344C88.3691 11.4349 88.4147 13.3639 88.0411 13.9485C88.0635 13.9883 88.0834 14.0244 88.0996 14.0672C88.1878 14.3017 88.2123 14.365 88.1106 14.5941C87.7897 14.6471 87.4066 14.4626 87.1273 14.3156C86.2042 13.8294 85.3948 12.9081 85.0971 11.902C84.854 11.081 84.869 10.155 85.2919 9.39459C85.8557 8.38047 86.8961 7.78802 87.9762 7.48132Z" fill="#95CDB5"/>
<path id="Vector_49" d="M56.756 0.924159C57.0902 0.701341 57.3857 0.53227 57.8068 0.615927C58.0646 0.66713 58.2505 0.768456 58.4468 0.938808C59.1374 2.27322 60.1282 3.52812 60.9869 4.76248L65.2453 10.8705C65.9172 11.8231 66.9762 12.9989 67.3697 14.0954C67.4402 14.2913 67.3535 14.5752 67.2917 14.7679C66.8488 16.1405 65.5886 17.5537 64.7602 18.747C62.6578 21.7752 60.3275 24.7854 58.438 27.9453C58.2208 28.1167 58.0077 28.2832 57.7247 28.3215C57.333 28.3746 57.0586 28.1619 56.7692 27.9368C55.2818 27.9166 50.4559 27.6486 49.1837 27.9742C48.9246 28.1421 48.6674 28.2915 48.3516 28.3196C47.9936 28.3516 47.7361 28.1482 47.4751 27.9366C45.8416 25.3899 44.0427 22.9243 42.3219 20.4345C41.0883 18.6498 39.9108 16.7195 38.5204 15.0596C38.4322 14.6464 38.4793 14.2681 38.5247 13.8526C39.6168 12.7555 40.948 10.469 41.8842 9.11837C43.5698 6.68657 46.0894 3.44417 47.439 0.957428C47.7609 0.720675 48.053 0.538467 48.475 0.61272C48.7448 0.660188 48.9421 0.773015 49.1482 0.948129C51.5247 0.97897 54.4497 1.217 56.756 0.924159Z" fill="#FAF7F7"/>
<path id="Vector_50" d="M55.9923 13.3809C56.2894 13.6751 56.5436 14.1262 56.7917 14.4695C55.5334 16.2468 54.2925 18.0361 53.0692 19.8374C52.6655 19.7485 52.5198 19.3898 52.2778 19.064C53.5687 17.2105 54.7624 15.276 55.9923 13.3809Z" fill="#417695"/>
<path id="Vector_51" d="M52.9052 8.94989C53.1698 9.17828 53.4038 9.57545 53.6166 9.85986C52.3295 11.7256 51.1287 13.6631 49.8917 15.5633L49.1123 14.4878C50.3685 12.636 51.6646 10.8131 52.9052 8.94989Z" fill="#417695"/>
<path id="Vector_52" d="M54.4117 11.0861C54.7042 11.3859 54.9511 11.8183 55.1982 12.1618C53.9542 14.0328 52.7219 15.9114 51.5011 17.7976C51.1998 17.5404 50.9429 17.0971 50.7046 16.7741C52.0098 14.9379 53.1855 12.9778 54.4117 11.0861Z" fill="#417695"/>
<path id="Vector_53" d="M49.1836 27.9742C49.5949 26.7568 52.077 23.6269 52.9434 22.3434C54.2393 24.1937 55.5145 26.0581 56.7691 27.9368C55.2816 27.9166 50.4558 27.6486 49.1836 27.9742Z" fill="#417695"/>
<path id="Vector_54" d="M49.1479 0.948126C51.5244 0.978968 54.4494 1.217 56.7558 0.924156C56.0769 2.47681 53.9846 5.05768 52.9317 6.55485C51.7373 4.65029 50.252 2.90887 49.1479 0.948126Z" fill="#417695"/>
<path id="Vector_55" d="M57.5537 2.25226C58.4706 3.32055 65.8558 13.899 65.903 14.4797C65.9232 15.0339 58.6724 25.1416 57.7252 26.5061L57.5402 26.5255C56.4144 25.3874 54.753 22.6052 53.7595 21.1638C55.1205 19.2747 57.3537 16.4345 58.319 14.4538C57.5178 12.714 54.9576 9.4507 53.7559 7.72771C55.081 5.951 56.3091 4.08599 57.5537 2.25226Z" fill="#417695"/>
<path id="Vector_56" d="M48.2721 2.24837C49.1658 3.09848 51.282 6.52073 52.145 7.74604C51.2964 8.95507 48.1065 12.9926 47.8912 14.1708C47.8192 14.5644 47.9135 14.9629 48.0795 15.3207C48.6782 16.6098 51.1702 19.805 52.1382 21.1887L48.2868 26.7077C46.6502 24.2997 44.9983 21.9023 43.3311 19.5155C42.1664 17.8339 41.0437 16.0883 39.7856 14.4759C40.8101 13.1945 41.7138 11.739 42.6497 10.3884L48.2721 2.24837Z" fill="#417695"/>
<path id="Vector_57" d="M1.54658 1.006C6.41486 0.849361 11.3206 0.968256 16.1925 0.968575C19.9077 0.96882 23.7022 0.809413 27.4096 0.993005C27.7695 1.01083 28.4709 1.00635 28.7321 1.24703C29.6524 2.09521 31.386 5.23977 32.1364 6.42093C33.8303 9.08747 35.6708 11.7389 37.2339 14.4815L31.474 23.5415C30.5967 24.9193 29.6919 26.7331 28.5645 27.9027C27.1917 27.9508 25.8186 27.9658 24.4451 27.9477C23.9266 27.9069 23.3971 27.9346 22.8772 27.9425C21.2646 27.9511 19.649 27.9808 18.0371 27.9281L16.435 27.9321C14.8285 27.9468 13.2195 27.9805 11.6135 27.9295C11.0851 27.9189 10.5537 27.9333 10.025 27.9359C8.41347 27.955 6.80191 27.9566 5.19032 27.9406C4.67827 27.9181 4.15909 27.933 3.64619 27.9305C2.96353 28.0016 2.26771 27.9935 1.58175 28.0082C1.51065 26.3427 1.626 24.6407 1.67389 22.9745C1.64066 22.2266 1.60898 21.4983 1.68749 20.7515C1.35407 18.2407 1.58715 15.4533 1.67514 12.9169C1.64152 12.1686 1.62051 11.4421 1.68174 10.6942C1.3706 7.51318 1.6743 4.20888 1.54658 1.006Z" fill="#E31F26"/>
<path id="Vector_58" d="M3.35252 5.18654L6.4619 4.47663C6.71388 5.52624 6.95831 6.5776 7.19519 7.63073C6.83452 8.17252 6.4857 8.73251 6.10687 9.26118L5.65784 7.04333C4.40709 9.01553 3.19143 11.0251 1.86336 12.9458C1.80776 12.941 1.7217 12.9461 1.67505 12.9169C1.64143 12.1686 1.62042 11.4421 1.68165 10.6942C2.67005 9.27854 3.58261 7.81128 4.50806 6.35415C3.75884 6.52576 2.99738 6.67743 2.25498 6.87476L3.35252 5.18654Z" fill="#FAF7F7"/>
<path id="Vector_59" d="M22.6714 15.1426L25.8277 14.4202C26.0497 15.4795 26.2922 16.5384 26.4939 17.6016L25.4358 19.2438C25.28 18.5083 25.1054 17.7714 25.004 17.0261C23.9447 18.4973 23.0089 20.08 22.0355 21.6101C20.6986 23.7117 19.3335 25.8011 18.0372 27.9281L16.4351 27.9321L23.8413 16.2889L21.6208 16.8038L22.6714 15.1426Z" fill="#FAF7F7"/>
<path id="Vector_60" d="M30.0233 13.6671C31.0687 13.4179 32.1128 13.16 33.169 12.9615L33.867 16.1007L32.7966 17.7498C32.6376 17.0113 32.4871 16.271 32.3452 15.529C29.6965 19.6264 26.8841 23.7271 24.4454 27.9477C23.9269 27.9069 23.3974 27.9346 22.8774 27.9425C25.3196 23.6118 28.4756 19.0673 31.1825 14.8236L29.0028 15.3157L30.0233 13.6671Z" fill="#FAF7F7"/>
<path id="Vector_61" d="M12.5502 10.878L15.6686 10.1683C15.9195 11.2182 16.1623 12.27 16.3972 13.3236L15.3205 14.9773L14.8574 12.7687C11.6049 17.802 8.35084 22.8493 5.19062 27.9406C4.67857 27.9181 4.15938 27.933 3.64648 27.9305C4.88384 25.5926 6.49086 23.3605 7.91572 21.1277C9.84482 18.1048 11.7053 14.9999 13.7317 12.0434L11.5052 12.5496L12.5502 10.878Z" fill="#FAF7F7"/>
<path id="Vector_62" d="M10.5602 3.95016C11.5958 3.7469 12.6268 3.52278 13.6534 3.27778C13.8895 4.30861 14.0787 5.38298 14.3838 6.39388L13.3201 8.08162C13.1541 7.34564 12.9721 6.60866 12.8287 5.86815C11.5386 7.89217 2.43089 22.5357 1.7786 23.0366L1.67404 22.9745C1.64081 22.2266 1.60913 21.4983 1.68764 20.7515C4.2313 17.0906 6.53895 13.2252 8.93557 9.46431C9.84553 8.03633 10.7118 6.51861 11.7199 5.15971C10.9763 5.32197 10.2081 5.45666 9.47638 5.66306L10.5602 3.95016Z" fill="#FAF7F7"/>
<path id="Vector_63" d="M22.923 7.62686C22.497 6.93636 22.1557 6.21747 22.3574 5.38838C22.5158 4.73725 23.0377 4.04962 23.6153 3.71172C24.1276 3.41201 24.7229 3.35998 25.2913 3.51678C25.3773 3.54125 25.462 3.5699 25.5453 3.60275C25.6285 3.6356 25.71 3.67248 25.7896 3.7134C25.8692 3.7543 25.9466 3.79904 26.0218 3.8476C26.097 3.89617 26.1696 3.94833 26.2397 4.00409C26.3097 4.05985 26.3768 4.11894 26.441 4.18134C26.5052 4.24375 26.5662 4.30917 26.6239 4.3776C26.6816 4.44603 26.7359 4.51715 26.7865 4.59096C26.8372 4.66475 26.8842 4.74087 26.9274 4.81932C27.2514 5.40337 27.3753 6.16173 27.1807 6.80841C27.0185 7.34736 26.6471 7.72862 26.1563 7.98666C25.4439 8.36124 24.8369 8.41551 24.0506 8.3739C19.9234 14.8906 15.6016 21.3297 11.6134 27.9295C11.085 27.9189 10.5536 27.9333 10.0249 27.9359C12.9961 23.2047 15.9924 18.4895 19.0136 13.7902C20.3096 11.7586 21.7536 9.72949 22.923 7.62686Z" fill="#FAF7F7"/>
<path id="Vector_64" d="M24.5008 4.75923C24.6001 4.76514 24.6989 4.77556 24.7972 4.79051C25.156 4.84726 25.5217 5.0463 25.7288 5.34941C25.8819 5.57363 25.9181 5.83777 25.8673 6.10154C25.773 6.59024 25.4429 6.82954 25.0637 7.09715C24.9976 7.09531 24.9317 7.09149 24.8659 7.08571C24.4889 7.05214 24.0996 6.89335 23.8582 6.59104C23.6963 6.38822 23.6384 6.13585 23.6681 5.88011C23.7317 5.33273 24.0958 5.06863 24.5008 4.75923Z" fill="#E31F26"/>
<path id="Vector_65" d="M104.884 1.01728C109.193 0.925326 113.513 0.984933 117.823 0.98558L140.304 0.98566C140.397 1.03943 140.481 1.09827 140.561 1.17103C141.366 1.9069 143.29 5.29291 143.984 6.38071C145.592 8.90056 147.376 11.4158 148.837 14.0192C148.921 14.169 148.948 14.3198 148.957 14.4899C148.951 14.5816 148.931 14.6765 148.903 14.7641C148.724 15.3229 141.553 26.5283 140.755 27.5786C140.672 27.6882 140.54 27.7703 140.418 27.8316C139.55 28.1398 133.738 27.9183 132.246 27.9178L114.743 27.9075C111.389 27.9044 108.017 27.8292 104.666 27.9397C104.719 27.9073 104.768 27.8727 104.817 27.8353C105.481 27.3285 113.328 15.014 113.4 14.4859C113.345 13.7553 105.929 2.60703 104.884 1.01728Z" fill="#0D1F36"/>
<path id="Vector_66" d="M132.593 15.6215C134.041 15.4437 135.296 15.5004 136.54 16.3715C136.669 16.4623 136.793 16.5592 136.913 16.6623C137.033 16.7654 137.148 16.8741 137.257 16.9885C137.366 17.1029 137.469 17.2223 137.566 17.3469C137.663 17.4715 137.754 17.6006 137.839 17.7341C137.923 17.8676 138.001 18.005 138.072 18.1463C138.143 18.2875 138.207 18.4319 138.264 18.5795C138.321 18.727 138.37 18.877 138.412 19.0294C138.454 19.1818 138.489 19.3359 138.515 19.4918C138.542 19.6467 138.562 19.8026 138.573 19.9594C138.585 20.1162 138.589 20.2733 138.586 20.4305C138.582 20.5877 138.57 20.7444 138.551 20.9005C138.532 21.0566 138.506 21.2114 138.471 21.3649C138.437 21.5184 138.395 21.6698 138.346 21.8192C138.297 21.9686 138.241 22.1153 138.178 22.2591C138.114 22.403 138.044 22.5434 137.966 22.6804C137.889 22.8174 137.805 22.9502 137.715 23.079C137.626 23.2027 137.532 23.3218 137.431 23.4362C137.331 23.5506 137.225 23.6598 137.114 23.7638C137.003 23.8678 136.887 23.966 136.766 24.0585C136.645 24.151 136.52 24.2374 136.39 24.3175C136.261 24.3977 136.128 24.4713 135.991 24.5383C135.855 24.6053 135.715 24.6655 135.572 24.7187C135.43 24.772 135.285 24.8181 135.138 24.857C134.991 24.896 134.842 24.9276 134.692 24.9518C134.673 24.9614 134.647 24.9758 134.627 24.9827C133.895 25.2253 132.633 25.0329 131.933 24.7364C130.781 24.2491 129.848 23.2415 129.384 22.0876C129.324 21.942 129.272 21.794 129.227 21.6433C129.182 21.4926 129.145 21.3401 129.115 21.1857C129.085 21.0313 129.063 20.8759 129.048 20.7193C129.034 20.5628 129.027 20.4059 129.028 20.2486C129.029 20.0914 129.038 19.9346 129.055 19.7782C129.071 19.6219 129.095 19.4667 129.127 19.3128C129.159 19.1588 129.198 19.0068 129.245 18.8567C129.292 18.7067 129.346 18.5593 129.408 18.4146C130.03 16.9571 131.176 16.1822 132.593 15.6215Z" fill="#FAF7F7"/>
<path id="Vector_67" d="M132.663 3.29179C134.202 3.07346 135.696 3.30123 136.976 4.22779C137.121 4.33322 137.261 4.44556 137.396 4.56481C137.53 4.68406 137.658 4.80965 137.78 4.94159C137.902 5.07352 138.017 5.21114 138.125 5.35447C138.234 5.49777 138.334 5.64608 138.428 5.79938C138.522 5.95268 138.608 6.11022 138.686 6.27201C138.764 6.43381 138.834 6.59907 138.895 6.76779C138.957 6.9365 139.01 7.10785 139.055 7.28184C139.1 7.45581 139.136 7.63157 139.164 7.80914C139.191 7.98594 139.21 8.16368 139.22 8.34235C139.23 8.521 139.232 8.69972 139.224 8.87851C139.217 9.0573 139.201 9.2353 139.176 9.41252C139.151 9.58974 139.118 9.76532 139.076 9.93927C139.034 10.1132 138.984 10.2847 138.925 10.4537C138.866 10.6227 138.799 10.7885 138.724 10.9509C138.649 11.1134 138.567 11.2718 138.476 11.4262C138.386 11.5805 138.288 11.7301 138.183 11.8749C137.3 13.071 136.022 13.7578 134.571 13.9802C133.533 14.1695 132.32 13.9518 131.379 13.494C131.219 13.4161 131.063 13.3303 130.912 13.2369C130.76 13.1434 130.614 13.0425 130.473 12.9344C130.332 12.8262 130.196 12.7113 130.066 12.5896C129.937 12.4679 129.813 12.34 129.696 12.206C129.579 12.0719 129.469 11.9324 129.366 11.7873C129.263 11.6422 129.167 11.4923 129.079 11.3377C128.991 11.1831 128.911 11.0244 128.839 10.8618C128.767 10.6991 128.703 10.5333 128.647 10.3642C128.591 10.1969 128.543 10.0273 128.503 9.85529C128.464 9.68328 128.433 9.50975 128.41 9.33467C128.388 9.1596 128.374 8.98386 128.369 8.80744C128.363 8.63102 128.367 8.45475 128.379 8.27864C128.391 8.10255 128.412 7.92747 128.441 7.75343C128.47 7.57936 128.508 7.40716 128.554 7.23683C128.6 7.06648 128.655 6.89881 128.717 6.73382C128.78 6.56884 128.851 6.40733 128.929 6.24929C129.718 4.66522 131.046 3.83708 132.663 3.29179Z" fill="#FAF7F7"/>
<path id="Vector_68" d="M132.483 4.72808C132.691 4.69223 132.891 4.67611 133.102 4.67025C132.882 5.21226 130.582 7.39709 130.006 7.72136L129.877 7.85519C129.843 7.70664 129.856 7.65764 129.9 7.51173C130.332 6.08541 131.217 5.4072 132.483 4.72808Z" fill="#0D1F36"/>
<path id="Vector_69" d="M137.564 9.03751L137.777 9.08568C137.816 9.15369 137.848 9.22295 137.864 9.30003C137.948 9.69365 137.534 10.3833 137.317 10.6983C136.568 11.7817 135.627 12.4374 134.341 12.6678L134.242 12.5372C135.142 11.2512 136.721 10.3551 137.564 9.03751Z" fill="#0D1F36"/>
<path id="Vector_70" d="M134.768 4.84781C134.917 4.82371 135.08 4.80565 135.228 4.8426C135.537 4.91995 135.766 4.97986 135.932 5.25296C135.369 5.97936 131.264 10.1439 130.638 10.5054C130.603 10.5998 130.523 10.6951 130.467 10.7795C130.209 10.6981 129.996 10.1656 129.855 9.91364C130.506 9.393 134.644 5.31017 134.768 4.84781Z" fill="#0D1F36"/>
<path id="Vector_71" d="M136.711 6.28431L137.052 6.29749C137.34 6.50371 137.36 6.53514 137.477 6.87084C137.418 7.30104 137.123 7.62092 136.848 7.93663C136.193 8.68867 132.785 12.3657 132.07 12.4154C131.855 12.1381 131.466 12.0081 131.155 11.8632C131.944 11.4175 136.424 6.96175 136.711 6.28431Z" fill="#0D1F36"/>
<path id="Vector_72" d="M121.047 3.29182C122.532 3.06877 124.01 3.29207 125.261 4.16163C125.409 4.26379 125.552 4.373 125.689 4.48926C125.826 4.60551 125.957 4.72822 126.081 4.8574C126.206 4.98661 126.324 5.12164 126.436 5.26252C126.547 5.40339 126.652 5.54943 126.749 5.70062C126.846 5.85182 126.936 6.00744 127.017 6.16749C127.099 6.32752 127.173 6.49119 127.238 6.65852C127.304 6.82584 127.361 6.99598 127.41 7.16895C127.459 7.34192 127.499 7.51687 127.53 7.69382C127.561 7.87221 127.584 8.05169 127.597 8.23228C127.611 8.41287 127.615 8.59369 127.611 8.77473C127.607 8.95577 127.594 9.13616 127.572 9.31591C127.549 9.49564 127.519 9.67386 127.479 9.85057C127.439 10.0273 127.391 10.2016 127.334 10.3736C127.278 10.5455 127.213 10.7143 127.139 10.8798C127.066 11.0454 126.985 11.2069 126.895 11.3644C126.806 11.5219 126.709 11.6747 126.605 11.8226C125.772 12.9936 124.491 13.7277 123.086 13.9581C121.995 14.1768 120.725 13.9858 119.729 13.498C118.457 12.8746 117.514 11.7368 117.061 10.401C117.003 10.2319 116.953 10.0602 116.911 9.88607C116.869 9.71192 116.837 9.53613 116.813 9.35868C116.789 9.18124 116.773 9.00305 116.767 8.82412C116.761 8.64516 116.763 8.46634 116.775 8.28766C116.787 8.10897 116.807 7.9313 116.836 7.75466C116.866 7.57801 116.904 7.40327 116.95 7.23042C116.997 7.05758 117.052 6.88749 117.116 6.72014C117.18 6.55282 117.251 6.38907 117.331 6.2289C118.125 4.63465 119.416 3.83126 121.047 3.29182Z" fill="#FAF7F7"/>
<path id="Vector_73" d="M121.3 4.60854C122.422 4.44346 123.519 4.61019 124.468 5.25624C124.581 5.33334 124.69 5.41587 124.795 5.50385C124.9 5.5918 125 5.68476 125.096 5.78271C125.191 5.88068 125.282 5.98314 125.367 6.09011C125.453 6.19707 125.532 6.30802 125.607 6.42296C125.681 6.53789 125.749 6.65624 125.812 6.778C125.875 6.89974 125.931 7.02431 125.981 7.15169C126.031 7.27905 126.075 7.4086 126.113 7.54034C126.15 7.67208 126.18 7.80534 126.204 7.94012C126.228 8.072 126.245 8.20473 126.256 8.33831C126.266 8.47189 126.27 8.60566 126.268 8.73962C126.265 8.87359 126.255 9.00709 126.239 9.14014C126.223 9.27316 126.201 9.40508 126.172 9.53587C126.143 9.66667 126.107 9.79571 126.065 9.92299C126.023 10.0503 125.975 10.1751 125.921 10.2976C125.867 10.4201 125.807 10.5396 125.74 10.6561C125.674 10.7727 125.603 10.8856 125.525 10.995C124.852 11.9492 123.856 12.4716 122.726 12.6701C122.003 12.8221 121.114 12.635 120.448 12.339C120.33 12.2854 120.215 12.226 120.102 12.1609C119.99 12.0958 119.881 12.0253 119.776 11.9494C119.671 11.8734 119.57 11.7925 119.472 11.7065C119.375 11.6205 119.282 11.5299 119.194 11.4347C119.106 11.3395 119.023 11.2401 118.944 11.1367C118.866 11.0331 118.793 10.926 118.725 10.8153C118.657 10.7045 118.595 10.5907 118.539 10.4737C118.482 10.3568 118.432 10.2374 118.387 10.1154C118.339 9.98934 118.297 9.86117 118.261 9.7309C118.225 9.60064 118.196 9.46892 118.174 9.33575C118.151 9.20258 118.135 9.06863 118.126 8.93389C118.116 8.79912 118.114 8.66425 118.118 8.52926C118.122 8.39425 118.133 8.25979 118.151 8.12586C118.168 7.99194 118.192 7.85922 118.223 7.72771C118.254 7.59617 118.291 7.4665 118.335 7.33869C118.378 7.2109 118.428 7.08558 118.485 6.96273C119.062 5.70489 120.05 5.06528 121.3 4.60854Z" fill="#0D1F36"/>
<path id="Vector_74" d="M121.299 14.9032C122.894 14.7638 124.362 15.0423 125.626 16.0852C125.764 16.1994 125.897 16.3201 126.023 16.4474C126.15 16.5747 126.27 16.7079 126.384 16.847C126.497 16.9862 126.603 17.1305 126.702 17.2802C126.802 17.4298 126.893 17.5839 126.977 17.7426C127.061 17.9013 127.137 18.0637 127.205 18.2299C127.273 18.396 127.333 18.5651 127.384 18.7372C127.435 18.9093 127.478 19.0834 127.512 19.2597C127.546 19.436 127.572 19.6135 127.588 19.7923C127.605 19.9728 127.613 20.1538 127.611 20.3351C127.61 20.5164 127.6 20.6972 127.581 20.8775C127.562 21.0578 127.534 21.2367 127.497 21.4142C127.46 21.5917 127.414 21.767 127.36 21.94C127.306 22.1131 127.244 22.283 127.173 22.4499C127.102 22.6167 127.023 22.7796 126.936 22.9387C126.849 23.0977 126.754 23.2521 126.652 23.4017C126.55 23.5514 126.44 23.6956 126.324 23.8345C125.379 24.9475 124.052 25.5542 122.611 25.6642C121.713 25.8928 120.309 25.4852 119.529 25.0497C119.372 24.9607 119.22 24.8642 119.073 24.7603C118.926 24.6563 118.785 24.5453 118.649 24.4274C118.513 24.3095 118.383 24.1851 118.259 24.0543C118.136 23.9236 118.019 23.787 117.908 23.6447C117.798 23.5024 117.695 23.3549 117.599 23.2025C117.504 23.0499 117.416 22.8931 117.335 22.7319C117.255 22.5707 117.183 22.4059 117.119 22.2376C117.055 22.0693 116.999 21.8982 116.952 21.7244C116.904 21.5543 116.865 21.3822 116.834 21.2081C116.803 21.034 116.781 20.8588 116.768 20.6825C116.754 20.5062 116.75 20.3297 116.754 20.153C116.758 19.9763 116.771 19.8002 116.793 19.6247C116.815 19.4492 116.845 19.2753 116.884 19.1029C116.923 18.9305 116.971 18.7604 117.027 18.5927C117.083 18.425 117.147 18.2606 117.219 18.0993C117.292 17.938 117.372 17.7807 117.46 17.6274C118.322 16.1103 119.673 15.3521 121.299 14.9032Z" fill="#FAF7F7"/>
<path id="Vector_75" d="M121.559 16.22C122.672 16.1006 123.794 16.3685 124.685 17.0588C124.792 17.1417 124.894 17.2296 124.991 17.3226C125.089 17.4155 125.182 17.5131 125.27 17.6152C125.358 17.7173 125.441 17.8235 125.518 17.9338C125.596 18.0441 125.668 18.1579 125.734 18.2753C125.8 18.3926 125.861 18.513 125.915 18.6363C125.97 18.7597 126.018 18.8854 126.06 19.0135C126.102 19.1416 126.138 19.2714 126.167 19.4031C126.197 19.5347 126.219 19.6674 126.236 19.8013C126.252 19.9362 126.262 20.0716 126.265 20.2075C126.267 20.3434 126.264 20.4791 126.253 20.6146C126.242 20.7502 126.225 20.8848 126.201 21.0186C126.178 21.1524 126.147 21.2847 126.11 21.4155C126.073 21.5463 126.03 21.675 125.98 21.8015C125.931 21.928 125.875 22.0518 125.813 22.1728C125.751 22.2938 125.683 22.4114 125.61 22.5257C125.536 22.64 125.457 22.7503 125.373 22.8568C124.644 23.7632 123.629 24.2275 122.492 24.3577C121.783 24.4923 120.776 24.2116 120.154 23.8656C119.237 23.3556 118.572 22.4378 118.287 21.4367C118.249 21.3068 118.217 21.1754 118.192 21.0424C118.167 20.9094 118.149 20.7755 118.137 20.6406C118.125 20.5058 118.12 20.3707 118.122 20.2354C118.124 20.1001 118.132 19.9651 118.147 19.8306C118.163 19.6962 118.185 19.5628 118.213 19.4305C118.241 19.2982 118.277 19.1676 118.318 19.0388C118.36 18.91 118.407 18.7836 118.462 18.6595C118.516 18.5355 118.576 18.4144 118.642 18.2964C119.3 17.1342 120.314 16.5664 121.559 16.22Z" fill="#0D1F36"/>
<path id="Vector_76" d="M121.575 17.417C121.61 17.4124 121.646 17.4081 121.681 17.404C122.524 17.3047 123.336 17.4949 124.004 18.0346C124.079 18.0961 124.151 18.1611 124.219 18.2296C124.287 18.2981 124.352 18.3699 124.413 18.4448C124.474 18.5198 124.531 18.5975 124.584 18.6782C124.638 18.7588 124.687 18.8419 124.732 18.9274C124.777 19.0129 124.818 19.1005 124.854 19.19C124.891 19.2796 124.923 19.3707 124.95 19.4635C124.978 19.5562 125 19.6501 125.018 19.7451C125.037 19.8401 125.05 19.9357 125.059 20.032C125.128 20.7818 124.915 21.5682 124.43 22.1503C123.891 22.7969 123.191 23.0777 122.372 23.1529C121.923 23.2088 121.415 23.1096 120.999 22.9404C120.303 22.657 119.813 22.1706 119.529 21.4743C119.492 21.3833 119.46 21.2907 119.432 21.1965C119.405 21.1023 119.381 21.007 119.363 20.9105C119.345 20.8141 119.331 20.7169 119.322 20.6191C119.313 20.5213 119.309 20.4233 119.31 20.3251C119.31 20.2269 119.316 20.129 119.326 20.0313C119.336 19.9337 119.351 19.8368 119.371 19.7406C119.391 19.6444 119.415 19.5494 119.444 19.4555C119.473 19.3617 119.507 19.2696 119.545 19.1791C119.962 18.2011 120.622 17.7938 121.575 17.417Z" fill="#FAF7F7"/>
<path id="Vector_77" d="M185.626 14.5441C186.736 14.4184 187.927 14.4962 189.046 14.4973L196.125 14.5307C203.544 14.4873 210.963 14.4833 218.382 14.5187C218.456 14.5474 218.528 14.5789 218.596 14.6185C219.123 14.925 220.461 16.2096 220.605 16.7773C221.261 16.4215 222.627 15.1719 222.956 14.525C225.719 14.3682 229.788 14.3851 232.55 14.5338C232.625 14.5594 232.698 14.5873 232.77 14.6214C233.399 14.9208 236.945 17.7624 237.127 18.292C237.179 18.3897 237.226 18.4909 237.252 18.5991C237.449 19.4115 237.467 24.4301 237.092 25.0225C236.126 25.0064 235.158 24.9718 234.192 24.9437C234.958 25.3034 236.766 26.4961 237.111 27.2265C237.171 27.3101 237.226 27.3993 237.251 27.5002C237.467 28.3626 237.393 36.4978 237.289 37.708C237.273 37.887 237.214 38.0449 237.125 38.201C237.089 38.3126 237.023 38.4408 236.937 38.5223C235.999 39.417 233.788 41.3835 232.604 41.8088C232.288 41.9219 231.866 41.8796 231.534 41.8677C228.884 41.8875 226.235 41.8776 223.585 41.8379C223.387 41.39 219.583 38.4665 218.975 38.0925C219.279 37.6224 219.186 34.0625 219.055 33.3842L219.011 33.4054C218.739 33.5348 218.511 33.7476 218.21 33.8236C217.346 34.0425 214.598 33.8613 213.55 33.8564C213.608 33.9407 213.658 34.033 213.69 34.1299C213.932 34.8559 213.857 41.321 213.571 41.9014C211.944 41.6653 210.016 41.8496 208.358 41.8505C204.665 41.8421 200.972 41.8544 197.278 41.8873C197.312 41.8067 197.335 41.7248 197.335 41.6368C197.336 40.942 196.949 40.3911 196.49 39.9115C196.547 40.0062 196.597 40.104 196.641 40.205C196.886 40.7725 196.802 41.3256 196.579 41.8808C193.596 41.7429 190.521 41.814 187.533 41.8996C187.582 41.8143 187.622 41.7253 187.653 41.6325C187.874 40.9791 187.789 22.5112 187.717 20.6893C187.71 20.4968 187.659 20.3359 187.571 20.1644C187.429 19.7231 186.004 18.8935 185.577 18.6517C185.875 17.8553 185.761 15.4022 185.626 14.5441ZM186.745 15.6215C186.89 16.1283 186.977 17.5725 186.723 18.0312C186.694 18.0839 186.697 18.0773 186.668 18.1201C187.084 18.2954 188.47 19.0722 188.63 19.4888C188.636 19.5038 188.641 19.5193 188.646 19.5345C188.753 19.714 188.799 19.867 188.807 20.0744C188.983 25.0251 188.818 30.0412 188.817 35.0007C188.817 36.0327 188.997 39.4679 188.797 40.2948C188.771 40.4036 188.724 40.4981 188.675 40.5974C188.667 40.6127 188.66 40.6287 188.652 40.6443C188.639 40.6719 188.623 40.6986 188.608 40.725C190.896 40.7197 193.193 40.6713 195.48 40.7274C195.872 40.0851 195.792 35.4992 195.6 34.6533C195.544 34.4071 195.396 34.1584 195.275 33.9374C195.477 34.1084 195.702 34.2995 195.836 34.53C196.249 35.2423 198.121 39.8073 198.155 40.5106C198.16 40.613 198.135 40.709 198.095 40.8022C202.877 40.7952 207.706 40.6501 212.481 40.8038C212.792 40.1657 212.77 33.6415 212.54 32.9691C212.51 32.882 212.473 32.7983 212.428 32.718C214.233 32.7006 216.038 32.6999 217.843 32.7159C218.751 32.2277 220.898 30.0218 221.342 29.153C221.754 29.4661 223.58 30.8514 223.682 31.2175C225.49 31.2109 227.298 31.1906 229.106 31.1565C229.352 31.7366 229.413 33.4627 229.182 34.048C229.153 34.1192 229.113 34.1857 229.07 34.2486C228.365 34.2446 227.651 34.2164 226.947 34.2519C227.237 33.7476 227.252 32.8713 227.112 32.3114C227.083 32.1962 227.039 32.0916 226.982 31.9877C224.722 32.0422 222.407 32.1174 220.15 32.011C220.416 32.745 220.396 36.8578 220.105 37.5826C220.824 37.9536 223.641 40.1317 224.034 40.7492C224.54 40.7734 225.047 40.8093 225.553 40.7967C227.742 40.7964 230.042 40.9479 232.217 40.7774C232.762 40.5119 235.858 38.1216 235.995 37.7049C235.998 37.6954 236 37.6856 236.002 37.6758C236.232 37.1883 236.26 28.4264 236.032 27.8165C236.026 27.8017 236.02 27.7872 236.014 27.7725C235.663 27.1584 232.883 25.0329 232.249 24.8088C230.469 24.7645 228.689 24.7592 226.909 24.793C227.269 24.259 227.217 22.9858 227.108 22.371C227.082 22.227 227.019 22.101 226.938 21.9809C227.648 21.9651 228.362 21.9636 229.072 21.932C229.357 22.3861 229.332 23.188 229.221 23.7015C229.2 23.7955 229.164 23.8654 229.103 23.9399L235.95 23.9423C236.235 23.3718 236.287 19.7009 236.099 19.0779C236.075 18.9998 236.041 18.9245 236.004 18.8519C235.855 18.3789 232.949 16.0507 232.386 15.7627C232.28 15.7077 232.169 15.6639 232.054 15.6314C229.195 15.5885 226.335 15.6562 223.477 15.618C223.107 16.2007 221.185 18.1157 220.583 18.3588C220.314 17.6588 218.609 15.9627 217.878 15.6328C217.857 15.6236 217.836 15.6148 217.815 15.6064L204.649 15.6265C202.319 15.6272 199.919 15.7387 197.596 15.5743C197.68 16.2079 196.191 19.6904 195.754 20.2731C195.611 20.4645 195.415 20.6364 195.242 20.8011C195.807 19.8337 195.924 16.9711 195.628 15.9016C195.597 15.7899 195.551 15.6796 195.498 15.5765C192.595 15.739 189.632 15.4116 186.745 15.6215Z" fill="white"/>
<path id="Vector_78" d="M203.97 18.3747C204.009 18.3793 204.047 18.3861 204.084 18.3961C204.549 18.5184 205.395 19.1368 205.619 19.5479C205.673 19.6215 205.716 19.6997 205.741 19.7881C205.95 20.5424 205.875 35.7479 205.781 37.6246C205.772 37.7868 205.725 37.9177 205.649 38.0606C205.389 37.8227 205.023 37.6859 204.733 37.4786C204.151 37.0626 203.872 36.6171 203.426 36.091C203.441 36.0391 203.454 35.9843 203.455 35.93C203.463 35.4915 199.972 27.634 199.574 27.2353C200.16 26.7235 203.396 19.5708 203.97 18.3747ZM204.317 20.0504C204.178 20.9484 201.555 26.2529 200.907 27.1776C201.323 27.9973 203.536 32.6288 203.416 33.219C203.767 33.5599 204.58 35.1294 204.555 35.6041C204.552 35.6534 204.544 35.7 204.531 35.7476C204.758 34.7882 204.722 20.3602 204.571 20.1354C204.531 20.0754 204.39 20.0661 204.317 20.0504Z" fill="white"/>
<path id="Vector_79" d="M223.741 16.6988C225.236 16.3753 230.164 16.5697 231.9 16.6517C231.918 16.6582 231.937 16.6643 231.955 16.6711C232.548 16.8932 234.83 18.67 235.093 19.2537C235.139 19.3343 235.179 19.4175 235.204 19.507C235.4 20.1959 235.405 22.4056 235.068 22.991C233.46 22.7904 231.639 22.9383 230.012 22.9709C230.052 22.9011 230.086 22.8304 230.113 22.7542C230.308 22.2031 230.288 21.5565 230.036 21.0317L222.343 20.9732C223.514 21.2472 224.982 21.6391 226.048 22.173C226.099 22.2826 226.144 22.3968 226.165 22.5163C226.289 23.2141 226.393 25.1421 226.013 25.7022C227.995 25.7053 229.977 25.7257 231.959 25.7636C231.998 25.7775 232.036 25.7926 232.075 25.809C232.67 26.0636 234.855 27.6809 235.082 28.2608C235.126 28.3242 235.161 28.3888 235.185 28.4619C235.387 29.0629 235.333 36.713 235.095 37.2018C235.092 37.2217 235.089 37.2416 235.084 37.2613C235 37.6117 234.307 37.9622 234.021 38.1262C234.014 38.1473 234.005 38.1808 233.993 38.2013C233.705 38.7075 232.399 39.6019 231.845 39.7987C229.412 39.9805 226.825 39.8284 224.379 39.7938C224.145 39.3161 221.594 37.4323 221.014 37.0813C221.063 36.9979 221.105 36.912 221.131 36.8188C221.335 36.1054 221.324 33.6387 220.96 33.0062C222.654 33.0071 224.35 33.031 226.042 32.9541C226.067 33.0145 226.09 33.0749 226.108 33.138C226.268 33.7037 226.327 34.6747 226.029 35.1917L230.058 35.176C230.106 35.0976 230.153 35.0096 230.172 34.9188C230.326 34.1701 230.377 30.8042 230.024 30.2393C228.032 30.2477 226.041 30.2421 224.049 30.2225C223.67 29.639 221.67 28.1518 221.028 27.7481C221.292 27.2444 221.276 19.9338 221.063 19.2379C221.737 18.8408 223.239 17.3396 223.741 16.6988Z" fill="white"/>
<path id="Vector_80" d="M198.217 16.6086C200.025 16.6118 201.865 16.6804 203.669 16.5581C203.581 17.4194 199.015 26.7745 198.476 27.2157C199.329 27.9445 202.556 36.1446 203.381 37.8472C203.964 38.1188 204.829 38.4101 205.135 39.0043C205.104 39.3011 205.083 39.3652 204.912 39.6095C204.027 40.1372 202.062 39.8171 201.029 39.8143L198.763 39.8269C198.775 39.7451 198.784 39.6644 198.783 39.5816C198.779 39.0031 195.452 30.5466 194.96 29.5629C194.828 29.2988 194.619 29.0716 194.409 28.8673C194.484 28.999 194.554 29.1351 194.606 29.2775C194.901 30.0816 194.889 39.1711 194.561 39.857C192.924 39.7702 191.254 39.7858 189.617 39.856C189.629 39.8248 189.641 39.7932 189.65 39.761C189.656 39.7423 189.661 39.7236 189.667 39.7049C189.682 39.6586 189.697 39.6132 189.709 39.5663C189.957 38.6486 189.883 21.5922 189.784 19.6219C189.774 19.4243 189.721 19.2637 189.622 19.0914C189.315 18.3596 187.741 17.99 187.581 17.1166C187.555 16.9772 187.614 16.9395 187.693 16.8308C188.466 16.3786 193.206 16.6279 194.401 16.5792C194.535 16.6007 194.594 16.6628 194.692 16.7534C194.897 18.0095 194.853 23.4335 194.687 24.6942C194.645 25.0133 194.491 25.3201 194.34 25.6007C194.437 25.5112 194.529 25.4173 194.618 25.3192C195.145 24.7317 198.245 17.2163 198.217 16.6086Z" fill="white"/>
<path id="Vector_81" d="M204.605 16.6988C206.008 16.395 207.852 16.6036 209.307 16.6028C212.044 16.6014 214.826 16.5023 217.558 16.6518C217.661 16.693 217.762 16.7397 217.855 16.8013C218.399 17.1626 219.986 18.6231 220.094 19.185C220.156 19.2687 220.201 19.3577 220.224 19.4597C220.403 20.2504 220.379 28.668 220.091 29.1247C220.086 29.2103 220.074 29.2955 220.039 29.3749C219.806 29.9174 217.912 31.5658 217.368 31.778C215.644 31.9588 213.774 31.8163 212.035 31.8141L211.797 31.8301C211.224 32.7799 212.192 38.7311 211.499 39.8588C209.863 39.7175 208.144 39.8015 206.503 39.8527C206.536 39.8015 206.567 39.7509 206.594 39.6963C206.789 39.3002 206.869 19.8941 206.59 19.117C206.313 18.6071 205.611 18.2845 205.16 17.9269C204.72 17.5784 204.665 17.232 204.605 16.6988ZM208.396 20.8886C209.3 21.528 210.693 21.5457 211.523 22.2126C211.815 22.799 211.832 26.5981 211.614 27.2176C211.587 27.2942 211.553 27.3657 211.519 27.4394C211.513 27.4528 211.508 27.4666 211.503 27.48C211.499 27.488 211.495 27.4959 211.491 27.5038C212.578 27.4792 214.152 27.6891 215.162 27.3786C215.16 27.2508 215.158 27.2229 215.094 27.1134C215.311 26.4148 215.427 21.5842 215.116 20.9717C215.106 20.9524 215.096 20.9337 215.085 20.9146C212.891 20.8974 210.577 20.7306 208.396 20.8886Z" fill="white"/>
<path id="Vector_82" d="M212.718 21.8462L214.134 21.7982C214.516 22.6241 214.312 24.4366 214.289 25.3724C214.276 25.8873 214.297 26.1509 213.915 26.5148L212.468 26.5519C213.033 25.4549 212.418 23.1688 212.718 21.8462Z" fill="white"/>
<path id="Vector_83" d="M0.799805 55.7501C2.31244 55.5339 3.97289 55.6547 5.50322 55.659L13.7005 55.6753L42.5928 55.6707L113.01 55.6713L136.396 55.671C140.567 55.6707 144.749 55.7341 148.919 55.6544C149.251 56.191 149.271 63.7365 149.07 64.6204C149.045 64.7296 148.989 64.8234 148.928 64.9154C148.921 64.9261 148.915 64.9372 148.907 64.9476C148.89 64.9739 148.889 64.9727 148.866 65H148.372H83.5758H1.27832H1.048H0.799805V55.919V55.7501ZM1.27832 65H83.5758L83.5767 64.8964L19.5135 64.8771L6.81985 64.8571C5.53976 64.8584 2.37205 64.6906 1.27832 65ZM83.5767 64.8964L83.5758 65H148.372C148.316 64.9678 148.243 64.9108 148.184 64.8912C147.647 64.7109 136.245 64.8617 134.655 64.8608L101.89 64.8838C95.7897 64.885 89.6757 64.7857 83.5767 64.8964ZM0.799805 55.919V65H1.048C0.345088 63.0592 1.50083 58.0668 0.799805 55.919Z" fill="#0D1F36"/>
<path id="Vector_84" d="M0.799805 55.919C1.50083 58.0668 0.345088 63.0592 1.048 65H0.799805V55.919Z" fill="#0D1F36" fill-opacity="0.564706"/>
<path id="Vector_85" d="M90.1954 57.9966C90.5019 57.9454 90.8183 57.9401 91.1282 57.923L91.2486 58.0705C91.3307 58.9995 91.4758 61.7788 91.2431 62.5837C91.2134 62.6861 91.0609 62.8587 90.9972 62.955C90.7858 62.9755 90.6471 62.9694 90.4471 62.8958C89.7957 61.7739 90.6474 59.2953 90.1954 57.9966Z" fill="#FAF7F7"/>
<path id="Vector_86" d="M102.175 57.9969C102.517 57.9567 102.933 57.8555 103.255 58.003C103.407 58.7959 103.466 62.3448 103.108 62.901C102.879 62.996 102.748 62.9841 102.509 62.9298C101.838 62.0253 102.647 59.2046 102.175 57.9969Z" fill="#FAF7F7"/>
<path id="Vector_87" d="M136.274 57.9972C136.624 57.9352 137.021 57.881 137.342 58.0343C137.475 58.9366 137.578 62.2213 137.168 62.9053C136.932 62.9792 136.789 62.974 136.548 62.9191C135.909 62.0581 136.602 59.1942 136.274 57.9972Z" fill="#FAF7F7"/>
<path id="Vector_88" d="M34.3969 57.9162C34.7249 57.9086 35.0039 57.9064 35.3215 58.0091C35.5453 59.2923 35.3919 60.7873 35.3867 62.0952C36.0145 62.1188 37.2502 61.8518 37.7568 62.24C37.95 62.388 37.9325 62.7296 37.9644 62.9638L34.3889 62.9703C34.3746 61.2856 34.3773 59.6009 34.3969 57.9162Z" fill="#FAF7F7"/>
<path id="Vector_89" d="M38.5092 63.0494C38.5202 61.9698 38.2749 58.986 38.5995 58.2041C38.8571 57.965 38.8963 57.9552 39.2457 57.9064L39.4163 58.0468C39.74 58.8823 39.5262 61.0417 39.5269 62.0278L39.5612 62.0348C40.3626 62.1937 41.4486 61.8113 42.0421 62.4389L42.0353 62.7943C41.0884 63.2597 39.5523 62.8145 38.5092 63.0494Z" fill="#FAF7F7"/>
<path id="Vector_90" d="M91.8691 57.9969C92.8908 57.8236 95.0933 57.7304 95.957 58.3194L95.7861 58.5684C95.323 58.8452 94.7439 58.8063 94.2205 58.818C94.2403 58.8838 94.2571 58.9503 94.2708 59.0176C94.404 59.6951 94.5078 61.2453 94.1265 61.8224C94.1587 61.8742 94.1899 61.9269 94.2156 61.9824C94.3617 62.2979 94.3562 62.5027 94.2407 62.8084C93.9706 62.9862 93.9287 62.9957 93.605 62.9945C93.5456 62.951 93.4191 62.8804 93.3756 62.8265C93.1928 62.5981 93.3477 59.4468 93.2396 58.8293C93.0108 58.7395 92.4544 58.7943 92.195 58.791C91.9341 58.5423 91.9402 58.34 91.8691 57.9969Z" fill="#FAF7F7"/>
<path id="Vector_91" d="M131.838 57.9972C132.503 57.8794 134.93 57.7872 135.513 58.0048C135.723 58.0833 135.733 58.1447 135.825 58.3347L135.704 58.6512C135.33 58.9191 134.978 58.6904 134.559 58.7882C134.098 58.8961 134.434 61.0467 134.094 61.5893C134.151 61.6853 134.209 61.7868 134.247 61.892C134.376 62.2458 134.305 62.5015 134.148 62.8222C133.912 62.9847 133.844 63.0537 133.559 63.061C133.003 62.6152 133.319 59.6847 133.197 58.8275C132.973 58.7373 132.415 58.7916 132.157 58.7885C131.912 58.5429 131.91 58.328 131.838 57.9972Z" fill="#FAF7F7"/>
<path id="Vector_92" d="M97.953 59.9634C98.5511 59.4462 98.7269 58.2161 99.3737 57.9046C99.6144 57.7887 99.6622 57.8092 99.9011 57.8951C99.9547 58.0174 100.014 58.1122 100.007 58.2486C99.9792 58.799 99.3599 59.7847 98.9581 60.1569C98.9774 60.2661 98.7202 62.0349 98.6718 62.2513C98.5894 62.6195 98.4335 62.8053 98.1264 63.0022C98.0385 62.9896 97.8204 62.9899 97.7864 62.9133C97.5623 62.4101 97.6964 61.5961 97.6186 61.0353C97.5154 60.2921 96.5602 58.6303 96.0874 58.0242L96.0659 57.9969C96.2987 57.9564 96.555 57.896 96.7905 57.9297C97.0824 57.9714 97.3488 58.2281 97.5197 58.4611C97.7815 58.8177 98.0149 59.5201 97.953 59.9634Z" fill="#FAF7F7"/>
<path id="Vector_93" d="M83.5766 64.8964C89.6756 64.7857 95.7895 64.885 101.89 64.8838L134.655 64.8608C136.245 64.8617 147.647 64.7109 148.184 64.8912C148.243 64.9108 148.316 64.9678 148.371 65H83.5757L83.5766 64.8964Z" fill="#0D1F36" fill-opacity="0.705882"/>
<path id="Vector_94" d="M2.79592 57.9328C3.58916 57.9217 5.40695 57.6731 6.07626 58.0741C6.28273 58.198 6.27547 58.2973 6.32561 58.5153C5.89376 59.185 4.35917 58.4473 3.80082 58.9648C3.77066 59.2901 3.77306 59.5133 3.8832 59.8279C4.33523 60.0907 4.71795 59.8751 5.19003 60.0125C5.47729 60.0962 5.5198 60.3022 5.64601 60.5475L5.39102 60.7983C4.92583 60.962 4.28371 60.8725 3.79054 60.8605C3.80096 61.4078 3.94528 62.5116 3.60334 62.935C3.34643 62.9666 3.15332 62.9421 2.90283 62.8792C2.52852 61.8637 2.78217 59.1025 2.79592 57.9328Z" fill="#FAF7F7"/>
<path id="Vector_95" d="M26.7538 57.9699C27.2803 57.8859 27.8462 57.8362 28.3574 58.0242C28.7519 58.1695 29.1116 58.5123 29.2805 58.8983C29.4026 59.1773 29.3911 59.3005 29.281 59.5661C29.0005 59.7191 28.7655 59.6464 28.4724 59.5817C28.2802 59.3502 28.1377 59.1059 27.991 58.8449C27.7062 58.7202 27.5513 58.6702 27.2348 58.7787C26.9879 58.8636 26.8687 59.0427 26.7709 59.2714C26.532 59.8304 26.5763 61.1997 26.8054 61.7592C26.9764 61.9643 27.1395 62.1241 27.4176 62.1541C27.7575 62.1906 27.9159 62.068 28.1522 61.8631L28.4488 61.3527C28.7537 61.2141 28.7659 61.1951 29.085 61.2855C29.2232 61.5434 29.2729 61.6856 29.2201 61.9919C29.1631 62.3231 28.9283 62.6106 28.6486 62.7836C28.1638 63.0831 27.4622 63.0675 26.9253 62.9433C26.5072 62.8467 26.148 62.5659 25.9291 62.1995C25.4346 61.372 25.5146 60.1367 25.7368 59.2389C25.8991 58.5834 26.1884 58.3105 26.7538 57.9699Z" fill="#FAF7F7"/>
<path id="Vector_96" d="M52.6849 57.9585C52.8633 57.9314 53.0426 57.9113 53.2226 57.8984C53.9102 57.8528 54.281 57.9711 54.7958 58.4258C55.1162 58.7091 55.2944 58.9709 55.3201 59.3977C55.1254 59.62 55.0681 59.6519 54.7885 59.75C54.4081 59.6826 54.0302 59.0375 53.6967 58.7827C53.4024 58.7385 53.2392 58.706 52.966 58.8664C52.7697 58.982 52.653 59.2227 52.5921 59.4333C52.404 60.0851 52.4922 61.2355 52.8404 61.8254C53.0049 62.1038 53.185 62.1379 53.4716 62.22C53.7433 62.1305 53.8985 62.0575 54.081 61.8337C54.1665 61.635 54.27 61.4551 54.3824 61.2705C54.6963 61.1997 54.7719 61.219 55.0831 61.3128C55.2182 61.5308 55.2525 61.6053 55.1857 61.8696C55.0969 62.2228 54.7119 62.5647 54.4133 62.7526C53.9913 63.0178 53.4578 63.1432 52.9669 63.0295C52.4628 62.9126 52.0286 62.5463 51.7658 62.1075C51.289 61.3109 51.379 60.1354 51.6065 59.276C51.7866 58.5963 52.0904 58.3072 52.6849 57.9585Z" fill="#FAF7F7"/>
<path id="Vector_97" d="M124.563 57.9972C125.348 57.8506 125.989 57.8813 126.705 58.2722C126.971 58.4175 127.209 58.6591 127.285 58.9605C127.359 59.2555 127.301 59.4704 127.158 59.7218C126.528 59.8132 125.963 58.837 125.298 58.7281C125.073 58.6916 125.007 58.7496 124.833 58.8707C124.672 59.1623 124.624 59.4453 124.595 59.7727C124.53 60.4954 124.524 61.4633 125.016 62.0483C125.341 62.1973 125.387 62.2068 125.74 62.1501C125.989 61.9361 126.038 61.9251 126.079 61.5992C126.236 61.3879 126.362 61.3005 126.605 61.2018C126.903 61.2183 126.94 61.207 127.154 61.4155C127.18 61.5394 127.202 61.6733 127.19 61.8C127.157 62.151 126.921 62.4889 126.64 62.6922C126.194 63.0144 125.572 63.0721 125.042 62.9921C124.588 62.9234 124.184 62.6956 123.91 62.3227C123.398 61.6243 123.403 60.5812 123.527 59.7644C123.655 58.9118 123.869 58.511 124.563 57.9972Z" fill="#FAF7F7"/>
<path id="Vector_98" d="M23.2291 59.7111C23.4696 59.2352 23.7566 58.4739 24.1945 58.1609C24.4377 57.9867 24.6206 57.9003 24.9163 57.9503L25.0167 58.2161C24.8886 59.0142 24.2658 59.7647 23.841 60.4414L25.2933 62.9105C24.986 62.9734 24.7379 62.9914 24.4264 62.95C23.8347 62.5993 23.54 61.8214 23.2245 61.2297C22.9806 61.6724 22.5705 62.6962 22.0863 62.9117C21.8314 63.0252 21.7011 62.9902 21.4546 62.9034C21.3124 62.1906 22.2112 61.0871 22.6004 60.4699C22.1084 59.6231 21.6249 58.7713 21.1499 57.9147C21.3999 57.9049 21.7244 57.8693 21.9646 57.9392C22.5774 58.118 22.9644 59.1837 23.2291 59.7111Z" fill="#FAF7F7"/>
<path id="Vector_99" d="M1.27832 65C2.37205 64.6906 5.53976 64.8584 6.81985 64.8571L19.5135 64.8771L83.5767 64.8964L83.5758 65H1.27832Z" fill="#0D1F36" fill-opacity="0.721569"/>
<path id="Vector_100" d="M119.022 57.9969C119.335 57.9451 119.625 57.9392 119.94 57.9475C120.643 58.8305 119.529 60.9139 120.322 61.8935C120.451 62.052 120.601 62.1452 120.809 62.1612C121.129 62.1857 121.349 62.0726 121.585 61.8806C122.076 60.8722 121.743 59.6151 121.794 58.5322C121.809 58.2195 121.955 58.0999 122.168 57.9049C122.473 57.8721 122.489 57.8761 122.749 58.0389C122.847 58.408 122.771 58.4933 122.629 58.8342C122.687 58.9262 122.74 59.0277 122.775 59.131C123.029 59.8871 122.955 61.3861 122.587 62.0959C122.35 62.5527 122.024 62.7863 121.54 62.9381C121.055 63.0896 120.465 63.1886 120 62.9323C118.531 62.1219 119.392 59.3551 119.03 58.0254L119.022 57.9969Z" fill="#FAF7F7"/>
<path id="Vector_101" d="M85.6445 57.9966C85.948 57.9392 86.2383 57.8494 86.5229 58.0128C87.1029 58.8446 86.5866 60.2844 86.6858 61.2521C86.7185 61.5694 86.8144 61.7932 87.0658 61.999C87.3886 62.121 87.5993 62.1305 87.9386 62.0713C89.0378 61.276 88.1068 59.3938 88.4394 58.297C88.5123 58.0567 88.6534 58.0091 88.8556 57.8893C89.1382 57.8926 89.1777 57.8975 89.4037 58.0701C89.4665 58.4071 89.3857 58.527 89.2592 58.8327C89.2632 58.84 89.2675 58.8474 89.2711 58.8551C89.2773 58.8676 89.2828 58.8805 89.2892 58.8931C89.3352 58.982 89.382 59.0657 89.4154 59.161C89.6344 59.7887 89.5256 61.6047 89.2307 62.1688C88.979 62.6505 88.395 62.8575 87.9059 63.012C87.5019 63.1395 87.0438 63.1895 86.6591 62.9752C85.1744 62.148 86.0179 59.3698 85.6528 58.0251L85.6445 57.9966Z" fill="#FAF7F7"/>
<path id="Vector_102" d="M110.401 57.9969C110.476 57.9838 110.552 57.9723 110.628 57.9625C111.438 57.858 113.252 57.6881 113.904 58.1888C113.995 58.4227 114.011 58.4586 113.921 58.6929C113.339 58.9314 112.606 58.7205 111.986 58.779C111.663 58.8097 111.652 58.8226 111.454 59.0611C111.4 59.3324 111.403 59.4906 111.515 59.747C111.691 60.1517 112.652 59.9236 113.069 60.0815C113.223 60.3455 113.198 60.3881 113.147 60.6892C112.79 60.9044 112.419 60.8075 112.012 60.8483C111.616 60.8881 111.569 60.9277 111.318 61.2285L111.514 61.8757C112.159 62.3917 113.085 62.0575 113.841 62.1412C114.046 62.3948 113.996 62.4681 113.967 62.7934C113.374 63.214 111.07 62.977 110.281 62.9731C110.67 62.3629 110.579 58.8348 110.401 57.9969Z" fill="#FAF7F7"/>
<path id="Vector_103" d="M77.1116 57.9962C77.8405 57.8708 79.8673 57.7016 80.4951 58.0723C80.7104 58.1992 80.7082 58.29 80.7655 58.5153C80.36 59.0402 79.0361 58.6929 78.3724 58.8526C78.1657 59.0608 78.0665 59.2061 78.0025 59.4946C78.3406 60.1042 79.2584 59.9334 79.8688 60.1618C79.8994 60.263 79.9337 60.3727 79.9178 60.4791C79.8094 61.2119 78.7274 60.6186 78.0745 61.1074C78.1752 61.3827 78.2104 61.7058 78.2674 61.9944C78.9148 62.3933 79.9138 61.8711 80.6402 62.1949C80.8074 62.4521 80.7878 62.4966 80.7539 62.801C80.1524 63.2045 77.8022 62.9749 77.0127 62.9721C77.017 62.9648 77.0213 62.9574 77.0249 62.9497C77.0314 62.9372 77.0366 62.924 77.043 62.9114C77.3872 62.2292 77.3508 58.832 77.1116 57.9962Z" fill="#FAF7F7"/>
<path id="Vector_104" d="M56.0701 57.9319C56.8363 57.93 58.9709 57.7402 59.5414 58.0573C59.577 58.3369 59.5926 58.428 59.4845 58.6873C58.9896 59.0157 58.186 58.6791 57.6237 58.752C57.3101 58.7928 57.2387 58.894 57.0639 59.1292C57.0139 59.4336 57.0041 59.601 57.1576 59.8742C57.5465 60.1235 58.0846 59.9588 58.5345 60.0171C58.6518 60.0321 58.709 60.1572 58.7798 60.2495C58.7654 60.5383 58.773 60.6193 58.6025 60.852C58.0898 60.8802 57.5732 60.8691 57.0596 60.8694C57.0363 61.2128 56.9551 61.6123 57.1634 61.9088C57.9523 62.4724 58.5161 61.9303 59.3093 62.0894C59.5056 62.1287 59.5209 62.1955 59.6226 62.3531C59.6116 62.5929 59.6449 62.6913 59.4823 62.8743C58.3905 63.0761 57.1769 62.977 56.0664 62.9724L56.0701 57.9319Z" fill="#FAF7F7"/>
<path id="Vector_105" d="M17.1872 57.9325C17.9074 57.9291 20.2163 57.705 20.6856 58.1192L20.69 58.477C20.1962 59.2141 19.0274 58.4905 18.2627 58.9513C18.1361 59.2693 18.1521 59.5078 18.1845 59.8383C18.3383 59.9717 18.3644 59.961 18.5622 59.9634C18.9752 59.9689 19.6837 59.9174 19.9919 60.2345C19.9834 60.4341 19.9848 60.5895 19.8319 60.741C19.6129 60.9577 18.518 60.8658 18.1788 60.8704C18.1585 61.1656 18.0818 61.5755 18.2372 61.8374C18.6199 62.4816 20.0142 61.9916 20.6304 62.1415C20.7998 62.3893 20.7365 62.5079 20.6958 62.7952C20.134 63.1944 17.935 62.9758 17.187 62.9724L17.1872 57.9325Z" fill="#FAF7F7"/>
<path id="Vector_106" d="M42.5869 58.1161C42.9612 57.8298 45.0587 57.8316 45.631 57.9159C45.9143 57.9576 45.9976 58.0205 46.1771 58.2305C46.1504 58.5092 46.1722 58.5702 45.9685 58.7622C45.322 58.8354 44.3007 58.6233 43.7366 58.8771C43.5715 59.1561 43.483 59.3352 43.498 59.6672C44.0532 60.1885 45.1165 59.6749 45.3661 60.4362L45.2694 60.779C44.7429 61.0184 44.1751 60.7091 43.6649 60.97C43.5982 61.2913 43.6266 61.5161 43.7001 61.8309C43.8631 62.0214 43.9497 62.1403 44.2229 62.1544C44.9414 62.1921 45.5128 61.7966 46.1183 62.3647C46.1373 62.5932 46.1615 62.8213 46.1566 63.0506C45.0271 62.8633 43.7847 62.9617 42.639 62.9657C42.6405 61.3517 42.6794 59.728 42.5869 58.1161Z" fill="#FAF7F7"/>
<path id="Vector_107" d="M30.1154 57.9395C31.2232 57.9242 32.5706 57.7841 33.6477 58.0533C33.7185 58.2682 33.708 58.3397 33.6548 58.5601C33.1139 59.0734 32.2472 58.6785 31.5974 58.7735C31.3266 58.8131 31.2933 58.9032 31.1401 59.1123C31.0951 59.3864 31.0843 59.5639 31.1984 59.823C31.3896 60.2569 32.2742 59.838 32.6931 59.9984C32.8557 60.2826 32.8306 60.4148 32.8178 60.7299C32.5832 60.9081 32.1391 60.8302 31.8537 60.8446C31.4455 60.8652 31.3248 60.8599 31.0466 61.1696L31.1644 61.8478C31.6439 62.4028 32.8861 62.0266 33.554 62.1762C33.7362 62.4267 33.7044 62.4715 33.6698 62.7793C33.0701 63.1938 30.9046 62.9737 30.1138 62.9688L30.1154 57.9395Z" fill="#FAF7F7"/>
<path id="Vector_108" d="M129.11 57.9972C129.387 57.9558 129.681 57.8991 129.961 57.8969C130.155 57.8951 130.365 57.9564 130.501 58.0983C130.756 58.3663 132.054 62.3629 132.026 62.8893C131.986 62.9142 131.945 62.9381 131.903 62.9583C131.084 63.3486 131.022 62.3586 130.388 62.1431C129.368 62.1004 129.413 62.1529 128.683 62.763C128.442 62.9638 128.12 62.931 127.831 62.8964C127.477 61.8972 129.207 59.3159 129.116 58.0579C129.114 58.0376 129.112 58.0174 129.11 57.9972Z" fill="#FAF7F7"/>
<path id="Vector_109" d="M129.695 59.4333L129.948 59.5305C130.063 59.7756 130.172 60.0235 130.274 60.2743C130.403 60.5975 130.491 61.0089 130.347 61.3413L129.871 61.4084C129.617 61.4017 129.547 61.4299 129.346 61.265C129.258 60.6741 129.672 60.0867 129.694 59.4683L129.695 59.4333Z" fill="#0D1F36"/>
<path id="Vector_110" d="M63.0849 57.9165C63.4723 57.9083 64.0195 57.8445 64.3276 58.0827C64.6039 58.6358 65.9465 62.3988 65.7949 62.9194C65.5247 63.0816 65.4963 63.1202 65.1854 63.0659C64.8048 62.7747 64.7591 62.5383 64.5291 62.1437C63.3096 62.0959 63.2159 62.1268 62.28 62.8924C62.0344 62.9369 61.8023 63.0022 61.5674 62.8851C61.8035 61.2576 62.5658 59.4864 63.0849 57.9165Z" fill="#FAF7F7"/>
<path id="Vector_111" d="M63.6317 59.3327C63.652 59.3465 63.6853 59.3665 63.7034 59.3861C64.0133 59.7181 64.2519 60.832 64.2749 61.2843L64.0782 61.4652C63.723 61.4357 63.4716 61.4817 63.2073 61.2279C63.0652 60.7112 63.4734 59.8583 63.6317 59.3327Z" fill="#0D1F36"/>
<path id="Vector_112" d="M142.636 57.9972C142.984 57.9331 143.451 57.8405 143.759 58.0471C144.215 58.6309 145.485 60.4267 145.422 61.15C145.463 61.0684 145.498 60.9859 145.534 60.9022C145.873 60.1155 145.59 58.9476 145.744 58.068C145.959 57.9015 145.995 57.8574 146.266 57.8537C146.483 58.03 146.608 58.1118 146.676 58.3994C146.811 58.9642 146.795 62.2338 146.537 62.6661C146.478 62.8903 146.481 62.9381 146.285 63.0801C145.026 62.7802 144.563 60.5236 143.502 59.7568C143.591 59.923 143.678 60.1051 143.72 60.29C143.857 60.8943 143.899 62.4071 143.59 62.9056C143.288 63.0059 143.238 63.0104 142.929 62.9341C142.4 62.3378 142.978 59.1003 142.646 58.0291C142.643 58.0183 142.639 58.0076 142.636 57.9972Z" fill="#FAF7F7"/>
<path id="Vector_113" d="M104.09 57.9969C104.261 57.9631 104.453 57.9162 104.627 57.9196C104.949 57.926 105.095 58.0404 105.313 58.2673C105.876 58.8541 106.903 60.3464 106.882 61.1402C107.441 60.1915 106.723 58.8437 107.382 57.9947C107.671 57.8804 107.706 57.8896 108.01 57.9631C108.049 58.045 108.083 58.129 108.103 58.2173C108.228 58.7551 108.251 62.1002 108.094 62.5935C108.063 62.6888 107.945 62.8259 107.889 62.9148C107.684 62.9448 107.478 63.0163 107.284 62.9252C106.464 62.541 105.883 60.4169 104.995 59.7559C105.057 59.9085 105.114 60.0747 105.154 60.2345C105.358 61.0654 105.353 62.3013 104.91 63.0454L104.583 63.1049C103.696 62.1238 104.481 59.3009 104.099 58.0254C104.096 58.0159 104.093 58.0064 104.09 57.9969Z" fill="#FAF7F7"/>
<path id="Vector_114" d="M46.8651 57.9156C47.0993 57.9095 47.3373 57.9328 47.5713 57.9472C48.4551 58.4421 49.2247 60.2722 49.7708 61.1396C49.7325 60.263 49.4694 58.6818 49.9772 57.9552C50.2733 57.8289 50.3 57.8509 50.6145 57.9377C50.9532 58.3571 50.7866 62.1636 50.7851 62.9715H50.0822C49.1785 62.568 48.3302 60.6002 47.8285 59.7473C47.8457 60.4059 47.9002 61.0991 47.8414 61.7546C47.7985 62.2335 47.6996 62.8777 47.3149 63.1987C47.2809 63.1723 47.2494 63.1472 47.2194 63.1162C46.5931 62.4757 46.8513 58.8679 46.8651 57.9156Z" fill="#FAF7F7"/>
<path id="Vector_115" d="M66.4741 57.9852C66.7648 57.9328 67.0122 57.9218 67.3065 57.9521C67.5904 58.1306 67.8057 58.378 68.0118 58.6389C68.4559 59.2009 69.3039 60.4712 69.2197 61.1902C69.2249 61.1794 69.2304 61.1684 69.2353 61.1573C69.5749 60.4052 69.4398 59.6743 69.5127 58.8692C69.5507 58.4503 69.5911 58.0585 69.9344 57.7743C70.2067 57.8043 70.2434 57.8466 70.4474 58.0297C70.5702 58.8413 70.6875 62.2639 70.3182 62.8434C70.2241 62.9418 70.1209 62.978 69.9862 62.9982C69.2867 63.1034 68.055 60.2847 67.3178 59.7724C67.6633 60.2933 67.716 61.364 67.6223 61.9855C67.5524 62.4485 67.4155 62.828 67.0367 63.1083C66.1225 62.4702 66.7504 59.1313 66.483 58.0217L66.4741 57.9852Z" fill="#FAF7F7"/>
<path id="Vector_116" d="M11.3376 57.9297C11.9637 57.9168 12.6615 57.8509 13.2795 57.9463C13.843 58.0337 14.6687 58.3142 15.0083 58.8072C15.0433 58.8589 15.0726 58.9136 15.0962 58.9712C15.1198 59.0291 15.1371 59.0887 15.1483 59.15C15.1595 59.2113 15.1643 59.2731 15.1626 59.3355C15.1609 59.3978 15.1529 59.4594 15.1384 59.5201C14.9991 60.1054 14.5385 60.5236 14.0583 60.8388C14.315 61.3854 14.9715 62.2724 14.8872 62.8654C14.5693 63.0436 14.3447 62.9666 13.9912 62.931C13.7197 62.2697 13.3132 61.023 12.6317 60.7379C12.1669 61.2935 12.5305 62.3249 11.9641 62.9163C11.7041 62.9991 11.6773 63.0114 11.4231 62.908C11.1054 62.025 11.3381 59.0255 11.3376 57.9297Z" fill="#FAF7F7"/>
<path id="Vector_117" d="M12.3148 58.7913C12.8311 58.7723 13.4535 58.6864 13.8617 59.0596C14.0386 59.4054 13.953 59.6746 13.866 60.029C13.8551 60.0312 13.8442 60.0336 13.8333 60.0358C13.4381 60.1106 12.8053 60.2452 12.4591 60.01C12.209 59.681 12.3002 59.1834 12.3148 58.7913Z" fill="#0D1F36"/>
<path id="Vector_118" d="M7.9523 57.9438C8.36366 57.873 8.86471 57.8491 9.26468 57.9821C9.75786 58.1465 10.131 58.5304 10.3547 58.9927C10.7609 59.8328 10.7201 60.9406 10.4098 61.8024C10.1776 62.4475 9.817 62.7045 9.21237 62.9859C8.83017 63.0083 8.41266 63.0515 8.0405 62.9415C7.55666 62.7986 7.20554 62.4524 6.96584 62.0183C6.52144 61.2131 6.53728 60.1422 6.78874 59.2812C6.99353 58.5797 7.32789 58.2881 7.9523 57.9438Z" fill="#FAF7F7"/>
<path id="Vector_119" d="M8.20826 58.7453C8.51635 58.7382 8.89723 58.7358 9.14775 58.9415C9.42426 59.1684 9.57071 59.6593 9.60531 60.0063C9.67425 60.6977 9.55037 61.5792 9.10698 62.1311C8.78484 62.1452 8.39189 62.1878 8.13345 61.9579C7.82095 61.6801 7.66308 61.1938 7.64274 60.7821C7.60706 60.0597 7.72166 59.2926 8.20826 58.7453Z" fill="#0D1F36"/>
<path id="Vector_120" d="M139.194 57.9972C139.812 57.8767 140.442 57.7884 141.01 58.1272C141.514 58.4277 141.829 58.9636 141.972 59.5195C142.186 60.354 142.144 61.4247 141.69 62.1777C141.434 62.6021 141.11 62.7894 140.639 62.9053C140.299 63.0292 139.961 63.0286 139.605 62.9908C139.209 62.9491 138.875 62.7799 138.624 62.4659C138.089 61.7951 138.048 60.7017 138.143 59.8908C138.25 58.9719 138.468 58.5656 139.194 57.9972Z" fill="#FAF7F7"/>
<path id="Vector_121" d="M139.521 58.8351C139.763 58.7928 140.057 58.7183 140.295 58.7962C140.513 58.8673 140.686 59.0231 140.789 59.23C141.108 59.8702 141.109 60.9464 140.851 61.616C140.739 61.9088 140.602 61.9407 140.335 62.0704C139.981 62.1072 139.862 62.1182 139.528 61.9772C139.283 61.719 139.207 61.448 139.16 61.1046C139.074 60.4699 139.124 59.3554 139.521 58.8351Z" fill="#0D1F36"/>
<path id="Vector_122" d="M82.3399 57.9969C82.7533 57.923 83.1744 57.8319 83.5903 57.9337C84.1054 58.06 84.5213 58.4089 84.7828 58.8661C85.2848 59.7424 85.2878 61.5857 84.6459 62.3945C84.3112 62.8161 83.6978 62.8979 83.548 63.4762C83.5456 63.486 83.5434 63.4955 83.5413 63.5053L83.4081 63.6856L83.0455 63.6979C82.6676 63.3572 82.2324 62.9967 81.9191 62.595C81.3556 61.872 81.125 60.8949 81.2361 59.9922C81.351 59.0602 81.6092 58.5705 82.3399 57.9969Z" fill="#FAF7F7"/>
<path id="Vector_123" d="M82.6145 58.8345C82.8408 58.7879 83.0635 58.7361 83.2929 58.7876C83.5189 58.8382 83.6708 58.925 83.7951 59.1328C84.1856 59.7838 84.0989 60.8149 83.9213 61.5262C83.838 61.8598 83.6977 61.9055 83.4196 62.068C83.2206 62.1792 83.024 62.1323 82.8084 62.1044C82.5683 61.9107 82.4859 61.8086 82.4054 61.4992C82.2348 60.8446 82.259 59.4244 82.6145 58.8345Z" fill="#0D1F36"/>
<path id="Vector_124" d="M71.2026 57.995C71.9147 57.8788 72.94 57.8022 73.6324 57.9987C74.1304 58.1397 74.5747 58.4344 74.8289 58.8937C75.3006 59.7454 75.1621 61.108 74.8807 62.0146C74.7842 62.3249 74.5573 62.4705 74.2807 62.6125C74.2556 62.6615 74.2418 62.6864 74.2008 62.7235C73.6952 63.1797 71.8191 62.9841 71.1196 62.9737C71.1414 62.9384 71.1616 62.9038 71.18 62.8667C71.4691 62.2881 71.4357 58.7021 71.2026 57.995Z" fill="#FAF7F7"/>
<path id="Vector_125" d="M72.2613 58.8339C72.5076 58.806 72.767 58.7664 73.0144 58.7707C73.305 58.776 73.5332 58.8964 73.7231 59.1126C74.0348 59.4683 74.1411 59.9864 74.0992 60.4426C74.052 60.9516 74.0085 61.6035 73.5929 61.9487L73.4805 62.0603C73.181 62.1032 72.9271 62.1284 72.6243 62.0845C71.9441 61.3579 72.4521 59.8242 72.2678 58.8664L72.2613 58.8339Z" fill="#0D1F36"/>
<path id="Vector_126" d="M114.597 57.9972C115.202 57.8945 116.017 57.838 116.624 57.9159C117.164 57.9852 117.722 58.2458 118.059 58.6818C118.533 59.295 118.558 60.1462 118.458 60.8789C118.361 61.597 118.358 62.0827 117.75 62.5459L117.621 62.725C116.838 63.1834 115.372 62.9822 114.468 62.9663C114.472 62.9589 114.476 62.9516 114.48 62.9439C114.486 62.9316 114.492 62.9185 114.498 62.9062C114.83 62.2553 114.807 58.8035 114.597 57.9972Z" fill="#FAF7F7"/>
<path id="Vector_127" d="M115.62 58.8351C115.799 58.8071 115.98 58.7893 116.162 58.7818C116.452 58.7707 116.744 58.7655 116.968 58.9823C117.255 59.2601 117.441 59.7565 117.452 60.1544C117.467 60.722 117.377 61.5041 116.989 61.9064L116.878 62.0299C116.587 62.1213 116.339 62.1136 116.04 62.1005C115.324 61.4422 115.847 59.8015 115.628 58.871L115.62 58.8351Z" fill="#0D1F36"/>
</g>
<defs>
<clipPath id="clip0_403_7495">
<rect width="245" height="65" fill="white" transform="translate(0.799805)"/>
</clipPath>
</defs>
</svg>
