<svg width="24" height="25" viewBox="0 0 24 25" fill="none" xmlns="http://www.w3.org/2000/svg">
<path opacity="0.4" d="M18.9117 15.2479L18.913 15.2501C19.2233 15.7593 19.2776 16.3583 19.0721 16.9036C18.8638 17.4565 18.4356 17.8736 17.8839 18.0549L17.8839 18.0549L17.8812 18.0558C15.9942 18.688 14.008 18.9999 12.02 18.9999C10.032 18.9999 8.04663 18.688 6.16104 18.0465L6.16004 18.0462C5.54298 17.8377 5.10192 17.4171 4.92072 16.9113L4.92073 16.9113L4.91929 16.9074C4.72726 16.385 4.78763 15.8025 5.11862 15.2474C5.11885 15.247 5.11908 15.2466 5.11931 15.2462L6.12784 13.5787L6.1279 13.5787L6.13189 13.5718C6.26757 13.3393 6.38154 13.028 6.46124 12.7348C6.54084 12.4421 6.6 12.1168 6.6 11.8499V9.3199C6.6 6.33549 9.0267 3.8999 12.02 3.8999C15.0133 3.8999 17.44 6.33549 17.44 9.3199V11.8499C17.44 12.1168 17.4992 12.442 17.5786 12.7355C17.6584 13.0302 17.7717 13.3416 17.9052 13.5767L17.905 13.5768L17.9117 13.5879L18.9117 15.2479Z" fill="#91A5C4" stroke="#91A5C4"/>
<mask id="path-2-inside-1_2478_6258" fill="white">
<path d="M14.25 3.82C13.56 3.55 12.81 3.4 12.02 3.4C11.24 3.4 10.49 3.54 9.80005 3.82C10.23 3.01 11.08 2.5 12.02 2.5C12.97 2.5 13.81 3.01 14.25 3.82Z"/>
</mask>
<path d="M14.25 3.82C13.56 3.55 12.81 3.4 12.02 3.4C11.24 3.4 10.49 3.54 9.80005 3.82C10.23 3.01 11.08 2.5 12.02 2.5C12.97 2.5 13.81 3.01 14.25 3.82Z" fill="#91A5C4"/>
<path d="M14.25 3.82L13.8856 4.75124L16.436 5.74922L15.1288 3.34267L14.25 3.82ZM9.80005 3.82L8.91679 3.35111L7.6268 5.7811L10.1761 4.74661L9.80005 3.82ZM14.6144 2.88876C13.8115 2.57456 12.9381 2.4 12.02 2.4V4.4C12.682 4.4 13.3086 4.52544 13.8856 4.75124L14.6144 2.88876ZM12.02 2.4C11.12 2.4 10.2414 2.56171 9.42403 2.89339L10.1761 4.74661C10.7387 4.51829 11.3601 4.4 12.02 4.4V2.4ZM10.6833 4.28889C10.937 3.81096 11.4441 3.5 12.02 3.5V1.5C10.716 1.5 9.52308 2.20904 8.91679 3.35111L10.6833 4.28889ZM12.02 3.5C12.602 3.5 13.1056 3.80814 13.3713 4.29733L15.1288 3.34267C14.5145 2.21186 13.3381 1.5 12.02 1.5V3.5Z" fill="#91A5C4" mask="url(#path-2-inside-1_2478_6258)"/>
<path d="M10.0956 21.1143C10.146 21.1193 10.1967 21.1239 10.2474 21.1282C10.829 21.1792 11.4234 21.21 12.0201 21.21C12.6074 21.21 13.1924 21.1791 13.7645 21.128L13.7645 21.128L13.7675 21.1277C13.8104 21.1237 13.8581 21.1197 13.9086 21.1156C13.4474 21.6572 12.7621 22 12.0001 22C11.3411 22 10.6925 21.7319 10.2399 21.2628L10.2312 21.2538L10.222 21.2452C10.1782 21.2042 10.1361 21.1604 10.0956 21.1143Z" fill="#91A5C4" stroke="#91A5C4"/>
</svg>
