<svg width="146" height="39" viewBox="0 0 146 39" fill="none" xmlns="http://www.w3.org/2000/svg">
<g clip-path="url(#clip0_94_6198)">
<path d="M120.436 39C120.366 38.3855 120.231 36.3309 120.47 35.8303L120.57 35.8064C120.739 35.9655 120.771 36.1997 120.778 36.4219C120.79 36.8607 120.891 38.6676 120.651 38.917C120.622 38.9472 120.591 38.9737 120.559 39H120.436Z" fill="white"/>
<path d="M140.13 35.8037C140.222 35.8124 140.287 35.8438 140.368 35.8839C140.382 35.9168 140.394 35.9503 140.404 35.9844C140.537 36.4295 140.54 38.1524 140.314 38.5711C140.649 38.5617 141.394 38.4763 141.651 38.6704C141.587 38.8236 141.524 38.8211 141.377 38.8884C140.91 38.8564 140.465 38.8761 139.999 38.9164C140.293 37.9493 139.874 36.7863 140.13 35.8037Z" fill="white"/>
<path d="M118.059 35.8037L118.261 35.8514C118.293 35.9049 118.32 35.9601 118.33 36.0224C118.414 36.5234 118.482 38.1796 118.209 38.5707C118.555 38.5606 119.288 38.4817 119.56 38.6698L119.517 38.78L119.273 38.8836C118.814 38.8544 118.374 38.8785 117.916 38.9147C118.169 38.023 117.726 36.578 118.059 35.8037Z" fill="white"/>
<path d="M122.378 35.8039C122.52 35.7948 122.663 35.7902 122.804 35.8063C123.041 35.8327 123.345 35.8876 123.496 36.0943C123.663 36.3234 123.602 36.6766 123.572 36.9384L123.501 36.9597C123.347 36.6988 123.181 36.3548 122.918 36.1878C122.794 36.1092 122.628 36.068 122.484 36.1079C122.321 36.153 122.206 36.2299 122.122 36.3778C121.955 36.6729 122.013 37.9332 122.114 38.2645C122.179 38.4777 122.267 38.5316 122.453 38.6288C122.648 38.6339 122.775 38.6203 122.952 38.5331C122.991 38.519 123.031 38.5042 123.066 38.4835C123.249 38.3753 123.288 37.9899 123.348 37.7868L123.471 37.722C123.509 37.7454 123.561 37.7636 123.579 37.8059C123.671 38.0223 123.586 38.3405 123.497 38.5458C123.405 38.7581 123.092 38.9248 122.883 39.0044C122.716 39.0679 122.516 39.0758 122.352 38.9976C122.07 38.8626 121.885 38.6159 121.785 38.3227C121.64 37.8985 121.578 36.5956 121.78 36.2023C121.911 35.9457 122.124 35.8877 122.378 35.8039Z" fill="white"/>
<path d="M129.266 35.8039C129.55 35.7904 129.838 35.7969 130.104 35.9113C130.231 35.9663 130.357 36.0625 130.407 36.1979C130.48 36.3948 130.508 36.7796 130.425 36.9739C130.183 36.8674 130.025 36.3486 129.765 36.1729C129.583 36.0496 129.398 36.1026 129.199 36.1471C129.085 36.2397 129.022 36.2711 128.976 36.415C128.855 36.7901 128.86 38.0944 129.067 38.4439C129.161 38.6025 129.247 38.6225 129.411 38.668C129.592 38.6249 129.762 38.5922 129.918 38.4816C130.244 38.2839 130.029 37.9378 130.263 37.7259L130.393 37.7447C130.42 37.778 130.446 37.8146 130.459 37.8562C130.515 38.0328 130.473 38.342 130.397 38.5046C130.309 38.6937 130.152 38.819 129.957 38.8854C129.695 38.9754 129.257 38.9897 129.009 38.856C128.79 38.7383 128.66 38.5066 128.594 38.2737C128.451 37.7717 128.419 36.6058 128.688 36.1422C128.821 35.9135 129.029 35.8708 129.266 35.8039Z" fill="white"/>
<path d="M112.389 35.8037L112.547 35.8206C113.026 36.3032 112.392 37.8878 112.777 38.3851C112.907 38.5539 113.19 38.6912 113.397 38.7066C114.373 38.344 113.626 36.6238 114.019 35.8824C114.045 35.8324 114.092 35.8335 114.143 35.8175L114.224 35.9351L114.151 36.1628C114.159 36.1777 114.166 36.1924 114.173 36.2079C114.176 36.2167 114.18 36.2257 114.184 36.2345C114.373 36.681 114.343 37.7614 114.221 38.2427C114.147 38.5313 113.993 38.7898 113.731 38.9395C113.554 39.0407 113.342 39.0593 113.147 39.0056C113.112 38.9959 113.077 38.9845 113.044 38.9714C113.01 38.9584 112.977 38.9436 112.945 38.9272C112.912 38.9109 112.881 38.8929 112.85 38.8733C112.82 38.8538 112.79 38.8328 112.762 38.8104C112.733 38.7879 112.706 38.7642 112.68 38.739C112.654 38.7137 112.629 38.6873 112.605 38.6597C112.582 38.632 112.56 38.6032 112.539 38.5734C112.518 38.5435 112.499 38.5127 112.481 38.4809C112.157 37.899 112.21 36.4525 112.389 35.8037Z" fill="white"/>
<path d="M126.455 35.8039C126.554 35.7927 126.654 35.7913 126.753 35.7997C127.03 35.8201 127.285 35.8624 127.474 36.0881C127.598 36.2364 127.593 36.5223 127.578 36.704L127.452 36.7993C127.172 36.7338 127.143 36.2805 126.895 36.0824C126.765 35.9779 126.709 35.9801 126.553 35.9952C126.482 36.0361 126.425 36.0835 126.374 36.1486C126.239 36.3197 126.184 36.5007 126.211 36.7211C126.276 37.2668 127.07 37.0909 127.445 37.3946C127.619 37.535 127.752 37.7235 127.77 37.9533C127.791 38.2118 127.627 38.4956 127.465 38.6857C127.26 38.9259 127.028 38.9283 126.734 38.9531C126.576 38.9388 126.412 38.9265 126.257 38.8923C126.12 38.8619 125.943 38.7775 125.871 38.6503C125.751 38.4364 125.788 38.1888 125.845 37.9636L125.966 37.9038C126.136 38.0216 126.178 38.351 126.273 38.5482C126.475 38.6426 126.654 38.6792 126.873 38.62C127.035 38.5762 127.219 38.4763 127.301 38.3229C127.374 38.1869 127.408 38.055 127.356 37.904C127.178 37.3838 126.57 37.5427 126.18 37.3483C126.02 37.2686 125.885 37.115 125.83 36.9439C125.743 36.6773 125.823 36.351 125.956 36.1111C126.063 35.9183 126.259 35.865 126.455 35.8039Z" fill="white"/>
<path d="M143.019 35.8038C143.301 35.7702 143.734 35.7932 143.962 35.9819C144.083 36.0824 144.142 36.2229 144.157 36.3782C144.174 36.5551 144.176 36.6716 144.062 36.8088C143.794 36.7461 143.86 36.4024 143.675 36.2468C143.538 36.1322 143.397 36.0822 143.217 36.1055C143.01 36.1324 142.956 36.1876 142.833 36.339C142.805 36.4987 142.779 36.641 142.817 36.8015C142.905 37.1734 143.749 37.2413 144.063 37.4393C144.213 37.5342 144.353 37.6817 144.388 37.8626C144.447 38.1631 144.188 38.513 144.037 38.7491C143.839 38.9111 143.589 38.9213 143.345 38.9553C143.088 38.9303 142.769 38.9244 142.559 38.7557C142.44 38.661 142.385 38.4856 142.372 38.339C142.358 38.1733 142.372 38.0195 142.475 37.8913C142.665 37.9773 142.862 38.4319 143.016 38.6139C143.214 38.6529 143.493 38.6694 143.681 38.5791C143.763 38.5399 143.813 38.4948 143.846 38.4106C143.912 38.2402 143.947 38.0106 143.867 37.8386C143.716 37.5134 143.226 37.4948 142.922 37.3833C142.723 37.3101 142.561 37.1881 142.475 36.9878C142.375 36.752 142.379 36.415 142.482 36.1802C142.584 35.947 142.8 35.8848 143.019 35.8038Z" fill="white"/>
<path d="M109.584 35.8298C110.192 35.8267 110.833 35.7568 111.308 36.2226C111.46 36.3714 111.587 36.5839 111.583 36.8026C111.579 37.0296 111.447 37.2257 111.285 37.3734C110.906 37.7191 110.484 37.7176 110.005 37.7417C110.131 37.9989 110.127 38.5024 110.044 38.7784C110.018 38.8646 109.957 38.9378 109.894 39H109.702C109.779 38.5604 109.802 36.1814 109.584 35.8298ZM110.059 36.163C110.075 36.5552 110.11 36.9512 110.034 37.3388L110.027 37.3745C110.023 37.3951 110.018 37.4154 110.013 37.4358C110.269 37.4157 110.589 37.4244 110.814 37.2943L110.854 37.2404C111.014 37.1264 111.08 37.0292 111.155 36.8484C111.147 36.6589 111.145 36.5497 110.993 36.4119C110.711 36.1554 110.417 36.1584 110.059 36.163Z" fill="white"/>
<path d="M131.386 39L131.389 38.9801C131.504 38.2676 131.204 36.2759 131.545 35.8198C131.694 35.9364 131.771 36.1015 131.796 36.2933C131.827 36.5235 131.828 36.9933 131.695 37.18C132.069 37.1699 132.454 37.1397 132.827 37.1574C132.83 37.1528 132.833 37.148 132.836 37.1434C133.064 36.7538 132.769 36.066 133.13 35.7825C133.469 36.1539 133.327 37.9707 133.303 38.5141C133.294 38.7139 133.251 38.8493 133.118 39H132.996H131.576H131.386ZM131.701 37.4425C131.736 37.5386 131.763 37.6403 131.774 37.7424C131.817 38.1606 131.839 38.6646 131.576 39H132.996C132.893 38.4908 132.99 37.963 132.877 37.4508C132.495 37.5016 132.086 37.4574 131.701 37.4425Z" fill="white"/>
<path d="M115.186 35.8756C115.601 35.7986 116.385 35.7721 116.751 35.9812C117.124 36.461 116.709 36.7425 116.809 37.2233C116.863 37.4888 117.137 37.713 117.128 37.9943C117.121 38.2079 117.043 38.383 116.894 38.5331L116.854 38.6564C116.51 38.9962 115.661 38.888 115.186 38.9112C115.359 38.3486 115.341 36.4811 115.186 35.8756ZM115.654 37.3839C115.623 37.7993 115.689 38.2493 115.518 38.6347C115.802 38.6132 116.2 38.6305 116.443 38.4741C116.585 38.381 116.739 38.2178 116.783 38.0449C116.819 37.8985 116.746 37.8061 116.684 37.6794C116.329 37.4047 116.092 37.3929 115.654 37.3839ZM115.546 36.163C115.663 36.5167 115.651 36.7986 115.542 37.1525C115.779 37.1428 116.182 37.1761 116.368 37.0202L116.399 36.9531C116.538 36.7873 116.576 36.7351 116.617 36.5169C116.518 36.333 116.436 36.2551 116.233 36.19C116.009 36.1183 115.776 36.142 115.546 36.163Z" fill="white"/>
<path d="M137.832 35.8038C138.125 35.7733 138.51 35.7714 138.753 35.9613C138.998 36.1531 139.115 36.5163 139.155 36.8149C139.222 37.3211 139.23 38.2562 138.89 38.6762C138.714 38.8935 138.49 38.901 138.233 38.9271C138.064 38.9691 137.756 38.9227 137.598 38.8491C137.391 38.7525 137.29 38.5826 137.216 38.3749C137.023 37.8351 137.014 36.7063 137.269 36.1857C137.388 35.9438 137.596 35.8875 137.832 35.8038ZM137.757 36.1629C137.484 36.409 137.512 36.7385 137.493 37.0801C137.468 37.5248 137.443 38.0126 137.633 38.4271C137.773 38.557 137.878 38.6337 138.085 38.6188C138.139 38.6149 138.193 38.6 138.246 38.5849C138.406 38.5425 138.544 38.5371 138.638 38.3815C138.871 37.9948 138.845 37.0527 138.725 36.6392C138.681 36.4874 138.609 36.2863 138.464 36.2052C138.232 36.0751 138.007 36.1107 137.757 36.1629Z" fill="white"/>
<path d="M134.934 35.8039C135.227 35.7719 135.619 35.7737 135.865 35.9577C136.098 36.1308 136.225 36.4818 136.268 36.76C136.347 37.2734 136.349 38.2285 136.015 38.6614C135.848 38.8763 135.644 38.8882 135.394 38.9211C135.219 38.9717 134.907 38.9344 134.74 38.8634C134.534 38.7756 134.41 38.5874 134.332 38.3847C134.119 37.8308 134.12 36.7634 134.367 36.2241C134.488 35.9605 134.681 35.8977 134.934 35.8039ZM134.856 36.163C134.547 36.4993 134.575 37.2289 134.593 37.6693C134.604 37.936 134.643 38.1912 134.758 38.4335C134.92 38.5735 135.018 38.6262 135.237 38.6231C135.291 38.6224 135.345 38.6009 135.394 38.5777C135.548 38.533 135.663 38.5306 135.751 38.3803C135.973 37.9962 135.967 37.0889 135.849 36.6733C135.799 36.496 135.723 36.2859 135.553 36.1926C135.34 36.0758 135.085 36.1155 134.856 36.163Z" fill="white"/>
<path d="M124.633 28.6215L124.808 28.6166C124.866 28.6484 124.929 28.6653 124.954 28.7297C125.059 28.9988 125.043 29.3995 124.931 29.6648L123.771 29.6538C123.818 29.7259 123.857 29.8057 123.877 29.8901C123.986 30.3388 123.981 33.5928 123.787 33.9083C123.479 33.8902 123.177 33.9592 122.872 33.8875C122.683 33.6816 122.682 33.4735 122.57 33.2191C122.615 33.1489 122.651 33.0714 122.67 32.9897C122.776 32.5447 122.767 29.9696 122.572 29.6578L121.499 29.6591C121.532 29.6063 121.561 29.552 121.581 29.4922C121.679 29.2064 121.645 28.9083 121.513 28.6425L124.633 28.6215Z" fill="white"/>
<path d="M68.8799 21.6546C69.1274 21.6167 69.3958 21.6224 69.6466 21.6101C69.6638 21.6572 69.6771 21.7054 69.6868 21.7547C69.7782 22.2192 68.8942 29.1456 68.742 29.3729C69.344 29.3683 72.7597 29.2403 73.0592 29.4471C73.0811 29.506 73.0997 29.5685 73.0979 29.6321C73.092 29.8347 73.0062 29.9992 72.8699 30.1437C72.3354 30.2322 71.6966 30.1656 71.1515 30.1636C70.0059 30.1566 68.8603 30.1582 67.7148 30.1682C67.7178 30.1632 67.7207 30.1581 67.7234 30.1529C67.7278 30.1443 67.7318 30.1355 67.7364 30.1268C68.0623 29.5021 68.7182 22.9212 68.8799 21.6546Z" fill="white"/>
<path d="M116.672 28.6216C116.778 28.6078 116.833 28.638 116.923 28.6866C117.028 28.9719 116.981 29.3843 116.863 29.6605L115.014 29.6557C115.05 29.7054 115.074 29.755 115.091 29.8137C115.181 30.1237 115.16 30.4208 115.004 30.7037L116.432 30.6767C116.458 30.7212 116.481 30.7666 116.498 30.8158C116.6 31.1103 116.552 31.4653 116.422 31.7415L115.064 31.7006C115.16 32.1009 115.159 32.4718 115.048 32.8686C115.536 32.8495 116.105 32.7705 116.586 32.8329C116.752 32.8544 116.836 32.8495 116.942 32.9876L116.832 33.2179C116.87 33.2867 116.908 33.3605 116.929 33.4363C116.974 33.6015 116.966 33.7507 116.888 33.9017C115.864 33.8993 114.839 33.8881 113.815 33.9288C113.827 33.8901 113.837 33.8515 113.846 33.8123C113.987 33.196 114.033 29.0486 113.783 28.6376L116.672 28.6216Z" fill="white"/>
<path d="M112.063 28.6274C112.5 28.633 112.937 28.6495 113.37 28.5883C113.372 28.6241 113.372 28.6598 113.369 28.6957C113.336 29.0533 112.306 30.9601 112.023 31.213C112.064 31.2469 112.105 31.2828 112.142 31.3223C112.396 31.5992 113.311 33.2048 113.302 33.5946L113.473 33.7776L113.436 33.8597C113.03 33.9806 112.512 33.9108 112.089 33.9016C112.091 33.8625 112.091 33.8227 112.085 33.7839C112.018 33.3299 111.162 31.8115 110.818 31.5583C110.863 31.6472 110.913 31.7445 110.945 31.8381C111.106 32.3036 111.107 33.476 110.902 33.9132C110.494 33.8797 110.057 33.911 109.646 33.9143C109.68 33.8607 109.708 33.804 109.729 33.7442C109.872 33.3255 109.822 28.9858 109.659 28.639L110.592 28.6216L110.829 28.6116C110.919 28.6659 110.936 28.6683 110.97 28.768C111.145 29.296 111.087 30.4271 110.845 30.918C110.892 30.8814 110.936 30.842 110.978 30.7997C111.267 30.5072 112.062 29.0417 112.063 28.6274Z" fill="white"/>
<path d="M119.994 28.6282C120.356 28.6345 120.723 28.6135 121.086 28.6052C121.324 29.0528 121.196 33.0428 121.176 33.8594C121.013 33.9515 120.657 33.9076 120.461 33.9087C119.745 33.7998 119.053 31.4568 118.311 30.9266C118.372 31.0236 118.429 31.1253 118.461 31.2364C118.591 31.6899 118.649 33.488 118.421 33.9074L117.315 33.9096C117.695 33.3334 117.297 29.7432 117.459 28.7557C117.597 28.6056 117.736 28.6365 117.932 28.6216C118.014 28.6141 118.101 28.6027 118.183 28.6078C118.326 28.6166 118.417 28.7027 118.509 28.8041C118.823 29.1479 120.039 31.1417 120.019 31.5323C120.05 31.4598 120.077 31.3825 120.094 31.3054C120.215 30.7809 120.239 29.0394 119.994 28.6282Z" fill="white"/>
<path d="M48.8409 21.6546C49.3733 21.5815 49.9554 21.6202 50.4942 21.6154C50.6041 21.7863 50.6196 21.9382 50.6258 22.1367C50.6772 23.778 50.6331 25.4355 50.632 27.0783C50.6314 27.983 50.7232 29.0068 50.6062 29.8997C50.5937 29.996 50.5515 30.0644 50.4862 30.1343C49.9657 30.2458 49.2979 30.1658 48.7603 30.1617C48.9772 29.622 48.8422 22.7953 48.8409 21.6546Z" fill="white"/>
<path d="M136.354 28.6216C136.942 28.5352 137.799 28.479 138.312 28.8227C138.625 29.0328 138.766 29.3578 138.836 29.7193C138.948 30.292 138.991 32.8976 138.669 33.3627C138.428 33.7113 138.071 33.8254 137.674 33.8988C137.276 34.0194 136.638 34.0305 136.248 33.8782C135.904 33.7437 135.634 33.4596 135.488 33.1217C135.203 32.4607 135.22 29.9366 135.49 29.2666C135.633 28.9099 136.029 28.7579 136.354 28.6216ZM136.733 29.6272C136.447 29.971 136.512 31.6404 136.557 32.1272C136.581 32.3842 136.607 32.6522 136.789 32.8483C136.97 32.9238 137.129 32.9475 137.32 32.8897C137.418 32.8467 137.532 32.8292 137.572 32.7254C137.707 32.3669 137.752 30.1277 137.578 29.7738C137.529 29.673 137.448 29.6275 137.342 29.5994C137.171 29.5541 136.903 29.5933 136.733 29.6272Z" fill="white"/>
<path d="M132.325 28.6216C132.909 28.5289 133.771 28.4829 134.276 28.828C134.591 29.0432 134.735 29.3812 134.802 29.7476C134.903 30.3043 134.944 32.9258 134.629 33.366C134.374 33.7212 134.016 33.8287 133.607 33.9008C133.205 34.0216 132.553 34.0323 132.164 33.8682C131.825 33.7247 131.563 33.4363 131.425 33.0957C131.18 32.4894 131.165 29.9215 131.42 29.3236C131.592 28.9213 131.942 28.7658 132.325 28.6216ZM132.701 29.6271C132.389 29.9724 132.477 31.4522 132.5 31.9441C132.515 32.2561 132.524 32.5816 132.713 32.8424C132.858 32.9272 132.993 32.9574 133.16 32.9136C133.168 32.9114 133.176 32.9077 133.185 32.9048C133.366 32.8503 133.459 32.85 133.572 32.6892C133.619 32.0475 133.735 30.2243 133.484 29.6934C133.238 29.5361 132.973 29.5789 132.701 29.6271Z" fill="white"/>
<path d="M139.36 28.6933C139.956 28.518 141.244 28.5298 141.843 28.6968C142.249 28.8102 142.603 29.0567 142.81 29.4323C143.221 30.1774 143.154 32.0797 142.922 32.9C142.851 33.1482 142.763 33.3038 142.531 33.4337C142.518 33.4697 142.503 33.4979 142.478 33.527C142.003 34.0845 140.008 33.9127 139.336 33.9184C139.367 33.8712 139.392 33.8212 139.411 33.7683C139.545 33.4059 139.498 28.9952 139.36 28.6933ZM140.556 29.6989C140.75 30.1047 140.738 32.3932 140.587 32.8331C140.582 32.848 140.577 32.8629 140.571 32.8776C140.871 32.8676 141.226 32.8916 141.503 32.7666L141.608 32.6438C141.958 32.3047 141.914 31.5462 141.922 31.0755C141.929 30.6719 141.884 30.1409 141.581 29.8389C141.427 29.686 141.224 29.6435 141.016 29.6511C140.864 29.6566 140.705 29.6687 140.556 29.6989Z" fill="white"/>
<path d="M127.433 28.6477L128.561 28.6135C128.834 28.9382 129.301 31.7585 129.269 32.2435C129.312 32.1966 129.336 32.1487 129.356 32.0886C129.509 31.6392 129.815 29.0116 129.638 28.6395L130.862 28.6236C130.87 28.642 130.878 28.6604 130.885 28.6794C130.999 28.994 130.839 29.48 130.705 29.7706C130.72 29.8041 130.73 29.8358 130.735 29.8724C130.797 30.3201 130.19 33.6473 129.972 33.9126C129.538 33.8785 129.078 33.9109 128.642 33.9144C128.662 33.8563 128.677 33.7968 128.682 33.7356C128.723 33.2336 128.254 30.992 127.932 30.5882C127.965 30.6785 128.002 30.7848 128.014 30.8803C128.066 31.3259 127.657 33.5722 127.386 33.9072C126.93 33.8997 126.473 33.9137 126.017 33.9203C126.34 33.1427 125.042 29.3549 125.362 28.6216L126.346 28.6225C126.354 28.6351 126.363 28.6476 126.37 28.6606C126.375 28.6682 126.379 28.6759 126.383 28.6834C126.42 28.748 126.453 28.8126 126.473 28.8847C126.62 29.4187 126.922 31.9035 126.694 32.3108C126.775 32.2118 126.861 32.1057 126.919 31.9909C127.112 31.6066 127.56 29.0267 127.433 28.6477Z" fill="white"/>
<path d="M82.5944 21.6545C82.893 21.6126 83.2069 21.5432 83.468 21.7329C83.9146 22.4244 86.614 28.0152 86.5658 28.4563C86.9764 27.7223 87.1994 23.4331 87.4119 22.2009C87.4387 22.0458 87.486 21.7864 87.6232 21.6959C87.7949 21.5826 88.1116 21.6052 88.3016 21.6477C88.3262 21.6966 88.3463 21.7467 88.3485 21.8021C88.368 22.3135 87.4035 29.8688 87.3526 29.967C87.3235 30.0228 87.2504 30.0888 87.2084 30.1387C87.1177 30.1521 87.0264 30.1652 86.935 30.1731C86.7928 30.1854 86.6346 30.1769 86.5282 30.0754C86.1973 29.7595 85.9665 29.0614 85.7765 28.6475C85.3518 27.722 83.6754 23.736 83.1532 23.2898C83.1552 23.2958 83.1572 23.3017 83.1591 23.308C83.1669 23.3341 83.1759 23.3587 83.1842 23.3847C83.3407 23.8626 82.6475 29.6057 82.3789 30.155C82.0973 30.1834 81.7914 30.1613 81.5071 30.1633C81.6996 29.7213 82.6116 22.5559 82.5944 21.6545Z" fill="white"/>
<path d="M6.81799 21.6266L13.2026 21.6161C13.2121 22.1266 13.2017 22.6391 13.2005 23.1498C12.4175 23.12 11.6257 23.1479 10.8418 23.1513L10.8451 27.8853L10.8404 30.1679L9.10656 30.1654C9.09303 27.8246 9.09783 25.484 9.12096 23.1435C8.35363 23.1324 7.58636 23.1355 6.81916 23.1529C6.80921 22.645 6.81815 22.1349 6.81799 21.6266Z" fill="white"/>
<path d="M27.7539 21.6299C29.8793 21.5863 32.0126 21.6227 34.1387 21.6214C34.1623 22.1279 34.1469 22.6406 34.1455 23.1478C33.364 23.1301 32.5776 23.1485 31.7958 23.1507L31.8036 27.9571C31.8039 28.6928 31.8 29.4285 31.7919 30.1643L30.0522 30.1668C29.9169 27.8517 30.0359 25.4635 30.0438 23.1393C29.2749 23.1227 28.5033 23.1415 27.7342 23.147C27.7328 22.6417 27.7465 22.1354 27.7539 21.6299Z" fill="white"/>
<path d="M77.6859 21.6545C77.9945 21.6025 78.3327 21.6201 78.6461 21.6135C78.7006 21.663 78.7439 21.7188 78.7731 21.7872C79.0691 22.4839 79.1915 23.7951 79.3439 24.5795C79.6788 26.3029 80.1274 28.0754 80.3408 29.8147C80.3574 29.95 80.3533 30.0517 80.3001 30.1795L79.398 30.1657C79.4909 29.7767 79.2917 28.8278 79.0841 28.477C78.277 28.4113 77.4291 28.468 76.6179 28.4738L75.5885 28.4639C75.5963 28.4994 75.6034 28.5395 75.5992 28.5761C75.5549 28.9628 75.1202 29.8916 74.8386 30.1496C74.544 30.1878 74.217 30.1689 73.9182 30.1773C74.244 29.8293 77.4083 22.4984 77.6859 21.6545ZM77.9949 22.8753C77.912 23.3831 76.1692 27.495 75.8427 27.7483L76.9032 27.7325L78.9919 27.7374C79.0463 27.4107 78.2595 23.1555 78.1071 22.9443C78.083 22.9112 78.031 22.8941 77.9949 22.8753Z" fill="white"/>
<path d="M62.0903 21.6545C62.3235 21.622 62.5631 21.6297 62.7982 21.6266C63.927 21.6118 65.9803 21.3153 66.8448 22.177C67.2329 22.5639 67.3881 23.1104 67.3852 23.65C67.3853 23.7438 67.3808 23.8374 67.3716 23.9307C67.3626 24.024 67.3491 24.1167 67.331 24.2087C67.3129 24.3006 67.2904 24.3915 67.2634 24.4813C67.2364 24.5709 67.2051 24.6591 67.1696 24.7458C67.134 24.8325 67.0942 24.9172 67.0504 24.9999C67.0066 25.0827 66.9589 25.163 66.9072 25.2409C66.8555 25.3189 66.8001 25.3941 66.7409 25.4666C66.6819 25.5391 66.6195 25.6085 66.5537 25.6748C65.5581 26.6625 63.7512 26.382 62.4701 26.3682C62.1257 26.7389 62.346 29.5358 61.8465 30.167L60.9517 30.1716C60.9546 30.167 60.9575 30.1626 60.9602 30.158C60.9648 30.1505 60.9688 30.1425 60.9734 30.1348C61.2583 29.6595 62.0686 22.6163 62.0903 21.6545ZM62.8228 22.4446C62.95 22.8194 62.6728 25.0874 62.4978 25.4458C62.4697 25.5036 62.4347 25.5604 62.3976 25.6127C63.228 25.6149 64.9201 25.7791 65.6087 25.3866L65.6764 25.2878C66.0055 25.1298 66.2297 24.8698 66.3502 24.5223C66.5004 24.0891 66.6042 23.5602 66.3894 23.1299C66.2288 22.8082 65.9162 22.6144 65.5846 22.5096C64.8435 22.2754 63.6016 22.3569 62.8228 22.4446Z" fill="white"/>
<path d="M54.0121 21.5828C54.8203 21.5116 55.5852 21.5167 56.3402 21.8606C56.922 22.1255 57.535 22.615 57.7646 23.2351C57.8876 23.5677 58.0132 24.1353 57.8624 24.4677C57.3735 24.629 56.686 24.5854 56.1696 24.6086C56.2121 24.4896 56.1789 24.3323 56.1626 24.2088C56.1174 23.8641 55.9706 23.5777 55.6918 23.3652C55.3564 23.1099 54.9074 23.0083 54.4939 23.0679C54.1644 23.1154 53.8531 23.2682 53.6538 23.5438C53.2811 24.0589 53.2698 26.9032 53.3948 27.6226C53.4531 27.9576 53.6253 28.2658 53.9049 28.4624C54.2455 28.7019 54.6816 28.7632 55.0848 28.6896C55.4135 28.6296 55.7447 28.469 55.9354 28.1835C56.0654 27.9889 56.0836 27.8103 56.0369 27.5901C56.0904 27.4968 56.1573 27.3647 56.2387 27.295C56.4993 27.0722 57.5436 27.2304 57.8825 27.2773L57.8876 27.2948C58.0254 27.7867 57.8013 28.4282 57.5628 28.8557C57.1728 29.5546 56.5426 29.9135 55.7887 30.1214C54.8804 30.3718 53.7923 30.2857 52.9709 29.805C52.8952 29.7608 52.8219 29.713 52.751 29.6615C52.68 29.61 52.6118 29.5552 52.5462 29.497C52.4806 29.4388 52.4181 29.3774 52.3586 29.3129C52.299 29.2485 52.2427 29.1813 52.1898 29.1113C52.1367 29.0411 52.0873 28.9686 52.0414 28.8936C51.9954 28.8187 51.9533 28.7417 51.9149 28.6626C51.8766 28.5835 51.8422 28.5026 51.8117 28.4201C51.7812 28.3374 51.7549 28.2536 51.7326 28.1684C51.5062 27.3012 51.5343 24.7644 51.6859 23.8704C51.7445 23.526 51.8569 23.1869 52.0343 22.8856C52.4778 22.1326 53.2061 21.7949 54.0121 21.5828Z" fill="white"/>
<path d="M34.9532 21.6286C36.8766 21.5995 38.8039 21.6242 40.7277 21.6231C40.7711 21.6891 40.8071 21.7592 40.8259 21.8367C40.9133 22.1974 40.9105 22.8255 40.7209 23.1491C39.381 23.1163 38.0373 23.1417 36.6968 23.147C36.6873 23.7916 36.6986 24.4373 36.7021 25.0819L39.3848 25.0869C39.412 25.136 39.4356 25.1861 39.4511 25.2402C39.5589 25.6145 39.554 26.2619 39.3677 26.6072C38.4802 26.5665 37.5872 26.5956 36.699 26.6052L36.6897 27.3598L36.7003 28.6284C38.041 28.6197 39.3817 28.623 40.7224 28.6385C40.7717 28.7067 40.8107 28.7801 40.8286 28.8633C40.901 29.2031 40.9129 29.8674 40.7217 30.1663C38.7988 30.1548 36.876 30.1578 34.9532 30.1753C34.8875 28.9991 34.9353 27.7967 34.9346 26.6178C34.9335 24.9565 34.9041 23.2892 34.9532 21.6286Z" fill="white"/>
<path d="M1.73214 27.2332C1.78403 27.7043 1.82812 28.0518 2.21276 28.366C2.60256 28.6847 3.1044 28.7934 3.59726 28.738C3.9224 28.7016 4.28848 28.5809 4.49724 28.3123C4.60364 28.1754 4.65287 28.0137 4.62953 27.8405C4.59057 27.5511 4.37788 27.3184 4.15198 27.1532C2.83256 26.1887 0.52729 26.3454 0.177924 24.2907C0.084034 23.7385 0.229247 23.1623 0.549655 22.7074C0.996153 22.0734 1.69499 21.7123 2.44482 21.5861C3.38797 21.4273 4.52857 21.5631 5.31716 22.14C5.83615 22.5197 6.21743 23.136 6.30835 23.7789C6.34195 24.0162 6.34542 24.2639 6.35292 24.5032C5.79009 24.512 5.21822 24.4999 4.65696 24.5376C4.5919 24.0339 4.50571 23.6423 4.09019 23.3161C3.77072 23.0652 3.34254 22.9848 2.94666 23.0398C2.62243 23.0847 2.29249 23.2283 2.09223 23.4986C1.96852 23.6654 1.89999 23.8676 1.93738 24.0766C1.98299 24.3316 2.18133 24.5328 2.38931 24.6686C3.68907 25.5181 5.93291 25.3984 6.35487 27.3033C6.48519 27.8916 6.39827 28.4983 6.07413 29.0081C5.67447 29.6365 4.98769 30.0099 4.27771 30.1637C3.27403 30.3812 2.03639 30.2881 1.1676 29.7141C0.411694 29.2148 0.176006 28.5502 0 27.7056V27.3506C0.511798 27.1795 1.19426 27.2356 1.73214 27.2332Z" fill="white"/>
<path d="M43.9538 21.5824C44.5995 21.5245 45.2054 21.513 45.8345 21.7038C46.5342 21.9163 47.2353 22.3777 47.5865 23.0409C47.8137 23.4697 47.9182 24.078 47.7741 24.5462L46.0965 24.5497C46.1664 24.3457 46.0843 24.0195 45.9969 23.8286C45.8527 23.5142 45.5589 23.2421 45.234 23.1266C44.8875 23.0033 44.3684 23.0204 44.0356 23.1856C42.6717 23.8628 43.6764 26.5851 43.2736 27.7685C43.2716 27.774 43.2696 27.7795 43.2678 27.7851C43.6788 28.0741 43.7748 28.5102 44.3182 28.6797C44.3662 28.695 44.4148 28.7079 44.4641 28.7183C44.5132 28.7287 44.5628 28.7366 44.6128 28.742C44.6628 28.7475 44.7129 28.7506 44.7632 28.751C44.8134 28.7515 44.8636 28.7496 44.9137 28.7452C44.9639 28.7406 45.0136 28.7336 45.063 28.7242C45.1124 28.7147 45.1613 28.7028 45.2096 28.6885C45.2578 28.6743 45.3051 28.6576 45.3517 28.6385C45.3983 28.6194 45.4439 28.5982 45.4884 28.5746C45.7706 28.4236 46.0064 28.1603 46.0958 27.8474C46.1765 27.5643 46.1531 27.1859 46.0133 26.9263C45.5025 26.9112 44.9908 26.9283 44.4801 26.9383C44.4969 26.9122 44.5108 26.8866 44.5234 26.8581C44.6539 26.5599 44.6068 26.0433 44.4947 25.7464L44.6031 25.5619C44.8776 25.3281 47.2052 25.4445 47.7281 25.4465C47.7562 25.4953 47.7775 25.5448 47.7943 25.5985C48.0245 26.3371 47.8817 28.065 47.5202 28.7464C47.1594 29.4266 46.5278 29.8977 45.7994 30.1138C44.9063 30.3787 43.831 30.3107 43.0097 29.8524C42.9298 29.808 42.8523 29.7597 42.7772 29.7075C42.7021 29.6552 42.6299 29.5994 42.5604 29.5399C42.4909 29.4803 42.4246 29.4174 42.3613 29.3511C42.298 29.2849 42.2382 29.2156 42.1819 29.1433C42.1256 29.071 42.0729 28.9961 42.024 28.9184C41.9751 28.8408 41.9302 28.7609 41.8894 28.6787C41.8485 28.5966 41.8117 28.5126 41.7791 28.4267C41.7466 28.3407 41.7185 28.2534 41.6946 28.1648C41.4096 27.1303 41.4413 23.8575 41.9624 22.9432C42.4018 22.1718 43.1366 21.8094 43.9538 21.5824Z" fill="white"/>
<path d="M23.6097 21.6209L25.734 21.615C26.3113 23.2513 26.8104 24.9208 27.3362 26.5748C27.7123 27.7582 28.154 28.9556 28.4352 30.1654L26.5989 30.1722C26.441 29.7987 26.3949 29.213 26.1629 28.8981C26.0945 28.805 26.0049 28.8188 25.8957 28.802L23.1489 28.8037C23.04 29.2625 22.887 29.7171 22.7513 30.1689L20.8857 30.1652C21.307 28.5938 21.8554 27.0367 22.3468 25.4848C22.7516 24.2065 23.1057 22.8615 23.6097 21.6209ZM24.6097 23.8832C24.276 25.0582 23.9815 26.2834 23.5659 27.4297L24.833 27.4322L25.7519 27.43C25.6298 27.0209 24.8135 24.0004 24.6097 23.8832Z" fill="white"/>
<path d="M22.4783 9.03577C23.3068 10.0317 24.0086 11.1899 24.7437 12.2607C25.7691 13.7545 26.8411 15.2339 27.8146 16.7619C24.4068 16.6797 20.9836 16.7419 17.574 16.7469C19.1524 14.1421 20.8947 11.6375 22.4783 9.03577Z" fill="#417695"/>
<path d="M17.5662 0.562134C18.7957 0.630807 20.0462 0.590585 21.2782 0.591261L27.7931 0.574461C26.9888 2.06651 25.4874 4.01195 24.4829 5.47103C23.925 6.28138 23.1317 7.65331 22.4809 8.31155C20.8833 5.70572 19.1138 3.19766 17.5662 0.562134Z" fill="#417695"/>
<path d="M14.0094 21.631C15.2856 21.6182 17.4029 21.409 18.5722 21.7893C19.16 21.9802 19.6916 22.3687 19.9729 22.9326C20.2901 23.5687 20.2911 24.4446 20.0703 25.1103C19.8258 25.8482 19.2788 26.1988 18.6233 26.5252C19.233 27.7079 19.8373 28.9338 20.3477 30.1629C19.744 30.1674 19.1011 30.2155 18.5036 30.133C17.9552 28.9783 17.4472 27.8011 16.9226 26.6352L15.7622 26.6529C15.768 27.8232 15.7655 28.9936 15.7548 30.164L13.9904 30.1617C13.9182 28.6717 13.9783 27.1464 13.9768 25.6517C13.9755 24.3283 13.8994 22.9486 14.0094 21.631ZM15.7616 23.1471L15.7615 25.2871C16.492 25.2967 17.5898 25.4648 18.1952 24.977C18.3853 24.674 18.5738 24.2959 18.4932 23.9247C18.4439 23.6975 18.3121 23.5386 18.1201 23.4186C17.4695 23.0119 16.4926 23.1314 15.7616 23.1471Z" fill="white"/>
<path d="M98.345 0.60242L99.5374 0.572144C99.7884 0.970424 99.6632 8.24401 99.6632 9.20986L99.6606 29.9794L99.6559 36.0799C99.655 36.958 99.7559 37.9495 99.6342 38.8129L99.5024 39H98.4287C98.5928 38.3399 98.4654 37.1421 98.4625 36.4243L98.4605 31.3992L98.4599 8.57718C98.4599 7.72847 98.5746 0.985682 98.3652 0.634453C98.3587 0.6236 98.3517 0.613097 98.345 0.60242Z" fill="white"/>
<path d="M34.353 0.563316C35.7969 0.594538 37.2713 0.517655 38.71 0.595524C39.1928 1.04134 43.8174 8.30661 43.8475 8.65342C43.8512 8.7286 43.8461 8.79428 43.8101 8.86214C43.0246 10.3428 41.823 12.0252 40.9104 13.4667C40.3789 14.3058 39.544 15.8569 38.9244 16.5489C38.8596 16.6211 38.7895 16.6879 38.71 16.7432C37.258 16.7447 35.7985 16.7149 34.3477 16.7672C35.4737 14.8712 36.8623 13.0651 38.1152 11.2482C38.6089 10.5323 39.3598 9.68436 39.6237 8.86076C39.6606 8.74516 39.7122 8.57479 39.6703 8.45726C39.4358 7.79935 38.8047 7.09389 38.4043 6.52234L35.8666 2.85752C35.3549 2.11691 34.7645 1.36396 34.353 0.563316Z" fill="#417695"/>
<path d="M53.8872 0.638935C55.2357 0.467213 56.7519 0.590424 58.1159 0.590063C59.0158 0.589826 60.0345 0.491257 60.9222 0.601213C61.2232 0.801496 65.9446 8.16484 66.0267 8.54366C66.0382 8.59633 66.0461 8.65367 66.0421 8.70741C66.0377 8.79411 66.0262 8.8777 65.9829 8.95421C65.0571 10.5983 63.9479 12.1885 62.9372 13.7839C62.5353 14.418 61.5557 16.1876 61.0876 16.6233C61.0381 16.6694 60.9817 16.7091 60.9233 16.743C59.437 16.7685 57.8863 16.8303 56.4041 16.7314C56.4484 16.6626 56.4845 16.5866 56.5043 16.5068C56.6041 16.0991 56.6156 15.056 56.4044 14.7067C56.8851 14.7201 57.8197 14.8741 58.2406 14.6404C58.4466 14.5259 58.5574 14.2769 58.6141 14.0564C58.7211 13.6406 58.9154 12.222 58.709 11.868C59.3045 11.8569 59.9044 11.7987 60.499 11.7594C60.541 11.6179 60.5308 11.5131 60.5023 11.3707C60.27 10.2032 59.9026 9.06153 59.6475 7.89753C59.4684 7.08085 59.4067 6.23705 59.1969 5.42806C59.0793 4.97851 58.9186 4.54521 58.7147 4.12814C57.6881 2.04131 55.9465 1.34237 53.8872 0.638935Z" fill="#95CDB5"/>
<path d="M39.6643 0.561661C42.4987 0.657505 45.3468 0.594314 48.1834 0.590734C49.422 0.589173 50.7899 0.476705 52.0146 0.648256C52.0099 0.655651 52.0057 0.663328 52.0008 0.67044C51.8812 0.838969 50.3942 1.29661 50.0597 1.46658C47.6927 2.66972 46.373 5.51664 46.7041 8.1212C46.9269 9.87495 47.6987 11.2203 49.0127 12.3723C49.1474 12.4903 49.5607 12.7546 49.6197 12.9041C49.7768 13.4642 49.7883 16.1933 49.5994 16.7405C48.818 16.8769 47.6693 16.7561 46.8574 16.7556C44.4768 16.7543 42.0881 16.7103 39.7085 16.7754C40.0578 16.4499 44.4117 9.65346 44.8024 8.91656C44.8398 8.84583 44.8515 8.76175 44.8584 8.68278C44.8614 8.65583 44.8621 8.63041 44.8593 8.60325C44.8309 8.31853 39.9735 0.802604 39.6643 0.561661Z" fill="#95CDB5"/>
<path d="M132.718 0H134.916H145.875C145.95 0.114919 145.982 0.219634 145.99 0.355391C146.123 2.35428 146.005 4.56136 146.004 6.5795C146.003 7.38093 146.12 9.22343 145.975 9.93155C145.961 10.0005 145.935 10.0643 145.903 10.1265C146.083 10.5204 146.073 14.2984 145.94 14.6472C145.93 14.6752 145.917 14.7011 145.904 14.7279C145.967 15.0903 145.686 15.8759 145.568 16.2336C145.046 17.8164 143.402 20.9003 141.881 21.668C141.884 21.6628 141.888 21.6579 141.89 21.6527C141.927 21.5891 141.97 21.5326 141.999 21.4638C142.163 21.0637 142.134 19.8506 141.972 19.4634C142.144 19.3512 142.262 19.1998 142.391 19.0423C142.504 18.902 142.614 18.759 142.721 18.6133C142.828 18.4675 142.931 18.3192 143.03 18.1683C143.13 18.0175 143.226 17.8643 143.318 17.7088C143.41 17.5532 143.498 17.3955 143.583 17.2356C143.667 17.0757 143.747 16.9138 143.824 16.7499C143.901 16.5861 143.973 16.4204 144.042 16.253C144.11 16.0855 144.174 15.9165 144.235 15.7459C144.295 15.5753 144.351 15.4033 144.403 15.2299C144.455 15.0565 144.503 14.8819 144.546 14.7062C144.59 14.5305 144.629 14.3538 144.664 14.1761C144.698 13.9984 144.729 13.82 144.755 13.6409C144.781 13.4617 144.803 13.282 144.821 13.1017C144.838 12.9215 144.851 12.7409 144.86 12.56C144.869 12.3791 144.873 12.1981 144.873 12.017C144.873 11.8359 144.869 11.6549 144.86 11.474C144.851 11.2931 144.838 11.1126 144.82 10.9323C144.801 10.7489 144.777 10.5661 144.749 10.3838C144.721 10.2016 144.689 10.0201 144.652 9.83942C144.615 9.65875 144.574 9.47908 144.529 9.30043C144.483 9.12178 144.434 8.94435 144.38 8.76814C144.326 8.59193 144.267 8.41715 144.205 8.24381C144.142 8.07046 144.076 7.89874 144.005 7.72866C143.934 7.55858 143.859 7.39034 143.78 7.22394C143.701 7.05754 143.618 6.89318 143.531 6.73085C143.445 6.56852 143.354 6.40842 143.259 6.25056C143.165 6.09268 143.066 5.93723 142.964 5.7842C142.862 5.63115 142.756 5.48071 142.647 5.33286C142.537 5.18502 142.424 5.03995 142.308 4.89765C142.191 4.75534 142.072 4.61599 141.948 4.47957C141.825 4.34316 141.699 4.20985 141.569 4.07966C141.439 3.94945 141.307 3.8225 141.171 3.6988C141.035 3.57512 140.897 3.45484 140.755 3.33796C140.275 2.94077 138.372 1.54682 137.777 1.60492C137.853 1.78438 139.078 2.3907 139.331 2.57192C139.57 2.74432 139.802 2.92612 140.027 3.11733C140.252 3.30856 140.468 3.50857 140.677 3.71738C140.885 3.92618 141.085 4.14309 141.277 4.36813C141.468 4.59316 141.65 4.82559 141.823 5.0654C141.929 5.21575 142.032 5.36859 142.131 5.52393C142.23 5.67928 142.325 5.83695 142.417 5.99693C142.508 6.1569 142.596 6.31902 142.68 6.48327C142.764 6.64751 142.844 6.8137 142.919 6.98185C142.995 7.14998 143.067 7.31985 143.135 7.49146C143.202 7.66308 143.266 7.83625 143.325 8.01097C143.385 8.18568 143.44 8.36174 143.491 8.53912C143.542 8.71653 143.588 8.89506 143.631 9.07473C143.673 9.2544 143.711 9.43499 143.745 9.6165C143.779 9.79802 143.808 9.98025 143.833 10.1632C143.858 10.3462 143.879 10.5296 143.895 10.7136C143.911 10.8975 143.923 11.0817 143.93 11.2663C143.938 11.4508 143.941 11.6354 143.939 11.8201C143.938 12.0047 143.932 12.1892 143.921 12.3736C143.911 12.558 143.897 12.742 143.877 12.9257C143.858 13.1094 143.835 13.2925 143.807 13.475C143.606 14.7316 142.876 17.2549 141.821 18.0234C141.875 17.9341 141.935 17.8405 141.978 17.7456C142.249 17.1413 142.025 15.6773 142.072 14.9753C142.116 14.3094 142.384 13.6503 142.521 12.9984C142.867 11.3562 142.616 9.40752 142.034 7.84917C141.975 7.69331 141.912 7.53898 141.846 7.3862C141.78 7.2334 141.71 7.08232 141.637 6.93297C141.563 6.7836 141.486 6.63614 141.405 6.49058C141.325 6.34501 141.241 6.20152 141.153 6.0601C141.065 5.91867 140.974 5.77948 140.88 5.64253C140.785 5.50557 140.688 5.37102 140.587 5.23888C140.486 5.10673 140.382 4.97714 140.275 4.85011C140.168 4.72308 140.058 4.59876 139.944 4.47714C139.831 4.35552 139.715 4.23676 139.596 4.12087C139.477 4.00496 139.355 3.89204 139.231 3.78212C139.107 3.67219 138.98 3.5654 138.85 3.46173C138.72 3.35805 138.588 3.25762 138.454 3.16043C138.319 3.06325 138.183 2.96943 138.044 2.87897C137.905 2.78851 137.764 2.70152 137.62 2.618C137.477 2.5345 137.332 2.45455 137.185 2.37817C137.038 2.30179 136.889 2.22907 136.738 2.16001C136.615 2.10372 136.491 2.04996 136.366 1.99873C136.241 1.94749 136.114 1.89883 135.987 1.85274C135.86 1.80665 135.732 1.76318 135.603 1.72231C135.474 1.68144 135.344 1.64322 135.214 1.60763C135.083 1.57205 134.952 1.53914 134.82 1.5089C134.689 1.47866 134.556 1.45112 134.423 1.42628C134.29 1.40144 134.157 1.37931 134.023 1.3599C133.889 1.34049 133.755 1.32381 133.621 1.30987C133.486 1.29593 133.352 1.28473 133.217 1.27627C133.082 1.26782 132.947 1.26212 132.812 1.25916C132.676 1.25621 132.541 1.25602 132.406 1.25857C132.271 1.26113 132.136 1.26644 132.001 1.2745C131.866 1.28256 131.731 1.29336 131.597 1.30691C131.462 1.32046 131.328 1.33675 131.194 1.35577C131.06 1.37478 130.927 1.39652 130.794 1.42098C130.661 1.44543 130.529 1.47259 130.397 1.50244C130.265 1.53229 130.134 1.56482 130.003 1.60002C129.872 1.63522 129.743 1.67307 129.613 1.71356C129.484 1.75405 129.356 1.79716 129.229 1.84288C129.101 1.88859 128.975 1.93688 128.85 1.98775C128.724 2.03861 128.6 2.09201 128.477 2.14794C128.353 2.20387 128.231 2.26229 128.111 2.3232C127.99 2.38411 127.87 2.44745 127.752 2.51324C127.633 2.57902 127.516 2.64719 127.401 2.71773C127.285 2.78829 127.171 2.86117 127.058 2.93637C126.945 3.01157 126.834 3.08904 126.725 3.16877C126.615 3.24851 126.507 3.33045 126.401 3.41458C126.295 3.49871 126.19 3.58497 126.087 3.67336C125.984 3.76175 125.883 3.8522 125.784 3.94472C125.685 4.03723 125.587 4.13172 125.492 4.22819C125.397 4.32467 125.303 4.42305 125.212 4.52334C125.12 4.62362 125.031 4.72573 124.943 4.82965C124.469 5.39569 123.477 7.37488 122.916 7.58782L122.803 7.52385C123.655 4.20341 127.482 1.46594 130.559 0.484853C131.002 0.343423 132.451 0.198225 132.697 0.0164727C132.704 0.0111562 132.711 0.00549091 132.718 0ZM134.916 0C135.68 0.184602 136.472 0.245325 137.228 0.45953C137.411 0.511203 137.593 0.567163 137.773 0.627411C137.954 0.68766 138.133 0.752129 138.31 0.820819C138.488 0.889511 138.663 0.962349 138.838 1.03933C139.012 1.11632 139.184 1.19736 139.354 1.28247C139.524 1.36758 139.693 1.45666 139.859 1.5497C140.025 1.64275 140.189 1.73966 140.35 1.84043C140.512 1.94122 140.671 2.04576 140.828 2.15405C140.985 2.26234 141.139 2.37427 141.291 2.48984C141.443 2.6054 141.591 2.72448 141.737 2.84707C141.883 2.96967 142.027 3.09563 142.167 3.22497C142.307 3.35432 142.444 3.48689 142.578 3.6227C142.712 3.75851 142.843 3.89741 142.971 4.03941C143.098 4.18139 143.222 4.3263 143.343 4.47415C143.464 4.62199 143.581 4.77261 143.695 4.92599C143.809 5.07937 143.919 5.23535 144.026 5.39394C144.133 5.55253 144.235 5.71354 144.335 5.87697C144.778 6.60539 146.087 9.35658 145.903 10.1265C145.935 10.0643 145.961 10.0005 145.975 9.93155C146.12 9.22343 146.003 7.38093 146.004 6.5795C146.005 4.56136 146.123 2.35428 145.99 0.355391C145.982 0.219634 145.95 0.114919 145.875 0H134.916Z" fill="white"/>
<path d="M52.0148 0.648308C52.6384 0.638751 53.264 0.619541 53.8874 0.639012C55.9468 1.34245 57.6884 2.04139 58.7149 4.12822C58.9188 4.54529 59.0796 4.97859 59.1971 5.42813C59.407 6.23713 59.4686 7.08092 59.6477 7.89761C59.9028 9.06161 60.2702 10.2033 60.5025 11.3707C60.531 11.5132 60.5412 11.618 60.4992 11.7595C59.9046 11.7987 59.3048 11.857 58.7093 11.8681C58.9157 12.2221 58.7213 13.6406 58.6144 14.0565C58.5576 14.277 58.4468 14.526 58.2408 14.6404C57.8199 14.8742 56.8854 14.7202 56.4047 14.7068C56.6158 15.0561 56.6043 16.0992 56.5045 16.5069C56.4848 16.5867 56.4486 16.6626 56.4043 16.7315C56.0086 16.8264 50.3539 16.8155 49.5996 16.7405C49.7885 16.1934 49.777 13.4643 49.6199 12.9041C49.5609 12.7547 49.1475 12.4904 49.0129 12.3724C47.6989 11.2204 46.9271 9.875 46.7042 8.12125C46.3732 5.51669 47.6928 2.66977 50.0599 1.46663C50.3944 1.29666 51.8814 0.839021 52.0009 0.670492C52.0059 0.66338 52.0101 0.655703 52.0148 0.648308Z" fill="#FAF7F7"/>
<path d="M52.1801 1.54408C53.054 1.45965 53.894 1.47541 54.7393 1.73983C54.8263 1.76664 54.9126 1.7956 54.9981 1.82672C55.0837 1.85783 55.1683 1.89105 55.2522 1.92637C55.3361 1.96171 55.4192 1.9991 55.5013 2.03857C55.5833 2.07804 55.6643 2.11951 55.7444 2.163C55.8244 2.2065 55.9033 2.25197 55.9811 2.29941C56.0589 2.34684 56.1355 2.39617 56.2108 2.44741C56.2863 2.49866 56.3604 2.55175 56.4331 2.60668C56.5059 2.66161 56.5773 2.71832 56.6474 2.77681C56.7173 2.8353 56.7858 2.8955 56.8529 2.95741C56.9199 3.0193 56.9854 3.08283 57.0494 3.14799C57.1133 3.21315 57.1756 3.27987 57.2363 3.34814C57.2969 3.41641 57.3558 3.48613 57.4131 3.55733C57.4703 3.62853 57.5257 3.70111 57.5794 3.77506C57.6331 3.84903 57.6849 3.92428 57.7349 4.00082C57.7849 4.07736 57.833 4.15511 57.8791 4.23405C57.9253 4.31298 57.9695 4.39302 58.0117 4.47416C58.2057 4.8488 58.366 5.25513 58.4726 5.66401C58.6385 6.29995 58.6616 6.97489 58.773 7.62267C58.8856 8.27736 59.0967 8.92928 59.267 9.57129C59.3728 9.96955 59.6265 10.6467 59.5039 11.0394C58.9983 11.0987 58.493 11.1218 57.9847 11.1452C58.0159 11.2043 58.0415 11.2684 58.0554 11.3339C58.1462 11.7604 57.9774 13.6074 57.7575 13.9412C57.0586 13.9319 56.3592 13.9079 55.6604 13.8901C55.8697 14.3404 55.8033 15.5073 55.6604 15.9799L54.732 15.9755L50.3429 15.9782C50.3453 15.9738 50.3478 15.9695 50.35 15.9651C50.3537 15.9577 50.3568 15.95 50.3604 15.9426C50.367 15.9295 50.3747 15.9171 50.3812 15.904C50.5721 15.5183 50.5327 12.8715 50.3904 12.4381C50.3008 12.296 49.9381 12.1024 49.7872 11.9797C48.6493 11.0541 47.9221 10.0816 47.5868 8.62784C47.5649 8.53429 47.5452 8.44025 47.5279 8.34572C47.5105 8.25118 47.4954 8.15628 47.4828 8.06102C47.47 7.96574 47.4596 7.8702 47.4516 7.7744C47.4435 7.67862 47.4378 7.58269 47.4344 7.48661C47.4311 7.39055 47.4302 7.29445 47.4315 7.19833C47.4327 7.1022 47.4364 7.00617 47.4424 6.91022C47.4485 6.81428 47.4569 6.71855 47.4676 6.62302C47.4783 6.5275 47.4914 6.4323 47.5067 6.33742C47.522 6.24254 47.5397 6.1481 47.5596 6.0541C47.5797 5.96009 47.6019 5.86664 47.6264 5.77374C47.651 5.68084 47.6778 5.58861 47.7069 5.49704C47.736 5.40548 47.7672 5.31469 47.8007 5.22467C47.8341 5.13465 47.8698 5.04552 47.9076 4.95728C47.9455 4.86903 47.9854 4.78177 48.0275 4.6955C48.0698 4.60925 48.114 4.52409 48.1602 4.44001C48.2064 4.35594 48.2547 4.27307 48.3051 4.19139C49.2101 2.7311 50.542 1.92354 52.1801 1.54408Z" fill="#95CDB5"/>
<path d="M52.1513 3.69885C52.4168 3.70682 52.6922 3.71224 52.951 3.77711C53.6668 3.95651 54.436 4.47915 54.8136 5.1253C54.9833 5.41592 55.1846 5.89836 55.0974 6.23586L56.7109 6.23654C56.7441 6.28626 56.7707 6.33599 56.7892 6.39324C56.9321 6.83596 56.8821 10.6221 56.7129 10.9663L53.8766 10.9653L52.0077 10.966C52.211 10.5934 52.1261 9.93961 52.0385 9.54245C51.4589 9.43391 50.9818 9.26809 50.5081 8.90327C50.432 8.8451 50.359 8.78331 50.2891 8.7179C50.2191 8.65248 50.1524 8.58376 50.089 8.51175C50.0258 8.43972 49.9662 8.36473 49.9104 8.28678C49.8544 8.20884 49.8024 8.12832 49.7543 8.04522C49.7063 7.96212 49.6623 7.87684 49.6226 7.78938C49.5828 7.70193 49.5474 7.61272 49.5163 7.52175C49.4853 7.43078 49.4589 7.33849 49.437 7.24489C49.4149 7.15129 49.3975 7.05683 49.3848 6.96152C49.3731 6.86828 49.366 6.7747 49.3636 6.68077C49.361 6.58684 49.3632 6.49301 49.37 6.39929C49.3767 6.30558 49.388 6.21243 49.4039 6.11983C49.4199 6.02725 49.4402 5.93568 49.4651 5.84512C49.49 5.75456 49.5193 5.66546 49.553 5.57782C49.5866 5.4902 49.6244 5.40445 49.6665 5.32059C49.7086 5.23674 49.7548 5.15518 49.8049 5.07592C49.8549 4.99666 49.9087 4.92008 49.9664 4.84619C50.5265 4.12805 51.2755 3.80636 52.1513 3.69885Z" fill="#FAF7F7"/>
<path d="M52.8726 7.7207C52.9076 7.72707 52.9457 7.73577 52.9775 7.75291C53.1708 7.85741 53.412 8.10287 53.4797 8.31543L53.3334 8.43895C53.1925 8.54118 53.1443 8.60004 52.9656 8.59596C52.8291 8.3698 52.8742 7.98257 52.8726 7.7207Z" fill="#95CDB5"/>
<path d="M53.4031 7.07419C53.408 7.07289 53.4129 7.07145 53.4179 7.07027C53.7141 7.0003 54.05 6.95234 54.3156 7.11106C54.2979 7.30486 54.2393 7.35895 54.1241 7.50634L54.0911 7.63574C53.8743 7.60207 53.5925 7.23119 53.4031 7.07419Z" fill="#95CDB5"/>
<path d="M55.0838 7.0742C55.3818 7.01017 55.6662 7.01787 55.9695 7.0276C56.131 7.58521 56.1543 9.64145 55.9499 10.1816C55.1902 10.2038 54.4233 10.1871 53.6629 10.1894C53.4581 10.1979 53.1838 10.2275 53.002 10.1177C52.8555 10.0293 52.8239 9.99407 52.7825 9.8352C52.8827 9.41534 54.368 8.78433 54.7416 8.24032C54.9473 7.94076 55.1491 7.43953 55.0838 7.0742Z" fill="#95CDB5"/>
<path d="M51.9499 4.48877C51.9642 4.48689 51.9786 4.48514 51.993 4.48352C52.0662 4.47591 52.1397 4.47189 52.2134 4.47147C52.287 4.47104 52.3605 4.47421 52.4339 4.48098C52.5072 4.48777 52.5801 4.49811 52.6523 4.512C52.7247 4.52591 52.7963 4.54331 52.8669 4.56421C52.9376 4.58512 53.0071 4.60943 53.0754 4.63713C53.1437 4.66484 53.2106 4.69581 53.2759 4.73005C53.3413 4.76431 53.4048 4.80167 53.4666 4.84214C53.5283 4.8826 53.5879 4.92598 53.6455 4.97229C54.0324 5.28874 54.2766 5.71418 54.3282 6.21284C53.5787 6.29566 52.7562 6.2349 51.9986 6.23795C52.0378 6.3007 52.0736 6.36778 52.09 6.44061C52.184 6.86092 52.2112 8.01834 51.9886 8.36905C52.0019 8.39292 52.0138 8.41463 52.0234 8.44031C52.076 8.58099 52.0906 8.61896 52.03 8.75643C51.8387 8.7882 51.6104 8.67751 51.444 8.5893C50.8939 8.29759 50.4116 7.74486 50.2342 7.14115C50.0893 6.64856 50.0982 6.09297 50.3503 5.63673C50.6863 5.02825 51.3062 4.67278 51.9499 4.48877Z" fill="#95CDB5"/>
<path d="M33.3453 0.554448C33.5444 0.420757 33.7205 0.319315 33.9715 0.369509C34.1251 0.400231 34.2359 0.461026 34.3529 0.563238C34.7644 1.36388 35.3548 2.11683 35.8665 2.85744L38.4042 6.52226C38.8046 7.09382 39.4357 7.79927 39.6702 8.45718C39.7122 8.57471 39.6605 8.74508 39.6237 8.86068C39.3598 9.68428 38.6088 10.5322 38.1151 11.2481C36.8623 13.065 35.4736 14.8712 34.3476 16.7671C34.2182 16.87 34.0912 16.9698 33.9225 16.9928C33.6891 17.0247 33.5256 16.8971 33.3531 16.762C32.4667 16.7499 29.5909 16.5891 28.8328 16.7845C28.6784 16.8852 28.5251 16.9749 28.3369 16.9917C28.1236 17.0109 27.9701 16.8888 27.8146 16.7619C26.8412 15.2339 25.7692 13.7545 24.7437 12.2607C24.0086 11.1898 23.3069 10.0316 22.4783 9.03574C22.4258 8.7878 22.4539 8.5608 22.4809 8.3115C23.1317 7.65326 23.925 6.28133 24.4829 5.47097C25.4874 4.0119 26.9888 2.06646 27.7931 0.57441C27.9849 0.432358 28.159 0.323033 28.4105 0.367585C28.5713 0.396066 28.6888 0.463762 28.8116 0.56883C30.2278 0.587335 31.9709 0.730154 33.3453 0.554448Z" fill="#FAF7F7"/>
<path d="M32.8901 8.02856C33.0671 8.20508 33.2186 8.47574 33.3664 8.6817C32.6165 9.74806 31.8771 10.8216 31.1481 11.9024C30.9076 11.8491 30.8207 11.6339 30.6765 11.4384C31.4458 10.3263 32.1571 9.16564 32.8901 8.02856Z" fill="#417695"/>
<path d="M31.0505 5.36987C31.2082 5.50691 31.3477 5.74521 31.4745 5.91585C30.7074 7.03528 29.9919 8.19778 29.2547 9.33792L28.7903 8.69262C29.5389 7.58152 30.3112 6.48781 31.0505 5.36987Z" fill="#417695"/>
<path d="M31.9484 6.65161C32.1227 6.83153 32.2698 7.09095 32.4171 7.29706C31.6758 8.41966 30.9414 9.54682 30.2139 10.6785C30.0344 10.5242 29.8812 10.2583 29.7393 10.0644C30.5171 8.96269 31.2177 7.78666 31.9484 6.65161Z" fill="#417695"/>
<path d="M28.8328 16.7846C29.0779 16.0541 30.557 14.1762 31.0733 13.4061C31.8455 14.5163 32.6055 15.6349 33.3531 16.7621C32.4667 16.75 29.5909 16.5892 28.8328 16.7846Z" fill="#417695"/>
<path d="M28.8115 0.568826C30.2277 0.58733 31.9708 0.730149 33.3452 0.554443C32.9406 1.48604 31.6937 3.03455 31.0663 3.93286C30.3546 2.79012 29.4694 1.74527 28.8115 0.568826Z" fill="#417695"/>
<path d="M33.8206 1.35132C34.367 1.9923 38.7679 8.33934 38.7961 8.68779C38.8081 9.0203 34.4872 15.0849 33.9228 15.9036L33.8125 15.9153C33.1417 15.2324 32.1516 13.5631 31.5596 12.6982C32.3706 11.5648 33.7014 9.86066 34.2766 8.67224C33.7992 7.62835 32.2735 5.67038 31.5574 4.63659C32.3471 3.57056 33.0789 2.45156 33.8206 1.35132Z" fill="#417695"/>
<path d="M28.2897 1.349C28.8222 1.85906 30.0833 3.91241 30.5976 4.6476C30.0919 5.37302 28.1909 7.79552 28.0627 8.50244C28.0198 8.73859 28.076 8.97774 28.1749 9.19241C28.5317 9.96584 30.0167 11.8829 30.5936 12.7132L28.2984 16.0246C27.3232 14.5798 26.3388 13.1414 25.3452 11.7093C24.6512 10.7003 23.9821 9.65294 23.2324 8.6855C23.8429 7.91666 24.3814 7.04339 24.9392 6.233L28.2897 1.349Z" fill="#417695"/>
<path d="M0.445147 0.603552C3.34625 0.509571 6.26964 0.580908 9.17292 0.581099C11.3869 0.581246 13.6481 0.485602 15.8574 0.595757C16.0719 0.606453 16.4898 0.603761 16.6455 0.74817C17.1939 1.25708 18.227 3.14382 18.6742 3.85251C19.6836 5.45243 20.7804 7.0433 21.7119 8.68883L18.2794 14.1249C17.7567 14.9515 17.2175 16.0398 16.5456 16.7416C15.7275 16.7705 14.9093 16.7794 14.0908 16.7686C13.7818 16.7441 13.4663 16.7607 13.1564 16.7655C12.1955 16.7706 11.2327 16.7884 10.2722 16.7568L9.31743 16.7592C8.36011 16.768 7.40127 16.7882 6.4442 16.7577C6.1293 16.7513 5.81266 16.7599 5.49759 16.7615C4.53725 16.7729 3.5769 16.7739 2.61652 16.7643C2.31138 16.7508 2.00199 16.7598 1.69634 16.7582C1.28953 16.8009 0.874882 16.796 0.466106 16.8049C0.423738 15.8056 0.492477 14.7844 0.521013 13.7847C0.501213 13.3359 0.482334 12.8989 0.529119 12.4509C0.330428 10.9444 0.469323 9.27195 0.521759 7.7501C0.501726 7.30111 0.489203 6.86521 0.525692 6.41645C0.340279 4.50786 0.521261 2.52528 0.445147 0.603552Z" fill="#E31F26"/>
<path d="M1.52143 3.11198L3.37436 2.68604C3.52453 3.3158 3.67018 3.94662 3.81134 4.57849C3.59641 4.90357 3.38854 5.23956 3.16279 5.55677L2.89521 4.22606C2.14986 5.40938 1.42543 6.6151 0.634007 7.76755C0.600874 7.76466 0.549591 7.76772 0.521791 7.7502C0.501758 7.30121 0.489235 6.86531 0.525724 6.41655C1.11473 5.56718 1.65854 4.68683 2.21003 3.81255C1.76356 3.91551 1.30979 4.00652 0.867384 4.12491L1.52143 3.11198Z" fill="#FAF7F7"/>
<path d="M13.0337 9.08553L14.9146 8.6521C15.0469 9.28769 15.1914 9.92302 15.3117 10.5609L14.6811 11.5463C14.5883 11.1049 14.4842 10.6628 14.4238 10.2156C13.7925 11.0983 13.2348 12.048 12.6548 12.966C11.8581 14.227 11.0446 15.4807 10.2721 16.7568L9.31738 16.7592L13.7309 9.77333L12.4077 10.0822L13.0337 9.08553Z" fill="#FAF7F7"/>
<path d="M17.4148 8.20019C18.0378 8.0507 18.66 7.89595 19.2894 7.77686L19.7054 9.66039L19.0675 10.6498C18.9727 10.2067 18.8831 9.76257 18.7985 9.31736C17.2201 11.7758 15.5441 14.2362 14.0908 16.7686C13.7819 16.7441 13.4663 16.7607 13.1565 16.7655C14.6118 14.167 16.4926 11.4403 18.1056 8.8941L16.8067 9.18939L17.4148 8.20019Z" fill="#FAF7F7"/>
<path d="M7.00216 6.52677L8.8605 6.10095C9.00998 6.7309 9.1547 7.36196 9.29465 7.99413L8.65304 8.98636L8.3771 7.66119C6.43886 10.6812 4.4997 13.7095 2.61647 16.7643C2.31133 16.7509 2.00193 16.7598 1.69629 16.7583C2.43365 15.3555 3.39131 14.0163 4.2404 12.6766C5.38999 10.8629 6.49871 8.99992 7.70626 7.22599L6.37941 7.52975L7.00216 6.52677Z" fill="#FAF7F7"/>
<path d="M5.8165 2.3701C6.43362 2.24815 7.04804 2.11367 7.65977 1.96667C7.80051 2.58517 7.91323 3.2298 8.09505 3.83634L7.46119 4.84898C7.36226 4.40739 7.25382 3.9652 7.16832 3.5209C6.39955 4.73531 0.972099 13.5214 0.583383 13.822L0.521075 13.7847C0.501276 13.3359 0.482396 12.899 0.529182 12.4509C2.04499 10.2544 3.42017 7.93515 4.84836 5.67859C5.39062 4.82181 5.90684 3.91117 6.50759 3.09584C6.06446 3.19319 5.60666 3.274 5.17063 3.39785L5.8165 2.3701Z" fill="#FAF7F7"/>
<path d="M13.1838 4.57608C12.9299 4.16178 12.7265 3.73045 12.8467 3.23299C12.9411 2.84231 13.2521 2.42974 13.5963 2.227C13.9016 2.04717 14.2564 2.01596 14.5951 2.11003C14.6464 2.12471 14.6968 2.14191 14.7464 2.16162C14.7961 2.18132 14.8446 2.20346 14.892 2.22801C14.9395 2.25255 14.9856 2.27939 15.0304 2.30853C15.0752 2.33767 15.1185 2.36897 15.1602 2.40242C15.202 2.43588 15.242 2.47133 15.2802 2.50877C15.3185 2.54621 15.3548 2.58547 15.3892 2.62653C15.4236 2.66759 15.4559 2.71026 15.4861 2.75455C15.5163 2.79882 15.5443 2.84449 15.57 2.89156C15.7632 3.24199 15.837 3.697 15.721 4.08502C15.6243 4.40838 15.403 4.63714 15.1106 4.79196C14.686 5.01671 14.3243 5.04927 13.8557 5.02431C11.3962 8.93432 8.82079 12.7978 6.44417 16.7577C6.12926 16.7513 5.81263 16.7599 5.49756 16.7615C7.26817 13.9228 9.05369 11.0937 10.8541 8.27408C11.6264 7.05514 12.4869 5.83766 13.1838 4.57608Z" fill="#FAF7F7"/>
<path d="M14.124 2.85559C14.1831 2.85914 14.242 2.86539 14.3006 2.87436C14.5144 2.90841 14.7323 3.02783 14.8557 3.2097C14.947 3.34423 14.9686 3.50271 14.9383 3.66098C14.8821 3.9542 14.6854 4.09778 14.4594 4.25834C14.42 4.25724 14.3808 4.25495 14.3415 4.25148C14.1168 4.23133 13.8849 4.13606 13.741 3.95467C13.6445 3.83298 13.61 3.68156 13.6277 3.52812C13.6656 3.19969 13.8826 3.04123 14.124 2.85559Z" fill="#E31F26"/>
<path d="M62.0259 0.610363C64.5935 0.555193 67.1676 0.590957 69.736 0.591345L83.1329 0.591393C83.1884 0.623652 83.2386 0.658958 83.286 0.702613C83.7658 1.14414 84.9123 3.17574 85.326 3.82842C86.2843 5.34033 87.3472 6.84947 88.2181 8.41149C88.2683 8.50141 88.2842 8.59187 88.2895 8.69395C88.2858 8.74893 88.2741 8.80591 88.2575 8.85843C88.1506 9.19374 83.8775 15.917 83.4017 16.5472C83.3521 16.6129 83.2734 16.6622 83.2008 16.699C82.6836 16.8839 79.2201 16.751 78.3312 16.7507L67.9006 16.7445C65.9022 16.7426 63.8928 16.6975 61.8958 16.7638C61.9271 16.7444 61.9567 16.7236 61.9859 16.7012C62.3816 16.3971 67.0574 9.00839 67.1005 8.69156C67.068 8.25317 62.6484 1.56421 62.0259 0.610363Z" fill="#0D1F36"/>
<path d="M78.5376 9.37285C79.4004 9.26617 80.1487 9.30022 80.8896 9.82288C80.9668 9.87734 81.041 9.9355 81.1123 9.99735C81.1837 10.0592 81.252 10.1244 81.317 10.1931C81.382 10.2617 81.4435 10.3334 81.5014 10.4081C81.5594 10.4829 81.6136 10.5603 81.664 10.6404C81.7144 10.7206 81.7607 10.803 81.803 10.8877C81.8454 10.9725 81.8835 11.0591 81.9173 11.1476C81.9511 11.2362 81.9806 11.3262 82.0056 11.4176C82.0307 11.5091 82.0512 11.6015 82.0671 11.695C82.0832 11.788 82.0947 11.8815 82.1016 11.9756C82.1087 12.0697 82.1111 12.1639 82.1089 12.2583C82.1067 12.3526 82.0999 12.4466 82.0885 12.5403C82.0772 12.6339 82.0613 12.7268 82.0408 12.8189C82.0204 12.911 81.9956 13.0019 81.9664 13.0915C81.9372 13.1811 81.9037 13.2691 81.8658 13.3554C81.828 13.4418 81.786 13.526 81.7399 13.6082C81.6939 13.6904 81.644 13.7701 81.5903 13.8473C81.5373 13.9216 81.4809 13.993 81.4211 14.0617C81.3612 14.1303 81.2982 14.1959 81.232 14.2582C81.1657 14.3206 81.0965 14.3796 81.0245 14.4351C80.9525 14.4906 80.8779 14.5424 80.8008 14.5905C80.7236 14.6386 80.6444 14.6827 80.563 14.723C80.4814 14.7632 80.3982 14.7992 80.3133 14.8312C80.2283 14.8631 80.1419 14.8908 80.0543 14.9142C79.9666 14.9375 79.878 14.9565 79.7884 14.9711C79.7775 14.9768 79.7621 14.9855 79.7497 14.9896C79.3139 15.1351 78.5618 15.0197 78.1445 14.8418C77.4583 14.5494 76.902 13.9449 76.6253 13.2525C76.5898 13.1652 76.5587 13.0763 76.5319 12.9859C76.5051 12.8955 76.4829 12.804 76.4651 12.7114C76.4473 12.6188 76.4341 12.5255 76.4255 12.4316C76.417 12.3376 76.413 12.2435 76.4136 12.1492C76.4142 12.0548 76.4195 11.9607 76.4293 11.8669C76.4392 11.7731 76.4536 11.68 76.4726 11.5876C76.4916 11.4953 76.515 11.404 76.5428 11.314C76.5708 11.224 76.6031 11.1355 76.6398 11.0487C77.0102 10.1742 77.6935 9.70928 78.5376 9.37285Z" fill="#FAF7F7"/>
<path d="M78.5797 1.97502C79.4972 1.84402 80.3874 1.98069 81.1501 2.53662C81.2367 2.59988 81.32 2.66728 81.4001 2.73883C81.4802 2.81038 81.5565 2.88574 81.6291 2.9649C81.7018 3.04406 81.7703 3.12663 81.8348 3.21263C81.8994 3.29861 81.9596 3.38759 82.0153 3.47958C82.0711 3.57156 82.1223 3.66608 82.1688 3.76315C82.2154 3.86024 82.257 3.95939 82.2938 4.06062C82.3305 4.16185 82.3623 4.26466 82.3891 4.36905C82.4158 4.47343 82.4374 4.57889 82.4537 4.68543C82.4701 4.79151 82.4813 4.89816 82.4872 5.00536C82.4933 5.11255 82.4942 5.21978 82.4898 5.32705C82.4854 5.43433 82.4758 5.54113 82.461 5.64746C82.4462 5.75379 82.4264 5.85914 82.4013 5.96351C82.3763 6.06788 82.3464 6.17077 82.3113 6.27218C82.2763 6.37359 82.2364 6.47303 82.1918 6.57051C82.1471 6.66798 82.0978 6.76303 82.044 6.85565C81.9901 6.94827 81.9318 7.03801 81.8691 7.12488C81.3433 7.84257 80.5818 8.25463 79.7169 8.38807C79.0984 8.50165 78.3757 8.371 77.8145 8.09633C77.7193 8.04958 77.6265 7.99815 77.5362 7.94206C77.446 7.88596 77.3589 7.82547 77.2747 7.76058C77.1905 7.69569 77.1098 7.62673 77.0325 7.55371C76.9551 7.48069 76.8816 7.40396 76.8119 7.32352C76.7421 7.24309 76.6766 7.15936 76.6151 7.07232C76.5537 6.98527 76.4967 6.89536 76.4443 6.80258C76.3919 6.7098 76.3441 6.61461 76.301 6.51701C76.258 6.41943 76.2199 6.31992 76.1868 6.21848C76.1532 6.11811 76.1246 6.01632 76.101 5.91312C76.0775 5.80992 76.059 5.70579 76.0455 5.60075C76.0322 5.49571 76.0239 5.39026 76.0207 5.28441C76.0176 5.17856 76.0196 5.0728 76.0269 4.96713C76.0341 4.86148 76.0464 4.75643 76.0638 4.652C76.0812 4.54756 76.1037 4.44424 76.1313 4.34205C76.1588 4.23984 76.1912 4.13923 76.2286 4.04024C76.2659 3.94125 76.308 3.84435 76.3549 3.74952C76.8246 2.79908 77.6161 2.3022 78.5797 1.97502Z" fill="#FAF7F7"/>
<path d="M78.4724 2.83682C78.5965 2.81531 78.7153 2.80564 78.841 2.80212C78.71 3.12733 77.3394 4.43823 76.9961 4.63279L76.9193 4.71309C76.8989 4.62396 76.9067 4.59456 76.933 4.50701C77.1907 3.65122 77.7177 3.2443 78.4724 2.83682Z" fill="#0D1F36"/>
<path d="M81.5003 5.42249L81.627 5.45139C81.6502 5.49219 81.6693 5.53375 81.679 5.57999C81.7288 5.81616 81.4824 6.22995 81.3529 6.41894C80.9067 7.06902 80.3462 7.46239 79.5799 7.60064L79.5208 7.52227C80.0568 6.75067 80.9979 6.21304 81.5003 5.42249Z" fill="#0D1F36"/>
<path d="M79.8344 2.90872C79.9227 2.89426 80.0204 2.88342 80.1083 2.90559C80.2925 2.95201 80.429 2.98795 80.5281 3.15181C80.1925 3.58765 77.7462 6.08637 77.373 6.30325C77.3522 6.35989 77.3046 6.41712 77.2714 6.46775C77.1177 6.4189 76.9907 6.0994 76.9067 5.94822C77.2944 5.63583 79.7605 3.18613 79.8344 2.90872Z" fill="#0D1F36"/>
<path d="M80.9917 3.77063L81.195 3.77854C81.3669 3.90227 81.3784 3.92113 81.4481 4.12255C81.4131 4.38067 81.2377 4.57259 81.0738 4.76202C80.6833 5.21324 78.6522 7.41945 78.2263 7.44929C78.0983 7.28291 77.8664 7.20489 77.6812 7.11799C78.1509 6.85054 80.8207 4.17709 80.9917 3.77063Z" fill="#0D1F36"/>
<path d="M71.6574 1.97507C72.5425 1.84123 73.4229 1.97521 74.169 2.49695C74.2571 2.55824 74.3419 2.62377 74.4236 2.69353C74.5052 2.76328 74.5832 2.8369 74.6575 2.91441C74.732 2.99194 74.8024 3.07296 74.8689 3.15748C74.9353 3.24201 74.9975 3.32963 75.0554 3.42035C75.1133 3.51107 75.1666 3.60444 75.2152 3.70047C75.2639 3.79648 75.3078 3.89469 75.347 3.99508C75.3861 4.09548 75.4201 4.19756 75.4492 4.30134C75.4783 4.40512 75.5022 4.5101 75.5209 4.61627C75.5395 4.7233 75.5529 4.83099 75.5609 4.93934C75.5689 5.0477 75.5717 5.15618 75.5691 5.26481C75.5666 5.37343 75.5587 5.48167 75.5456 5.58952C75.5324 5.69736 75.5141 5.80429 75.4905 5.91031C75.4669 6.01634 75.4381 6.12094 75.4043 6.22412C75.3705 6.32728 75.3317 6.42853 75.2881 6.52786C75.2444 6.62718 75.1959 6.7241 75.1426 6.81861C75.0894 6.91313 75.0318 7.00478 74.9696 7.09356C74.4734 7.79613 73.71 8.23657 72.8729 8.37482C72.2226 8.50608 71.4656 8.39145 70.8723 8.09875C70.114 7.72473 69.5521 7.04205 69.2824 6.2406C69.2474 6.1391 69.2176 6.03611 69.1927 5.93162C69.1679 5.82713 69.1484 5.72165 69.1342 5.61518C69.1198 5.50872 69.1107 5.4018 69.107 5.29444C69.1032 5.18707 69.1048 5.07978 69.1117 4.97257C69.1187 4.86535 69.1308 4.75875 69.1482 4.65277C69.1657 4.54678 69.1884 4.44193 69.2161 4.33823C69.244 4.23452 69.2769 4.13247 69.3148 4.03206C69.3528 3.93166 69.3956 3.83342 69.4433 3.73731C69.9164 2.78077 70.6854 2.29873 71.6574 1.97507Z" fill="#FAF7F7"/>
<path d="M71.8083 2.76507C72.4769 2.66602 73.1303 2.76606 73.696 3.15369C73.7634 3.19995 73.8284 3.24947 73.8908 3.30225C73.9533 3.35503 74.0131 3.4108 74.07 3.46957C74.1269 3.52835 74.1809 3.58983 74.2319 3.65401C74.2827 3.71819 74.3303 3.78476 74.3746 3.85372C74.4189 3.92268 74.4597 3.99369 74.497 4.06675C74.5343 4.13979 74.5678 4.21453 74.5978 4.29096C74.6277 4.36738 74.6538 4.44511 74.6761 4.52415C74.6982 4.60319 74.7165 4.68315 74.7308 4.76402C74.7449 4.84315 74.7552 4.92278 74.7615 5.00293C74.7677 5.08308 74.77 5.16334 74.7684 5.24372C74.7667 5.3241 74.7611 5.4042 74.7516 5.48403C74.7421 5.56384 74.7287 5.64299 74.7113 5.72147C74.694 5.79995 74.6729 5.87737 74.648 5.95374C74.6229 6.0301 74.5942 6.10502 74.562 6.17852C74.5296 6.25202 74.4938 6.32372 74.4543 6.39363C74.4149 6.46354 74.3721 6.53131 74.326 6.59695C73.9251 7.16944 73.3314 7.48293 72.6582 7.60201C72.2269 7.69323 71.6975 7.58094 71.3005 7.40336C71.2301 7.37117 71.1614 7.33554 71.0945 7.29648C71.0276 7.25742 70.9628 7.21511 70.9001 7.16956C70.8374 7.124 70.777 7.07542 70.7191 7.02383C70.6611 6.97225 70.6058 6.91789 70.5532 6.86077C70.5007 6.80364 70.451 6.74403 70.4043 6.68194C70.3576 6.61983 70.314 6.55555 70.2736 6.48911C70.2332 6.42265 70.1962 6.35434 70.1627 6.28419C70.129 6.21403 70.0989 6.14236 70.0723 6.06919C70.0435 5.99355 70.0184 5.91665 69.9971 5.83849C69.9758 5.76033 69.9585 5.6813 69.9451 5.6014C69.9316 5.5215 69.9221 5.44112 69.9167 5.36028C69.9111 5.27942 69.9095 5.19849 69.9121 5.1175C69.9145 5.0365 69.921 4.95582 69.9314 4.87546C69.9419 4.79511 69.9563 4.71548 69.9747 4.63657C69.9929 4.55765 70.0151 4.47985 70.0411 4.40316C70.0672 4.32648 70.0969 4.25129 70.1304 4.17758C70.4747 3.42288 71.0633 3.03911 71.8083 2.76507Z" fill="#0D1F36"/>
<path d="M71.8073 8.94193C72.7579 8.85827 73.633 9.02538 74.386 9.65113C74.4685 9.71965 74.5475 9.79209 74.6229 9.86846C74.6983 9.94483 74.7699 10.0247 74.8375 10.1082C74.9051 10.1917 74.9684 10.2783 75.0275 10.3681C75.0866 10.4579 75.1412 10.5504 75.1912 10.6456C75.2413 10.7408 75.2867 10.8382 75.3272 10.9379C75.3677 11.0376 75.4032 11.1391 75.4338 11.2423C75.4643 11.3456 75.4897 11.4501 75.51 11.5558C75.5305 11.6616 75.5456 11.7681 75.5555 11.8754C75.5653 11.9837 75.5699 12.0923 75.5692 12.201C75.5684 12.3098 75.5624 12.4183 75.5509 12.5265C75.5395 12.6347 75.5228 12.742 75.5009 12.8485C75.4789 12.9551 75.4518 13.0602 75.4195 13.164C75.3873 13.2678 75.3501 13.3698 75.3078 13.4699C75.2655 13.57 75.2184 13.6678 75.1666 13.7632C75.1148 13.8586 75.0584 13.9512 74.9974 14.041C74.9364 14.1308 74.8712 14.2174 74.8018 14.3007C74.2387 14.9685 73.4478 15.3325 72.5895 15.3985C72.0544 15.5357 71.2176 15.2912 70.7525 15.0298C70.6593 14.9764 70.5689 14.9185 70.4813 14.8562C70.3937 14.7938 70.3093 14.7272 70.2283 14.6564C70.1473 14.5857 70.0699 14.5111 69.9962 14.4326C69.9224 14.3541 69.8527 14.2722 69.787 14.1868C69.7212 14.1014 69.6598 14.013 69.6029 13.9215C69.5458 13.83 69.4934 13.7359 69.4456 13.6392C69.3978 13.5424 69.3547 13.4436 69.3165 13.3426C69.2785 13.2416 69.2454 13.139 69.2173 13.0347C69.1887 12.9326 69.1652 12.8293 69.1468 12.7249C69.1284 12.6204 69.1152 12.5153 69.1072 12.4095C69.0993 12.3038 69.0966 12.1978 69.099 12.0918C69.1016 11.9858 69.1093 11.8801 69.1222 11.7748C69.1352 11.6695 69.1533 11.5652 69.1766 11.4617C69.1998 11.3583 69.2282 11.2563 69.2616 11.1556C69.2949 11.055 69.3332 10.9563 69.3762 10.8596C69.4194 10.7628 69.4672 10.6684 69.5197 10.5765C70.0336 9.66621 70.8386 9.21125 71.8073 8.94193Z" fill="#FAF7F7"/>
<path d="M71.9627 9.73195C72.6255 9.66029 73.2945 9.82106 73.8256 10.2352C73.889 10.285 73.9498 10.3377 74.0079 10.3935C74.0661 10.4493 74.1214 10.5078 74.1738 10.5691C74.2263 10.6303 74.2756 10.6941 74.3218 10.7602C74.3681 10.8264 74.411 10.8947 74.4505 10.9651C74.49 11.0355 74.5261 11.1078 74.5585 11.1818C74.591 11.2558 74.6198 11.3312 74.6449 11.408C74.6699 11.4849 74.6912 11.5628 74.7087 11.6418C74.7261 11.7208 74.7397 11.8004 74.7494 11.8807C74.7592 11.9617 74.7649 12.0429 74.7666 12.1245C74.7683 12.206 74.766 12.2874 74.7597 12.3687C74.7535 12.45 74.7432 12.5308 74.729 12.6111C74.7148 12.6914 74.6966 12.7708 74.6746 12.8493C74.6526 12.9278 74.6268 13.005 74.5972 13.0809C74.5675 13.1568 74.5343 13.231 74.4974 13.3036C74.4605 13.3762 74.4202 13.4468 74.3764 13.5154C74.3326 13.5839 74.2855 13.6502 74.2352 13.714C73.8012 14.2579 73.196 14.5364 72.5184 14.6145C72.0959 14.6953 71.4958 14.5269 71.1252 14.3193C70.5788 14.0133 70.1824 13.4626 70.0125 12.862C69.9897 12.7841 69.9709 12.7052 69.9561 12.6254C69.9411 12.5456 69.9302 12.4652 69.9232 12.3843C69.9162 12.3034 69.9132 12.2224 69.9143 12.1412C69.9154 12.06 69.9204 11.979 69.9294 11.8983C69.9386 11.8177 69.9516 11.7376 69.9685 11.6582C69.9855 11.5788 70.0064 11.5005 70.0311 11.4232C70.0559 11.346 70.0844 11.2701 70.1167 11.1957C70.1489 11.1212 70.1847 11.0486 70.2242 10.9778C70.6164 10.2804 71.2204 9.93977 71.9627 9.73195Z" fill="#0D1F36"/>
<path d="M71.9722 10.4502C71.9932 10.4474 72.0141 10.4448 72.035 10.4424C72.5376 10.3828 73.0216 10.497 73.4198 10.8208C73.4644 10.8576 73.5069 10.8966 73.5476 10.9378C73.5882 10.9789 73.6267 11.0219 73.6631 11.0669C73.6995 11.1119 73.7335 11.1585 73.7653 11.2069C73.7972 11.2553 73.8266 11.3051 73.8535 11.3564C73.8803 11.4077 73.9046 11.4603 73.9263 11.514C73.948 11.5678 73.9671 11.6225 73.9834 11.6781C73.9997 11.7337 74.0133 11.7901 74.0241 11.847C74.0349 11.904 74.0429 11.9614 74.048 12.0192C74.0896 12.4691 73.9624 12.9409 73.6733 13.2902C73.3523 13.6781 72.9351 13.8466 72.4473 13.8917C72.1796 13.9253 71.8768 13.8658 71.629 13.7642C71.2141 13.5942 70.9221 13.3024 70.753 12.8846C70.7311 12.83 70.7118 12.7744 70.6953 12.7179C70.6787 12.6614 70.6649 12.6042 70.6539 12.5463C70.6429 12.4884 70.6348 12.4302 70.6294 12.3715C70.6242 12.3128 70.6217 12.254 70.6221 12.1951C70.6225 12.1362 70.6257 12.0774 70.6318 12.0188C70.638 11.9602 70.6469 11.9021 70.6586 11.8443C70.6704 11.7866 70.6849 11.7296 70.7022 11.6733C70.7196 11.617 70.7396 11.5618 70.7623 11.5075C71.0106 10.9207 71.4041 10.6763 71.9722 10.4502Z" fill="#FAF7F7"/>
<path d="M110.141 8.72651C110.803 8.65105 111.512 8.69772 112.179 8.69842L116.398 8.71842C120.819 8.69241 125.24 8.69001 129.661 8.71123C129.705 8.72844 129.748 8.74734 129.789 8.77114C130.102 8.95499 130.9 9.72578 130.986 10.0664C131.377 9.85293 132.191 9.10318 132.387 8.71505C134.033 8.62094 136.458 8.63107 138.104 8.72031C138.149 8.73567 138.192 8.75242 138.235 8.77289C138.61 8.95251 140.723 10.6575 140.831 10.9752C140.863 11.0338 140.891 11.0946 140.906 11.1595C141.024 11.647 141.034 14.6581 140.811 15.0136C140.235 15.0039 139.658 14.9831 139.082 14.9663C139.539 15.182 140.616 15.8977 140.822 16.3359C140.858 16.3861 140.89 16.4396 140.905 16.5002C141.034 17.0176 140.99 21.8987 140.928 22.6248C140.919 22.7322 140.883 22.827 140.83 22.9206C140.809 22.9876 140.77 23.0645 140.719 23.1134C140.159 23.6502 138.842 24.8301 138.136 25.0853C137.948 25.1532 137.696 25.1278 137.499 25.1206C135.92 25.1325 134.341 25.1266 132.762 25.1028C132.644 24.834 130.377 23.0799 130.014 22.8555C130.196 22.5735 130.14 20.4375 130.062 20.0306L130.036 20.0433C129.874 20.1209 129.738 20.2486 129.559 20.2942C129.044 20.4255 127.406 20.3168 126.782 20.3139C126.816 20.3645 126.846 20.4198 126.865 20.478C127.009 20.9136 126.964 24.7926 126.794 25.1409C125.825 24.9992 124.675 25.1098 123.688 25.1103C121.487 25.1053 119.286 25.1127 117.085 25.1324C117.105 25.084 117.119 25.0349 117.119 24.9821C117.119 24.5652 116.889 24.2347 116.615 23.9469C116.649 24.0037 116.679 24.0624 116.705 24.123C116.851 24.4635 116.801 24.7954 116.669 25.1285C114.891 25.0458 113.058 25.0884 111.278 25.1398C111.307 25.0886 111.33 25.0352 111.349 24.9795C111.481 24.5875 111.43 13.5067 111.387 12.4136C111.383 12.2981 111.353 12.2015 111.3 12.0987C111.216 11.8339 110.366 11.3361 110.112 11.191C110.289 10.7132 110.221 9.24137 110.141 8.72651ZM110.808 9.37292C110.894 9.67699 110.946 10.5435 110.795 10.8187C110.777 10.8504 110.779 10.8464 110.762 10.8721C111.01 10.9772 111.836 11.4433 111.931 11.6933C111.935 11.7023 111.938 11.7116 111.941 11.7207C112.005 11.8284 112.032 11.9202 112.037 12.0447C112.141 15.0151 112.043 18.0247 112.043 21.0004C112.043 21.6196 112.15 23.6808 112.031 24.1769C112.015 24.2422 111.987 24.2989 111.958 24.3585C111.953 24.3677 111.949 24.3772 111.945 24.3866C111.937 24.4032 111.927 24.4192 111.918 24.435C113.282 24.4319 114.65 24.4028 116.013 24.4365C116.247 24.0511 116.2 21.2995 116.085 20.792C116.051 20.6443 115.964 20.4951 115.891 20.3624C116.011 20.4651 116.146 20.5797 116.225 20.718C116.472 21.1454 117.587 23.8844 117.607 24.3064C117.61 24.3679 117.595 24.4254 117.572 24.4814C120.421 24.4771 123.299 24.3901 126.145 24.4823C126.33 24.0994 126.317 20.1849 126.18 19.7815C126.162 19.7292 126.14 19.679 126.113 19.6308C127.189 19.6204 128.264 19.62 129.34 19.6295C129.881 19.3367 131.16 18.0131 131.425 17.4918C131.671 17.6797 132.758 18.5109 132.819 18.7305C133.897 18.7266 134.974 18.7144 136.052 18.6939C136.198 19.042 136.235 20.0777 136.097 20.4289C136.08 20.4715 136.056 20.5115 136.031 20.5492C135.61 20.5468 135.185 20.5298 134.765 20.5512C134.938 20.2486 134.947 19.7228 134.863 19.3869C134.846 19.3177 134.82 19.255 134.786 19.1926C133.439 19.2254 132.06 19.2704 130.714 19.2066C130.873 19.647 130.861 22.1147 130.688 22.5496C131.117 22.7722 132.795 24.079 133.03 24.4495C133.33 24.4641 133.633 24.4856 133.934 24.478C135.239 24.4779 136.609 24.5687 137.906 24.4665C138.23 24.3071 140.076 22.873 140.157 22.623C140.159 22.6173 140.16 22.6114 140.161 22.6055C140.298 22.313 140.315 17.0559 140.179 16.6899C140.176 16.6811 140.172 16.6723 140.169 16.6635C139.959 16.2951 138.302 15.0198 137.925 14.8853C136.864 14.8587 135.803 14.8556 134.742 14.8758C134.957 14.5555 134.926 13.7915 134.861 13.4226C134.846 13.3362 134.808 13.2606 134.76 13.1885C135.183 13.1791 135.609 13.1782 136.031 13.1592C136.201 13.4317 136.186 13.9129 136.12 14.2209C136.108 14.2773 136.086 14.3193 136.05 14.364L140.13 14.3654C140.3 14.0231 140.331 11.8206 140.219 11.4467C140.205 11.3999 140.184 11.3547 140.163 11.3112C140.073 11.0274 138.342 9.63047 138.006 9.45767C137.943 9.42462 137.877 9.39835 137.808 9.37886C136.105 9.35314 134.401 9.39373 132.697 9.3708C132.477 9.72042 131.332 10.8695 130.973 11.0153C130.813 10.5953 129.796 9.57763 129.361 9.37971C129.348 9.37416 129.336 9.36889 129.323 9.36389L121.477 9.37592C120.089 9.37634 118.659 9.44327 117.274 9.34461C117.324 9.72475 116.437 11.8142 116.177 12.1639C116.091 12.2787 115.975 12.3819 115.871 12.4807C116.208 11.9003 116.278 10.1827 116.102 9.54101C116.083 9.47397 116.056 9.40778 116.024 9.34591C114.294 9.4434 112.529 9.24698 110.808 9.37292Z" fill="white"/>
<path d="M121.073 11.0248C121.096 11.0276 121.119 11.0316 121.141 11.0376C121.418 11.111 121.922 11.4821 122.056 11.7287C122.088 11.7728 122.114 11.8198 122.128 11.8728C122.253 12.3254 122.208 21.4487 122.152 22.5747C122.147 22.672 122.119 22.7506 122.074 22.8363C121.918 22.6935 121.7 22.6115 121.528 22.4871C121.181 22.2375 121.015 21.9702 120.749 21.6545C120.758 21.6234 120.765 21.5905 120.766 21.5579C120.771 21.2949 118.69 16.5804 118.453 16.3411C118.803 16.0341 120.731 11.7424 121.073 11.0248ZM121.28 12.0302C121.197 12.569 119.634 15.7517 119.248 16.3065C119.496 16.7983 120.814 19.5772 120.743 19.9314C120.952 20.1359 121.437 21.0776 121.421 21.3624C121.42 21.392 121.415 21.42 121.407 21.4485C121.543 20.8729 121.521 12.2161 121.431 12.0812C121.407 12.0452 121.323 12.0396 121.28 12.0302Z" fill="white"/>
<path d="M132.854 10.0193C133.746 9.82517 136.682 9.94182 137.717 9.99098C137.728 9.99488 137.739 9.99859 137.749 10.0027C138.103 10.1359 139.463 11.202 139.619 11.5522C139.647 11.6005 139.671 11.6505 139.686 11.7042C139.802 12.1175 139.805 13.4433 139.605 13.7946C138.647 13.6742 137.561 13.763 136.592 13.7825C136.615 13.7406 136.636 13.6982 136.652 13.6525C136.768 13.3219 136.756 12.9339 136.606 12.619L132.022 12.5839C132.72 12.7483 133.594 12.9835 134.23 13.3038C134.26 13.3696 134.287 13.4381 134.3 13.5097C134.373 13.9285 134.435 15.0853 134.209 15.4213C135.39 15.4231 136.571 15.4354 137.752 15.4582C137.775 15.4665 137.798 15.4755 137.821 15.4854C138.176 15.6382 139.478 16.6085 139.613 16.9565C139.639 16.9945 139.66 17.0333 139.675 17.0771C139.795 17.4377 139.763 22.0278 139.621 22.321C139.619 22.333 139.617 22.345 139.614 22.3567C139.564 22.567 139.151 22.7773 138.981 22.8757C138.977 22.8884 138.971 22.9084 138.964 22.9208C138.792 23.2245 138.014 23.7611 137.684 23.8792C136.234 23.9883 134.692 23.8971 133.235 23.8763C133.095 23.5897 131.575 22.4594 131.23 22.2487C131.259 22.1987 131.284 22.1472 131.3 22.0913C131.421 21.6632 131.414 20.1832 131.198 19.8037C132.207 19.8043 133.218 19.8186 134.226 19.7724C134.241 19.8087 134.255 19.8449 134.265 19.8828C134.361 20.2222 134.396 20.8048 134.218 21.115L136.619 21.1056C136.648 21.0585 136.676 21.0057 136.687 20.9513C136.779 20.502 136.809 18.4825 136.599 18.1436C135.412 18.1486 134.225 18.1453 133.038 18.1335C132.812 17.7834 131.621 16.8911 131.238 16.6488C131.395 16.3466 131.386 11.9603 131.259 11.5427C131.661 11.3045 132.555 10.4037 132.854 10.0193Z" fill="white"/>
<path d="M117.645 9.96522C118.722 9.96711 119.819 10.0083 120.894 9.93492C120.841 10.4517 118.12 16.0647 117.799 16.3294C118.308 16.7668 120.23 21.6868 120.722 22.7084C121.069 22.8713 121.585 23.0461 121.767 23.4026C121.749 23.5807 121.736 23.6192 121.634 23.7658C121.107 24.0824 119.936 23.8903 119.32 23.8887L117.97 23.8962C117.977 23.8471 117.982 23.7987 117.982 23.749C117.98 23.4019 115.997 18.328 115.703 17.7378C115.625 17.5794 115.501 17.443 115.375 17.3205C115.42 17.3995 115.462 17.4811 115.493 17.5666C115.669 18.049 115.662 23.5027 115.466 23.9142C114.491 23.8622 113.495 23.8715 112.52 23.9137C112.527 23.8949 112.534 23.876 112.54 23.8566C112.543 23.8454 112.546 23.8342 112.55 23.823C112.558 23.7952 112.567 23.768 112.575 23.7398C112.722 23.1892 112.678 12.9554 112.619 11.7732C112.614 11.6546 112.582 11.5583 112.523 11.4549C112.34 11.0158 111.402 10.7941 111.306 10.27C111.291 10.1864 111.326 10.1637 111.373 10.0985C111.834 9.82721 114.659 9.97677 115.371 9.94757C115.451 9.96047 115.486 9.99772 115.544 10.0521C115.666 10.8057 115.64 14.0601 115.541 14.8166C115.516 15.008 115.424 15.1921 115.334 15.3605C115.392 15.3067 115.447 15.2504 115.5 15.1916C115.814 14.8391 117.661 10.3298 117.645 9.96522Z" fill="white"/>
<path d="M121.451 10.0192C122.287 9.83693 123.386 9.96212 124.253 9.96166C125.884 9.96079 127.542 9.90132 129.17 9.99104C129.231 10.0158 129.292 10.0437 129.347 10.0807C129.672 10.2975 130.617 11.1738 130.681 11.511C130.718 11.5612 130.745 11.6146 130.759 11.6758C130.866 12.1502 130.851 17.2007 130.68 17.4748C130.677 17.5261 130.669 17.5772 130.649 17.6249C130.51 17.9504 129.381 18.9394 129.057 19.0667C128.03 19.1753 126.915 19.0897 125.879 19.0884L125.737 19.098C125.396 19.6679 125.972 23.2386 125.56 23.9152C124.585 23.8304 123.56 23.8808 122.582 23.9116C122.602 23.8808 122.62 23.8505 122.637 23.8177C122.753 23.5801 122.8 11.9364 122.634 11.4702C122.469 11.1642 122.05 10.9707 121.782 10.7561C121.52 10.547 121.487 10.3391 121.451 10.0192ZM123.71 12.5331C124.249 12.9168 125.079 12.9274 125.574 13.3275C125.748 13.6793 125.758 15.9588 125.628 16.3305C125.612 16.3765 125.591 16.4194 125.572 16.4636C125.568 16.4716 125.565 16.4799 125.562 16.4879C125.559 16.4928 125.557 16.4975 125.555 16.5022C126.202 16.4875 127.141 16.6134 127.742 16.4271C127.741 16.3504 127.74 16.3337 127.702 16.268C127.831 15.8488 127.9 12.9505 127.715 12.583C127.709 12.5714 127.703 12.5601 127.696 12.5487C126.389 12.5384 125.01 12.4383 123.71 12.5331Z" fill="white"/>
<path d="M126.286 13.1078L127.129 13.079C127.357 13.5745 127.236 14.662 127.222 15.2235C127.214 15.5324 127.227 15.6906 126.999 15.9089L126.137 15.9311C126.473 15.273 126.107 13.9013 126.286 13.1078Z" fill="white"/>
<path d="M0 33.4501C0.90141 33.3204 1.8909 33.3928 2.80285 33.3954L7.68778 33.4052L24.9052 33.4024L66.8684 33.4028L80.8043 33.4026C83.2899 33.4024 85.7819 33.4405 88.2672 33.3927C88.4645 33.7146 88.4767 38.2419 88.3568 38.7723C88.3421 38.8378 88.3088 38.8941 88.2723 38.9492C88.2681 38.9557 88.2643 38.9623 88.2599 38.9686C88.2495 38.9844 88.2493 38.9836 88.2355 39H87.9407H49.3277H0.285156H0.147907H0V33.5514V33.4501ZM0.285156 39H49.3277L49.3283 38.9378L11.1518 38.9262L3.58746 38.9143C2.82463 38.915 0.936928 38.8144 0.285156 39ZM49.3283 38.9378L49.3277 39H87.9407C87.9077 38.9807 87.8643 38.9465 87.829 38.9347C87.5088 38.8265 80.7145 38.9171 79.7667 38.9165L60.2416 38.9303C56.6062 38.931 52.9628 38.8714 49.3283 38.9378ZM0 33.5514V39H0.147907C-0.270974 37.8355 0.417754 34.8401 0 33.5514Z" fill="#0D1F36"/>
<path d="M0 33.5514C0.417753 34.84 -0.270974 37.8355 0.147907 39H0V33.5514Z" fill="#0D1F36" fill-opacity="0.564706"/>
<path d="M53.2724 34.7979C53.4551 34.7672 53.6436 34.7641 53.8283 34.7538L53.9001 34.8423C53.949 35.3997 54.0355 37.0673 53.8968 37.5502C53.8791 37.6116 53.7882 37.7152 53.7502 37.773C53.6243 37.7853 53.5416 37.7816 53.4225 37.7375C53.0343 37.0643 53.5418 35.5772 53.2724 34.7979Z" fill="#FAF7F7"/>
<path d="M60.4114 34.7982C60.6152 34.7741 60.8631 34.7134 61.0551 34.8018C61.1454 35.2776 61.181 37.4069 60.9675 37.7406C60.8311 37.7977 60.7532 37.7905 60.6107 37.7579C60.2104 37.2152 60.6926 35.5228 60.4114 34.7982Z" fill="#FAF7F7"/>
<path d="M80.7313 34.7984C80.9399 34.7612 81.177 34.7286 81.3677 34.8206C81.4473 35.362 81.5086 37.3328 81.2644 37.7432C81.1235 37.7876 81.0383 37.7844 80.8949 37.7515C80.5142 37.2349 80.9268 35.5165 80.7313 34.7984Z" fill="#FAF7F7"/>
<path d="M20.0209 34.7497C20.2163 34.7451 20.3826 34.7438 20.5718 34.8055C20.7052 35.5753 20.6138 36.4723 20.6107 37.2571C20.9848 37.2713 21.7212 37.1111 22.0231 37.344C22.1382 37.4328 22.1278 37.6377 22.1468 37.7783L20.0161 37.7822C20.0076 36.7713 20.0092 35.7605 20.0209 34.7497Z" fill="#FAF7F7"/>
<path d="M22.4716 37.8297C22.4782 37.1819 22.332 35.3916 22.5254 34.9225C22.6789 34.779 22.7023 34.7731 22.9105 34.7439L23.0122 34.8282C23.2051 35.3294 23.0777 36.6251 23.078 37.2167L23.0985 37.2209C23.5761 37.3162 24.2232 37.0868 24.5769 37.4634L24.5729 37.6766C24.0086 37.9559 23.0932 37.6888 22.4716 37.8297Z" fill="#FAF7F7"/>
<path d="M54.2698 34.7981C54.8786 34.6942 56.1911 34.6383 56.7058 34.9917L56.604 35.1411C56.328 35.3072 55.9829 35.2838 55.671 35.2908C55.6828 35.3303 55.6928 35.3702 55.7009 35.4106C55.7803 35.8171 55.8422 36.7472 55.615 37.0934C55.6341 37.1245 55.6528 37.1562 55.6681 37.1895C55.7551 37.3788 55.7519 37.5017 55.6831 37.6851C55.5221 37.7918 55.4971 37.7975 55.3042 37.7967C55.2688 37.7706 55.1934 37.7283 55.1675 37.6959C55.0585 37.5589 55.1509 35.6681 55.0865 35.2976C54.9501 35.2437 54.6185 35.2766 54.464 35.2746C54.3085 35.1254 54.3121 35.004 54.2698 34.7981Z" fill="#FAF7F7"/>
<path d="M78.0879 34.7983C78.4841 34.7277 79.9308 34.6723 80.2781 34.8029C80.4029 34.85 80.4089 34.8868 80.4637 35.0009L80.3918 35.1907C80.1689 35.3515 79.9592 35.2143 79.7096 35.273C79.4349 35.3377 79.6351 36.628 79.4322 36.9536C79.4665 37.0112 79.5008 37.0721 79.5236 37.1352C79.6003 37.3475 79.5581 37.5009 79.4643 37.6933C79.3241 37.7908 79.2836 37.8322 79.1137 37.8367C78.7821 37.5692 78.9703 35.8109 78.8976 35.2965C78.7642 35.2424 78.4321 35.275 78.2779 35.2731C78.1319 35.1258 78.1308 34.9968 78.0879 34.7983Z" fill="#FAF7F7"/>
<path d="M57.8953 35.978C58.2517 35.6677 58.3565 34.9296 58.7419 34.7427C58.8854 34.6732 58.9139 34.6855 59.0562 34.737C59.0881 34.8104 59.1234 34.8673 59.1193 34.9491C59.1027 35.2794 58.7337 35.8708 58.4943 36.0941C58.5058 36.1596 58.3525 37.2209 58.3236 37.3508C58.2746 37.5717 58.1817 37.6832 57.9986 37.8013C57.9462 37.7937 57.8163 37.7939 57.796 37.7479C57.6624 37.4461 57.7424 36.9576 57.696 36.6212C57.6345 36.1753 57.0653 35.1782 56.7835 34.8145L56.7708 34.7981C56.9095 34.7738 57.0622 34.7376 57.2025 34.7578C57.3765 34.7828 57.5352 34.9368 57.6371 35.0766C57.7931 35.2906 57.9322 35.712 57.8953 35.978Z" fill="#FAF7F7"/>
<path d="M49.3282 38.9379C52.9627 38.8715 56.6061 38.9311 60.2415 38.9303L79.7666 38.9165C80.7143 38.9171 87.5086 38.8266 87.8289 38.9347C87.8642 38.9465 87.9076 38.9807 87.9406 39.0001H49.3276L49.3282 38.9379Z" fill="#0D1F36" fill-opacity="0.705882"/>
<path d="M1.18946 34.7596C1.66217 34.753 2.74542 34.6038 3.14427 34.8445C3.26732 34.9188 3.26299 34.9784 3.29287 35.1092C3.03552 35.511 2.12103 35.0683 1.7883 35.3789C1.77033 35.574 1.77176 35.708 1.83739 35.8967C2.10676 36.0544 2.33483 35.9251 2.61616 36.0075C2.78734 36.0577 2.81267 36.1813 2.88788 36.3285L2.73593 36.479C2.45871 36.5772 2.07607 36.5235 1.78218 36.5163C1.78839 36.8447 1.87439 37.5069 1.67062 37.761C1.51752 37.7799 1.40244 37.7652 1.25317 37.7275C1.03011 37.1182 1.18127 35.4615 1.18946 34.7596Z" fill="#FAF7F7"/>
<path d="M15.4665 34.782C15.7802 34.7316 16.1175 34.7018 16.4221 34.8145C16.6572 34.9017 16.8716 35.1074 16.9722 35.339C17.045 35.5064 17.0381 35.5804 16.9725 35.7397C16.8054 35.8315 16.6653 35.7879 16.4907 35.7491C16.3761 35.6102 16.2912 35.4636 16.2038 35.307C16.034 35.2321 15.9418 35.2021 15.7531 35.2673C15.606 35.3182 15.535 35.4257 15.4767 35.5629C15.3343 35.8983 15.3607 36.7198 15.4973 37.0556C15.5992 37.1786 15.6964 37.2745 15.8621 37.2925C16.0646 37.3144 16.159 37.2408 16.2999 37.1179L16.4766 36.8116C16.6583 36.7285 16.6656 36.7171 16.8557 36.7713C16.9381 36.9261 16.9677 37.0114 16.9362 37.1952C16.9023 37.3939 16.7624 37.5664 16.5957 37.6702C16.3068 37.8499 15.8886 37.8405 15.5687 37.766C15.3196 37.7081 15.1055 37.5396 14.975 37.3197C14.6804 36.8232 14.728 36.082 14.8605 35.5434C14.9572 35.1501 15.1296 34.9864 15.4665 34.782Z" fill="#FAF7F7"/>
<path d="M30.9194 34.7752C31.0258 34.7589 31.1326 34.7468 31.2399 34.7391C31.6496 34.7117 31.8706 34.7827 32.1774 35.0555C32.3683 35.2255 32.4745 35.3826 32.4898 35.6387C32.3738 35.7721 32.3396 35.7912 32.173 35.8501C31.9464 35.8096 31.7212 35.4225 31.5224 35.2697C31.347 35.2432 31.2498 35.2237 31.087 35.3199C30.97 35.3892 30.9004 35.5336 30.8641 35.66C30.7521 36.0511 30.8046 36.7414 31.0121 37.0953C31.1101 37.2623 31.2175 37.2828 31.3883 37.3321C31.5501 37.2783 31.6427 37.2346 31.7514 37.1003C31.8024 36.9811 31.864 36.8731 31.931 36.7623C32.1181 36.7198 32.1632 36.7314 32.3486 36.7877C32.4291 36.9185 32.4495 36.9632 32.4097 37.1218C32.3568 37.3337 32.1274 37.5388 31.9495 37.6516C31.698 37.8107 31.3801 37.886 31.0875 37.8177C30.7871 37.7476 30.5283 37.5278 30.3717 37.2645C30.0876 36.7866 30.1412 36.0813 30.2768 35.5657C30.3842 35.1578 30.5652 34.9843 30.9194 34.7752Z" fill="#FAF7F7"/>
<path d="M73.7527 34.7983C74.2207 34.7104 74.6025 34.7288 75.029 34.9633C75.1877 35.0505 75.3297 35.1955 75.375 35.3763C75.4192 35.5533 75.3841 35.6822 75.2991 35.8331C74.9238 35.8879 74.5873 35.3022 74.1907 35.2369C74.057 35.215 74.0176 35.2497 73.9137 35.3224C73.8179 35.4974 73.7891 35.6672 73.7715 35.8636C73.7332 36.2972 73.7296 36.878 74.0225 37.229C74.2167 37.3184 74.244 37.3241 74.4545 37.2901C74.6026 37.1617 74.632 37.155 74.6559 36.9595C74.7497 36.8327 74.8246 36.7803 74.9697 36.7211C75.1472 36.731 75.1691 36.7242 75.2971 36.8493C75.3124 36.9236 75.3255 37.004 75.3184 37.08C75.2987 37.2906 75.1582 37.4933 74.9903 37.6153C74.7246 37.8087 74.3541 37.8432 74.0384 37.7952C73.7677 37.754 73.5266 37.6173 73.3638 37.3936C73.0585 36.9746 73.0618 36.3487 73.1352 35.8587C73.2116 35.3471 73.339 35.1066 73.7527 34.7983Z" fill="#FAF7F7"/>
<path d="M13.366 35.8267C13.5093 35.5411 13.6803 35.0844 13.9413 34.8965C14.0862 34.7921 14.1952 34.7402 14.3714 34.7702L14.4313 34.9297C14.3549 35.4085 13.9838 35.8588 13.7306 36.2649L14.5961 37.7463C14.413 37.784 14.2651 37.7949 14.0795 37.77C13.7269 37.5596 13.5513 37.0929 13.3633 36.7378C13.2179 37.0035 12.9735 37.6177 12.685 37.747C12.5331 37.8151 12.4554 37.7941 12.3085 37.7421C12.2238 37.3144 12.7594 36.6523 12.9913 36.282C12.6981 35.7739 12.41 35.2628 12.127 34.7488C12.2759 34.7429 12.4693 34.7216 12.6125 34.7635C12.9776 34.8708 13.2082 35.5102 13.366 35.8267Z" fill="#FAF7F7"/>
<path d="M0.285156 39C0.936928 38.8144 2.82463 38.915 3.58746 38.9143L11.1518 38.9262L49.3283 38.9378L49.3277 39H0.285156Z" fill="#0D1F36" fill-opacity="0.721569"/>
<path d="M70.4509 34.7981C70.6373 34.767 70.8101 34.7635 70.9979 34.7685C71.4167 35.2983 70.7533 36.5483 71.2258 37.1361C71.3023 37.2312 71.3917 37.2871 71.516 37.2967C71.7063 37.3114 71.8379 37.2435 71.9785 37.1284C72.2706 36.5233 72.0726 35.7691 72.1029 35.1193C72.1117 34.9317 72.1987 34.8599 72.3256 34.7429C72.5073 34.7232 72.5172 34.7256 72.6721 34.8233C72.7305 35.0448 72.6853 35.096 72.6004 35.3005C72.6351 35.3557 72.6665 35.4166 72.6873 35.4786C72.8388 35.9323 72.7944 36.8316 72.5752 37.2575C72.4342 37.5316 72.2396 37.6718 71.9513 37.7629C71.6627 37.8537 71.3111 37.9132 71.0338 37.7594C70.1582 37.2732 70.6712 35.6131 70.4557 34.8152L70.4509 34.7981Z" fill="#FAF7F7"/>
<path d="M50.5605 34.7979C50.7414 34.7635 50.9144 34.7096 51.084 34.8077C51.4296 35.3067 51.1219 36.1706 51.181 36.7512C51.2006 36.9416 51.2577 37.0759 51.4075 37.1994C51.5999 37.2726 51.7254 37.2783 51.9277 37.2428C52.5826 36.7656 52.0278 35.6362 52.226 34.9782C52.2695 34.834 52.3536 34.8054 52.4741 34.7335C52.6425 34.7355 52.666 34.7385 52.8007 34.8421C52.8381 35.0442 52.79 35.1162 52.7146 35.2996C52.717 35.304 52.7195 35.3084 52.7217 35.313C52.7254 35.3205 52.7286 35.3283 52.7325 35.3358C52.7599 35.3892 52.7878 35.4394 52.8077 35.4966C52.9382 35.8732 52.8734 36.9628 52.6976 37.3013C52.5476 37.5903 52.1996 37.7144 51.9081 37.8072C51.6674 37.8837 51.3944 37.9137 51.1652 37.7851C50.2804 37.2888 50.783 35.6219 50.5655 34.815L50.5605 34.7979Z" fill="#FAF7F7"/>
<path d="M65.3131 34.7981C65.3581 34.7902 65.4033 34.7833 65.4486 34.7775C65.9315 34.7147 67.0125 34.6128 67.401 34.9132C67.4549 35.0536 67.4644 35.0751 67.4113 35.2157C67.0643 35.3588 66.6274 35.2322 66.2577 35.2674C66.0651 35.2857 66.0589 35.2935 65.9407 35.4366C65.9089 35.5994 65.9104 35.6943 65.977 35.8481C66.0823 36.091 66.655 35.9541 66.903 36.0488C66.9952 36.2072 66.9804 36.2328 66.9497 36.4134C66.7373 36.5426 66.5161 36.4844 66.2736 36.5089C66.0376 36.5328 66.0093 36.5566 65.86 36.737L65.9766 37.1254C66.3608 37.435 66.913 37.2345 67.3631 37.2847C67.4855 37.4368 67.4556 37.4808 67.4384 37.676C67.0853 37.9284 65.7122 37.7862 65.2417 37.7838C65.4735 37.4177 65.4193 35.3008 65.3131 34.7981Z" fill="#FAF7F7"/>
<path d="M45.4757 34.7978C45.91 34.7225 47.1178 34.621 47.492 34.8434C47.6203 34.9196 47.619 34.974 47.6531 35.1092C47.4115 35.4242 46.6225 35.2157 46.227 35.3116C46.1039 35.4365 46.0447 35.5237 46.0066 35.6968C46.2081 36.0625 46.755 35.96 47.1187 36.0971C47.137 36.1578 47.1574 36.2237 47.1479 36.2875C47.0833 36.7272 46.4386 36.3712 46.0495 36.6644C46.1095 36.8296 46.1305 37.0235 46.1645 37.1966C46.5503 37.436 47.1456 37.1227 47.5785 37.3169C47.6781 37.4713 47.6664 37.498 47.6462 37.6806C47.2877 37.9227 45.8872 37.7849 45.4167 37.7833C45.4193 37.7789 45.4219 37.7745 45.424 37.7699C45.4279 37.7623 45.431 37.7544 45.4348 37.7469C45.6399 37.3376 45.6182 35.2992 45.4757 34.7978Z" fill="#FAF7F7"/>
<path d="M32.9368 34.7592C33.3934 34.7581 34.6654 34.6442 35.0054 34.8344C35.0266 35.0022 35.0359 35.0568 34.9715 35.2125C34.6765 35.4095 34.1977 35.2075 33.8626 35.2513C33.6757 35.2757 33.6332 35.3364 33.529 35.4775C33.4992 35.6602 33.4934 35.7607 33.5848 35.9246C33.8166 36.0741 34.1372 35.9753 34.4053 36.0103C34.4752 36.0193 34.5094 36.0944 34.5515 36.1497C34.5429 36.323 34.5475 36.3716 34.4459 36.5112C34.1403 36.5282 33.8325 36.5215 33.5264 36.5217C33.5125 36.7278 33.4642 36.9675 33.5883 37.1453C34.0584 37.4835 34.3944 37.1582 34.8671 37.2537C34.984 37.2773 34.9932 37.3174 35.0538 37.4119C35.0472 37.5558 35.0671 37.6148 34.9702 37.7246C34.3196 37.8457 33.5963 37.7863 32.9346 37.7835L32.9368 34.7592Z" fill="#FAF7F7"/>
<path d="M9.76547 34.7594C10.1947 34.7574 11.5706 34.6229 11.8502 34.8715L11.8529 35.0862C11.5586 35.5284 10.8621 35.0943 10.4064 35.3707C10.331 35.5615 10.3405 35.7046 10.3598 35.9029C10.4515 35.983 10.467 35.9765 10.5849 35.978C10.831 35.9813 11.2532 35.9504 11.4368 36.1406C11.4318 36.2604 11.4326 36.3537 11.3415 36.4445C11.211 36.5746 10.5585 36.5194 10.3564 36.5222C10.3443 36.6993 10.2986 36.9453 10.3912 37.1024C10.6192 37.4889 11.4502 37.1949 11.8174 37.2849C11.9183 37.4335 11.8806 37.5047 11.8563 37.6771C11.5215 37.9166 10.2111 37.7854 9.76538 37.7834L9.76547 34.7594Z" fill="#FAF7F7"/>
<path d="M24.9019 34.8697C25.1249 34.6979 26.3748 34.699 26.7159 34.7496C26.8847 34.7746 26.9344 34.8123 27.0413 34.9384C27.0254 35.1056 27.0384 35.1422 26.917 35.2574C26.5318 35.3013 25.9231 35.174 25.587 35.3263C25.4886 35.4937 25.4359 35.6012 25.4448 35.8004C25.7757 36.1131 26.4093 35.805 26.558 36.2618L26.5004 36.4675C26.1867 36.6111 25.8483 36.4255 25.5443 36.5821C25.5045 36.7749 25.5214 36.9097 25.5652 37.0986C25.6623 37.2129 25.714 37.2842 25.8768 37.2927C26.3049 37.3153 26.6455 37.078 27.0063 37.4189C27.0176 37.556 27.032 37.6928 27.0291 37.8304C26.356 37.718 25.6156 37.7771 24.9329 37.7795C24.9338 36.8111 24.957 35.8368 24.9019 34.8697Z" fill="#FAF7F7"/>
<path d="M17.4697 34.7637C18.1299 34.7545 18.9328 34.6704 19.5747 34.8319C19.6168 34.9609 19.6106 35.0037 19.5789 35.136C19.2566 35.444 18.7401 35.207 18.3529 35.264C18.1915 35.2878 18.1716 35.3419 18.0803 35.4673C18.0535 35.6318 18.0471 35.7383 18.1151 35.8938C18.2291 36.1541 18.7562 35.9028 19.0058 35.999C19.1027 36.1695 19.0878 36.2488 19.0801 36.4379C18.9403 36.5448 18.6757 36.4981 18.5056 36.5067C18.2623 36.519 18.1904 36.5159 18.0247 36.7017L18.0948 37.1086C18.3806 37.4416 19.1208 37.2159 19.5188 37.3057C19.6274 37.456 19.6085 37.4828 19.5878 37.6675C19.2305 37.9162 17.94 37.7841 17.4688 37.7812L17.4697 34.7637Z" fill="#FAF7F7"/>
<path d="M76.4626 34.7983C76.6276 34.7735 76.803 34.7395 76.9696 34.7382C77.0851 34.7371 77.2107 34.7739 77.2913 34.859C77.4435 35.0198 78.2171 37.4178 78.2002 37.7336C78.1763 37.7485 78.1522 37.7629 78.1268 37.775C77.6392 38.0092 77.6018 37.4152 77.2242 37.2859C76.6163 37.2603 76.6429 37.2918 76.2078 37.6578C76.0646 37.7783 75.8726 37.7587 75.7005 37.7379C75.4891 37.1383 76.5203 35.5896 76.4661 34.8348C76.4651 34.8226 76.4637 34.8105 76.4626 34.7983Z" fill="#FAF7F7"/>
<path d="M76.8109 35.66L76.9618 35.7184C77.0305 35.8654 77.0954 36.0142 77.1563 36.1646C77.233 36.3585 77.2857 36.6054 77.2 36.8048L76.916 36.8451C76.7649 36.8411 76.7231 36.858 76.603 36.759C76.5506 36.4045 76.7972 36.0521 76.8103 35.681L76.8109 35.66Z" fill="#0D1F36"/>
<path d="M37.1169 34.7499C37.3478 34.7449 37.6739 34.7067 37.8575 34.8496C38.0221 35.1815 38.8222 37.4392 38.7319 37.7516C38.5709 37.8489 38.5539 37.8721 38.3687 37.8395C38.1419 37.6648 38.1147 37.5229 37.9776 37.2862C37.2509 37.2575 37.195 37.2761 36.6373 37.7354C36.491 37.7621 36.3526 37.8013 36.2126 37.731C36.3534 36.7545 36.8076 35.6918 37.1169 34.7499Z" fill="#FAF7F7"/>
<path d="M37.4429 35.5996C37.455 35.6079 37.4748 35.6198 37.4856 35.6316C37.6703 35.8308 37.8125 36.4992 37.8262 36.7705L37.709 36.8791C37.4973 36.8614 37.3475 36.889 37.19 36.7367C37.1053 36.4267 37.3486 35.9149 37.4429 35.5996Z" fill="#0D1F36"/>
<path d="M84.5225 34.7983C84.73 34.7598 85.0085 34.7042 85.1917 34.8282C85.4634 35.1785 86.2204 36.256 86.183 36.6899C86.2073 36.641 86.2279 36.5915 86.2495 36.5413C86.4517 36.0692 86.2829 35.3685 86.3747 34.8407C86.5028 34.7409 86.5241 34.7144 86.686 34.7122C86.8148 34.8179 86.8895 34.8671 86.9304 35.0396C87.0103 35.3785 87.001 37.3402 86.8471 37.5996C86.8119 37.7341 86.8139 37.7628 86.6971 37.848C85.9471 37.6681 85.6709 36.3141 85.0384 35.854C85.0917 35.9537 85.1437 36.063 85.1687 36.1739C85.2505 36.5365 85.2755 37.4442 85.091 37.7433C84.911 37.8035 84.8811 37.8062 84.6975 37.7604C84.3821 37.4026 84.7265 35.4601 84.5285 34.8174C84.5267 34.8109 84.5245 34.8045 84.5225 34.7983Z" fill="#FAF7F7"/>
<path d="M61.5527 34.7981C61.6544 34.7778 61.769 34.7497 61.8728 34.7517C62.0646 34.7556 62.1515 34.8242 62.2815 34.9603C62.6169 35.3124 63.2286 36.2078 63.2166 36.6841C63.5497 36.1149 63.1215 35.3062 63.5144 34.7968C63.6863 34.7282 63.7075 34.7337 63.8886 34.7778C63.9117 34.827 63.932 34.8774 63.9442 34.9303C64.0185 35.253 64.0324 37.26 63.9384 37.556C63.9201 37.6132 63.85 37.6955 63.8163 37.7488C63.694 37.7669 63.5717 37.8097 63.4558 37.7551C62.9673 37.5246 62.6213 36.2501 62.0918 35.8535C62.1287 35.9451 62.163 36.0448 62.1866 36.1406C62.3081 36.6392 62.305 37.3807 62.0411 37.8272L61.8464 37.8629C61.3177 37.2742 61.7856 35.5805 61.558 34.8152C61.5562 34.8095 61.5544 34.8038 61.5527 34.7981Z" fill="#FAF7F7"/>
<path d="M27.4511 34.7493C27.5908 34.7456 27.7326 34.7596 27.872 34.7683C28.3987 35.0652 28.8573 36.1632 29.1827 36.6837C29.1599 36.1577 29.0031 35.209 29.3057 34.773C29.4822 34.6972 29.4981 34.7105 29.6855 34.7626C29.8873 35.0142 29.7881 37.2981 29.7871 37.7828H29.3683C28.8298 37.5408 28.3242 36.3601 28.0253 35.8483C28.0355 36.2435 28.068 36.6594 28.033 37.0527C28.0074 37.3401 27.9485 37.7266 27.7192 37.9192C27.699 37.9033 27.6802 37.8883 27.6623 37.8697C27.2891 37.4854 27.4429 35.3207 27.4511 34.7493Z" fill="#FAF7F7"/>
<path d="M39.1365 34.7911C39.3097 34.7597 39.4571 34.753 39.6325 34.7712C39.8017 34.8783 39.93 35.0268 40.0528 35.1833C40.3174 35.5205 40.8228 36.2827 40.7726 36.7141C40.7757 36.7076 40.779 36.701 40.7819 36.6944C40.9843 36.2431 40.9038 35.8046 40.9472 35.3215C40.9699 35.0702 40.994 34.8351 41.1985 34.6646C41.3608 34.6826 41.3827 34.708 41.5042 34.8178C41.5774 35.3047 41.6473 37.3583 41.4272 37.706C41.3712 37.7651 41.3097 37.7868 41.2294 37.7989C40.8126 37.862 40.0785 36.1708 39.6393 35.8634C39.8451 36.176 39.8765 36.8184 39.8207 37.1913C39.7791 37.4691 39.6975 37.6968 39.4717 37.8649C38.927 37.4821 39.3011 35.4788 39.1418 34.813L39.1365 34.7911Z" fill="#FAF7F7"/>
<path d="M6.27965 34.7578C6.65279 34.7501 7.06862 34.7105 7.43687 34.7677C7.7727 34.8202 8.26472 34.9885 8.4671 35.2843C8.48794 35.3153 8.50539 35.3481 8.51946 35.3827C8.53352 35.4174 8.54389 35.4532 8.55056 35.49C8.55724 35.5268 8.56007 35.5639 8.55906 35.6013C8.55806 35.6387 8.55325 35.6756 8.54461 35.712C8.46164 36.0632 8.18716 36.3141 7.90097 36.5032C8.05394 36.8312 8.4452 37.3635 8.39492 37.7192C8.20552 37.8261 8.07164 37.7799 7.861 37.7586C7.69919 37.3618 7.45696 36.6138 7.05084 36.4427C6.77385 36.7761 6.99051 37.3949 6.65303 37.7498C6.49807 37.7994 6.48212 37.8068 6.33063 37.7448C6.14128 37.215 6.27995 35.4153 6.27965 34.7578Z" fill="#FAF7F7"/>
<path d="M6.86198 35.2748C7.16966 35.2634 7.54059 35.2119 7.78381 35.4358C7.88926 35.6433 7.83821 35.8048 7.78637 36.0174C7.77989 36.0187 7.77341 36.0202 7.76691 36.0215C7.53143 36.0664 7.15431 36.1471 6.94798 36.006C6.79895 35.8087 6.85332 35.5101 6.86198 35.2748Z" fill="#0D1F36"/>
<path d="M4.26235 34.7662C4.50748 34.7238 4.80607 34.7094 5.04442 34.7892C5.33832 34.8878 5.56069 35.1182 5.69397 35.3956C5.93606 35.8996 5.91175 36.5643 5.72682 37.0814C5.58845 37.4685 5.37356 37.6226 5.01325 37.7915C4.78549 37.8049 4.53668 37.8309 4.31491 37.7648C4.02658 37.6791 3.81734 37.4714 3.6745 37.2109C3.40967 36.7278 3.41911 36.0853 3.56896 35.5687C3.691 35.1478 3.89025 34.9728 4.26235 34.7662Z" fill="#FAF7F7"/>
<path d="M4.41481 35.2472C4.59841 35.2429 4.82538 35.2415 4.97467 35.3649C5.13945 35.501 5.22672 35.7956 5.24734 36.0038C5.28842 36.4186 5.2146 36.9475 4.95038 37.2787C4.75841 37.2871 4.52424 37.3127 4.37023 37.1747C4.18401 37.0081 4.08993 36.7163 4.07781 36.4692C4.05655 36.0358 4.12484 35.5755 4.41481 35.2472Z" fill="#0D1F36"/>
<path d="M82.4719 34.7983C82.8398 34.726 83.2154 34.673 83.5541 34.8763C83.8541 35.0566 84.0419 35.3782 84.127 35.7117C84.2545 36.2124 84.2297 36.8548 83.9591 37.3066C83.8067 37.5612 83.6138 37.6737 83.3327 37.7432C83.13 37.8175 82.929 37.8171 82.7166 37.7945C82.4808 37.7695 82.2813 37.6679 82.1321 37.4796C81.813 37.0771 81.7886 36.4211 81.8453 35.9345C81.9094 35.3831 82.0393 35.1394 82.4719 34.7983Z" fill="#FAF7F7"/>
<path d="M82.6664 35.3011C82.8108 35.2757 82.986 35.231 83.1279 35.2777C83.2579 35.3204 83.3606 35.4139 83.4219 35.538C83.6119 35.9221 83.6127 36.5679 83.4594 36.9696C83.3922 37.1453 83.3104 37.1644 83.1519 37.2423C82.9405 37.2643 82.8699 37.271 82.6706 37.1863C82.5246 37.0314 82.4792 36.8688 82.4512 36.6628C82.3999 36.282 82.4301 35.6133 82.6664 35.3011Z" fill="#0D1F36"/>
<path d="M48.5914 34.7981C48.8378 34.7538 49.0887 34.6992 49.3365 34.7602C49.6435 34.836 49.8913 35.0454 50.0472 35.3197C50.3463 35.8454 50.3481 36.9514 49.9656 37.4367C49.7661 37.6897 49.4006 37.7388 49.3114 38.0857C49.3099 38.0916 49.3086 38.0973 49.3073 38.1032L49.228 38.2114L49.0119 38.2187C48.7867 38.0144 48.5273 37.798 48.3406 37.557C48.0048 37.1232 47.8674 36.537 47.9337 35.9954C48.0021 35.4361 48.156 35.1423 48.5914 34.7981Z" fill="#FAF7F7"/>
<path d="M48.7549 35.3007C48.8898 35.2728 49.0224 35.2417 49.1591 35.2726C49.2938 35.303 49.3843 35.355 49.4584 35.4797C49.6911 35.8703 49.6395 36.489 49.5336 36.9158C49.484 37.1159 49.4004 37.1433 49.2347 37.2408C49.1161 37.3076 48.9989 37.2794 48.8704 37.2627C48.7273 37.1464 48.6782 37.0852 48.6302 36.8996C48.5286 36.5068 48.543 35.6547 48.7549 35.3007Z" fill="#0D1F36"/>
<path d="M41.9542 34.797C42.3786 34.7273 42.9896 34.6813 43.4022 34.7992C43.6989 34.8838 43.9638 35.0606 44.1152 35.3362C44.3963 35.8472 44.3138 36.6648 44.1461 37.2087C44.0886 37.3949 43.9533 37.4823 43.7885 37.5675C43.7736 37.5969 43.7654 37.6118 43.7409 37.6341C43.4396 37.9078 42.3216 37.7904 41.9048 37.7842C41.9177 37.763 41.9298 37.7422 41.9407 37.72C42.113 37.3728 42.0931 35.2212 41.9542 34.797Z" fill="#FAF7F7"/>
<path d="M42.5853 35.3003C42.732 35.2836 42.8866 35.2598 43.034 35.2624C43.2072 35.2655 43.3432 35.3378 43.4563 35.4675C43.6421 35.6809 43.7054 35.9918 43.6804 36.2655C43.6523 36.5709 43.6264 36.962 43.3788 37.1692L43.3118 37.2361C43.1333 37.2619 42.982 37.277 42.8015 37.2507C42.3962 36.8147 42.699 35.8945 42.5891 35.3198L42.5853 35.3003Z" fill="#0D1F36"/>
<path d="M67.814 34.7982C68.1743 34.7366 68.6601 34.7028 69.0218 34.7495C69.3435 34.7911 69.6759 34.9474 69.8768 35.209C70.1591 35.577 70.1741 36.0876 70.1148 36.5273C70.0568 36.9582 70.0551 37.2495 69.6928 37.5275L69.616 37.6349C69.1494 37.91 68.2756 37.7893 67.7368 37.7797C67.7394 37.7753 67.7419 37.7709 67.7441 37.7663C67.7478 37.7589 67.751 37.751 67.7547 37.7437C67.9525 37.3531 67.9388 35.2821 67.814 34.7982Z" fill="#FAF7F7"/>
<path d="M68.4233 35.3011C68.5304 35.2843 68.6381 35.2737 68.7464 35.2691C68.9196 35.2625 69.0937 35.2594 69.2269 35.3894C69.3981 35.5561 69.5087 35.8539 69.5151 36.0927C69.524 36.4332 69.4707 36.9025 69.2395 37.1439L69.1731 37.218C69 37.2728 68.8522 37.2682 68.6739 37.2603C68.2474 36.8654 68.5591 35.881 68.4285 35.3227L68.4233 35.3011Z" fill="#0D1F36"/>
</g>
<defs>
<clipPath id="clip0_94_6198">
<rect width="146" height="39" fill="white"/>
</clipPath>
</defs>
</svg>
