<svg width="48" height="58" viewBox="0 0 48 58" fill="none" xmlns="http://www.w3.org/2000/svg">
<g id="Group 289412">
<path id="Vector" d="M47.2355 25.3686C47.2385 32.0681 45.24 38.6159 41.4964 44.172C37.7528 49.7281 32.4348 54.0392 26.2244 56.5523C24.5534 57.2331 22.6823 57.2331 21.0113 56.5523C14.8009 54.0392 9.48289 49.7281 5.7393 44.172C1.99572 38.6159 -0.00273454 32.0681 0.000278739 25.3686V5.08642C-0.00692039 4.66068 0.125506 4.24429 0.377313 3.90091C0.629121 3.55754 0.986454 3.30608 1.39468 3.18497C7.22413 1.47119 13.2327 0.439625 19.3 0.110964C20.7261 0.110964 22.168 4.70616e-05 23.6099 4.70616e-05C31.1179 -0.00816745 38.5882 1.05903 45.7935 3.16913C46.1964 3.29399 46.549 3.54422 46.7998 3.88338C47.0506 4.22254 47.1866 4.63291 47.1879 5.05473L47.2355 25.3686Z" fill="white"/>
<path id="Vector_2" d="M23.1655 39.4868C23.0622 39.4868 22.9599 39.5074 22.8647 39.5474C22.7694 39.5874 22.6831 39.646 22.6108 39.7198C22.5385 39.7936 22.4816 39.8811 22.4436 39.9771C22.4055 40.0731 22.387 40.1758 22.3891 40.2791C22.3828 40.3953 22.4103 40.5109 22.4683 40.6118L23.0863 41.9112C23.0863 41.9322 23.0946 41.9523 23.1095 41.9672C23.1243 41.982 23.1445 41.9904 23.1655 41.9904C23.1865 41.9904 23.2067 41.982 23.2215 41.9672C23.2364 41.9523 23.2447 41.9322 23.2447 41.9112L23.8627 40.6118C23.913 40.508 23.9401 40.3945 23.9419 40.2791C23.944 40.1758 23.9255 40.0731 23.8874 39.9771C23.8494 39.8811 23.7925 39.7936 23.7202 39.7198C23.6479 39.646 23.5616 39.5874 23.4663 39.5474C23.3711 39.5074 23.2688 39.4868 23.1655 39.4868Z" fill="#062FA8"/>
<path id="Vector_3" d="M19.9811 42.3233C19.9819 42.1865 19.9473 42.0519 19.8807 41.9325C19.814 41.8131 19.7176 41.713 19.6008 41.6419H19.5216C19.5018 41.6282 19.4788 41.6198 19.4548 41.6174C19.4308 41.615 19.4066 41.6187 19.3845 41.6282C19.3623 41.6377 19.3429 41.6527 19.3281 41.6717C19.3133 41.6907 19.3035 41.7132 19.2998 41.737C19.284 41.9744 19.284 42.2126 19.2998 42.45C19.3011 43.5697 19.6138 44.667 20.203 45.6191C20.3592 45.8696 20.534 46.1079 20.7259 46.3322C20.7445 46.3451 20.7666 46.3521 20.7892 46.3521C20.8119 46.3521 20.834 46.3451 20.8526 46.3322C20.8632 46.3218 20.8715 46.3095 20.8773 46.2959C20.883 46.2823 20.8859 46.2677 20.8859 46.2529C20.8859 46.2382 20.883 46.2236 20.8773 46.21C20.8715 46.1964 20.8632 46.184 20.8526 46.1737C20.26 45.0674 19.9498 43.8319 19.9494 42.5768C19.9515 42.4915 19.9622 42.4065 19.9811 42.3233Z" fill="#062FA8"/>
<path id="Vector_4" d="M23.7046 50.056L23.9422 49.6757C23.9818 49.6021 23.9907 49.5159 23.9669 49.4358C23.9432 49.3556 23.8887 49.2881 23.8155 49.2479L23.6412 49.137C23.6238 49.1214 23.6012 49.1128 23.5778 49.1128C23.5544 49.1128 23.5318 49.1214 23.5144 49.137C23.3569 49.4914 23.177 49.8355 22.9757 50.167C22.8865 50.3088 22.7625 50.4255 22.6155 50.5059C22.4685 50.5864 22.3034 50.6279 22.1359 50.6265H21.8507C21.7715 50.6275 21.6945 50.6522 21.6296 50.6974C21.5646 50.7426 21.5147 50.8062 21.4862 50.88V50.9909C21.481 51.0057 21.4794 51.0216 21.4818 51.0371C21.4842 51.0526 21.4903 51.0673 21.4997 51.0798C21.5091 51.0924 21.5215 51.1024 21.5357 51.109C21.55 51.1156 21.5656 51.1186 21.5813 51.1177H21.7397C21.7546 51.1247 21.7708 51.1284 21.7873 51.1284C21.8037 51.1284 21.8199 51.1247 21.8348 51.1177C21.8699 51.0349 21.9357 50.9688 22.0184 50.9334C22.1011 50.898 22.1943 50.8959 22.2785 50.9275C22.2686 50.9349 22.2607 50.9445 22.2552 50.9555C22.2497 50.9665 22.2468 50.9786 22.2468 50.9909C22.2468 51.0032 22.2497 51.0154 22.2552 51.0264C22.2607 51.0374 22.2686 51.0469 22.2785 51.0543H22.7697C22.7845 51.0613 22.8008 51.065 22.8172 51.065C22.8337 51.065 22.8499 51.0613 22.8648 51.0543V50.9117V50.7374C22.9311 50.5687 23.0545 50.4286 23.2134 50.3413C23.4009 50.2949 23.5713 50.196 23.7046 50.056Z" fill="#062FA8"/>
<path id="Vector_5" d="M25.6221 49.0258C25.6132 49.0157 25.6022 49.0076 25.5899 49.0021C25.5776 48.9965 25.5643 48.9937 25.5508 48.9937C25.5373 48.9937 25.524 48.9965 25.5117 49.0021C25.4994 49.0076 25.4884 49.0157 25.4795 49.0258C25.3214 49.4213 25.1306 49.8029 24.9091 50.1667C24.8178 50.3065 24.6933 50.4216 24.5468 50.5018C24.4003 50.582 24.2363 50.6247 24.0693 50.6262H23.7841C23.7044 50.625 23.6264 50.6488 23.561 50.6943C23.4956 50.7398 23.4462 50.8047 23.4196 50.8798V50.9907C23.4094 51.0035 23.4034 51.0192 23.4024 51.0356C23.4015 51.0519 23.4056 51.0682 23.4143 51.0821C23.423 51.096 23.4358 51.1069 23.451 51.1132C23.4661 51.1196 23.4828 51.121 23.4988 51.1174H23.6573C23.6746 51.1258 23.6935 51.1302 23.7128 51.1302C23.732 51.1302 23.7509 51.1258 23.7682 51.1174C23.7839 51.0751 23.808 51.0364 23.8391 51.0036C23.8702 50.9709 23.9077 50.9449 23.9492 50.9271C23.9907 50.9093 24.0354 50.9001 24.0806 50.9002C24.1257 50.9002 24.1704 50.9094 24.2119 50.9273C24.2066 50.9421 24.2051 50.9579 24.2075 50.9734C24.2098 50.989 24.216 51.0036 24.2254 51.0162C24.2348 51.0287 24.2472 51.0388 24.2614 51.0454C24.2757 51.052 24.2913 51.055 24.307 51.0541H24.9566H25.0992H25.1943C25.2266 51.0308 25.2654 51.0184 25.3052 51.0184C25.345 51.0184 25.3838 51.0308 25.4161 51.0541L25.5904 51.1491H25.7964H25.8915V50.8956C25.8748 50.8412 25.8412 50.7935 25.7957 50.7593C25.7501 50.7251 25.6949 50.7063 25.638 50.7055H25.4161C25.4161 50.7055 25.3052 50.6104 25.4161 50.547L25.5429 50.3886C25.6697 50.1984 25.7964 50.0083 25.9073 49.8181L26.0341 49.5804C26.0557 49.5423 26.0691 49.5002 26.0736 49.4566C26.078 49.413 26.0734 49.369 26.06 49.3273C26.0466 49.2857 26.0247 49.2472 25.9957 49.2144C25.9667 49.1816 25.9312 49.1552 25.8915 49.1368L25.6221 49.0258Z" fill="#062FA8"/>
<path id="Vector_6" d="M26.0974 38.0448C26.225 38.16 26.3275 38.3003 26.3985 38.4568C26.4439 38.538 26.5052 38.6093 26.5787 38.6665C26.6522 38.7236 26.7364 38.7655 26.8263 38.7896C27.1327 38.8647 27.4191 39.0053 27.6661 39.2016C27.6645 38.6974 27.5098 38.2056 27.2224 37.7913C27.2014 37.7547 27.1715 37.7239 27.1355 37.7018C27.0995 37.6796 27.0586 37.6668 27.0164 37.6646H26.9372C26.5928 37.6743 26.2624 37.8031 26.0023 38.029C26.0023 38.029 26.0974 37.9498 26.0974 38.0448Z" fill="#062FA8"/>
<path id="Vector_7" d="M26.6359 39.1864C26.6184 39.3967 26.5592 39.6014 26.4616 39.7885C26.4227 39.8589 26.4023 39.9379 26.4023 40.0183C26.4023 40.0986 26.4227 40.1777 26.4616 40.248C26.5691 40.531 26.6177 40.833 26.6042 41.1354C27.0035 40.8972 27.3275 40.5512 27.539 40.1371C27.5984 40.0155 27.615 39.8774 27.5863 39.7452C27.5575 39.6129 27.4851 39.4942 27.3806 39.4082C27.1798 39.2436 26.9394 39.1344 26.6834 39.0913L26.6359 39.1864Z" fill="#062FA8"/>
<path id="Vector_8" d="M24.307 37.7917C24.5345 37.6627 24.7903 37.5919 25.0518 37.5857H25.3687H25.4796C25.6052 37.5906 25.7285 37.5513 25.8282 37.4748C26.0578 37.2794 26.3287 37.1386 26.6205 37.0628C26.406 36.9078 26.164 36.7949 25.9074 36.7301C25.813 36.715 25.7167 36.715 25.6222 36.7301H25.3528C25.0968 36.7779 24.8601 36.899 24.6715 37.0787C24.4673 37.2731 24.3101 37.5116 24.212 37.7759L24.307 37.7917Z" fill="#062FA8"/>
<path id="Vector_9" d="M22.4057 37.3164C22.536 37.572 22.6319 37.8437 22.6909 38.1245C22.7307 38.4295 22.7307 38.7385 22.6909 39.0435C22.9082 38.9801 23.1391 38.9801 23.3564 39.0435C23.3166 38.7385 23.3166 38.4295 23.3564 38.1245C23.401 37.8399 23.4977 37.5659 23.6416 37.3164C23.7008 37.1948 23.7697 37.0783 23.8476 36.9678C23.5759 37.1176 23.3341 37.3164 23.1346 37.5541C23.1123 37.5781 23.0854 37.5972 23.0554 37.6103C23.0254 37.6234 22.993 37.6301 22.9603 37.6301C22.9276 37.6301 22.8952 37.6234 22.8652 37.6103C22.8352 37.5972 22.8082 37.5781 22.786 37.5541C22.5864 37.3164 22.3447 37.1176 22.0729 36.9678C22.1947 37.0731 22.3062 37.1898 22.4057 37.3164Z" fill="#062FA8"/>
<path id="Vector_10" d="M20.4724 37.5222C20.5721 37.5987 20.6954 37.6379 20.821 37.6331H20.9319H21.2488C21.5103 37.6392 21.7661 37.71 21.9936 37.8391H22.0728C21.9746 37.5748 21.8175 37.3363 21.6133 37.1419C21.4247 36.9622 21.188 36.8411 20.9319 36.7933H20.6626C20.5683 36.7753 20.4716 36.7753 20.3774 36.7933C20.1197 36.855 19.8771 36.9682 19.6643 37.126C19.9591 37.1983 20.2347 37.3335 20.4724 37.5222Z" fill="#062FA8"/>
<path id="Vector_11" d="M19.9017 38.4097C19.9839 38.2559 20.091 38.1167 20.2186 37.9977C19.9585 37.7718 19.6281 37.643 19.2837 37.6333C19.2416 37.6356 19.2006 37.6484 19.1646 37.6705C19.1287 37.6927 19.0988 37.7234 19.0777 37.7601C18.7827 38.1705 18.6272 38.6648 18.6341 39.1703C18.8793 38.9713 19.1664 38.8305 19.4739 38.7583C19.5669 38.7362 19.6536 38.6934 19.7277 38.633C19.8018 38.5727 19.8613 38.4963 19.9017 38.4097Z" fill="#062FA8"/>
<path id="Vector_12" d="M19.7906 41.2146C19.7771 40.9122 19.8256 40.6102 19.9332 40.3273C19.9682 40.2557 19.9864 40.1771 19.9864 40.0975C19.9864 40.0179 19.9682 39.9393 19.9332 39.8678C19.839 39.6781 19.7749 39.475 19.7431 39.2656C19.4799 39.3106 19.2336 39.4255 19.03 39.5984C18.929 39.6763 18.8611 39.7895 18.8399 39.9153C18.7921 40.0376 18.7921 40.1733 18.8399 40.2956C19.0411 40.7208 19.3673 41.0746 19.7748 41.3097C19.7748 41.3097 19.7748 41.2146 19.7906 41.2146Z" fill="#062FA8"/>
<path id="Vector_13" d="M26.1449 47.6317C25.5567 46.9449 25.0905 46.1624 24.7664 45.3182C24.4482 44.4399 24.2925 43.5111 24.3068 42.577C24.2989 42.4292 24.2989 42.2811 24.3068 42.1333C24.2732 42.1333 24.241 42.12 24.2172 42.0962C24.1934 42.0724 24.1801 42.0402 24.1801 42.0066C24.1779 41.9615 24.1849 41.9166 24.2007 41.8743C24.2165 41.8321 24.2406 41.7936 24.2717 41.761C24.3029 41.7284 24.3403 41.7024 24.3817 41.6847C24.4232 41.667 24.4678 41.6579 24.5128 41.658H25.3209H25.7012C25.7988 41.6417 25.8885 41.5943 25.9571 41.5229C26.0256 41.4516 26.0692 41.36 26.0815 41.2618C26.0999 41.007 26.0564 40.7515 25.9548 40.5171C25.7324 40.6425 25.4812 40.7081 25.2259 40.7072C25.0064 40.7091 24.7895 40.6603 24.5921 40.5646C24.5647 40.6734 24.5275 40.7794 24.4811 40.8815L23.7681 42.4661C23.7321 42.5359 23.6776 42.5945 23.6105 42.6354C23.5434 42.6763 23.4664 42.6979 23.3878 42.6979C23.3092 42.6979 23.2322 42.6763 23.1651 42.6354C23.098 42.5945 23.0435 42.5359 23.0075 42.4661L22.2945 40.8815C22.2481 40.7794 22.2109 40.6734 22.1836 40.5646C21.9861 40.6603 21.7692 40.7091 21.5497 40.7072C21.2944 40.7081 21.0432 40.6425 20.8208 40.5171C20.7192 40.7515 20.6757 41.007 20.6941 41.2618C20.7064 41.36 20.75 41.4516 20.8185 41.5229C20.8871 41.5943 20.9768 41.6417 21.0744 41.658H21.4547H22.2628C22.3078 41.6579 22.3524 41.667 22.3939 41.6847C22.4353 41.7024 22.4727 41.7284 22.5039 41.761C22.535 41.7936 22.5591 41.8321 22.5749 41.8743C22.5907 41.9166 22.5977 41.9615 22.5955 42.0066C22.5955 42.0402 22.5822 42.0724 22.5584 42.0962C22.5346 42.12 22.5024 42.1333 22.4688 42.1333H21.1378H20.6624C20.6437 42.1333 20.6251 42.137 20.6078 42.1442C20.5905 42.1513 20.5748 42.1618 20.5616 42.1751C20.5483 42.1883 20.5378 42.2041 20.5306 42.2214C20.5235 42.2387 20.5198 42.2572 20.5198 42.2759C20.5119 42.4079 20.5119 42.5401 20.5198 42.6721C20.5213 44.0463 20.9113 45.3921 21.6448 46.5542C21.969 47.0759 22.3636 47.5504 22.8174 47.9644C23.2597 48.3861 23.7551 48.7483 24.291 49.0419C24.297 48.9946 24.297 48.9467 24.291 48.8993C24.3385 48.7336 24.3385 48.5579 24.291 48.3923C24.2599 48.2266 24.1831 48.0729 24.0692 47.9486C23.727 47.5758 23.4193 47.1728 23.1501 46.7443C23.1436 46.7076 23.1436 46.6701 23.1501 46.6334C23.1392 46.6027 23.1392 46.5691 23.1501 46.5383C23.2074 46.5242 23.2672 46.5242 23.3244 46.5383C23.3816 46.538 23.4378 46.5525 23.4878 46.5802C23.5377 46.608 23.5797 46.6481 23.6096 46.6968C23.9535 47.2179 24.3577 47.6966 24.8139 48.1229C25.0199 48.2972 25.2259 48.4715 25.4477 48.6299L26.0181 49.0102L26.1132 48.7409C26.1528 48.5849 26.1528 48.4215 26.1132 48.2655C26.0779 48.1059 26.0014 47.9584 25.8914 47.8377L26.1449 47.6317Z" fill="#062FA8"/>
<path id="Vector_14" d="M26.9532 48.4238C26.8408 48.7892 26.6977 49.1443 26.5253 49.4855C27.0098 49.7057 27.5072 49.8962 28.0148 50.0559C28.0292 50.0642 28.0456 50.0686 28.0623 50.0686C28.079 50.0686 28.0954 50.0642 28.1099 50.0559L28.3317 49.7073V49.5489C28.3618 49.5166 28.3785 49.4741 28.3785 49.43C28.3785 49.3859 28.3618 49.3434 28.3317 49.3112C27.8411 49.0668 27.3788 48.7692 26.9532 48.4238Z" fill="#062FA8"/>
<path id="Vector_15" d="M29.6937 48.5192C28.7272 48.1326 27.8683 47.5184 27.1901 46.7287C26.6369 46.1098 26.2211 45.3807 25.97 44.5896C25.9617 44.5751 25.9573 44.5587 25.9573 44.542C25.9573 44.5253 25.9617 44.5089 25.97 44.4945C25.996 44.4878 26.0232 44.4878 26.0492 44.4945H26.1601C26.2307 44.4969 26.2993 44.519 26.358 44.5581C26.4168 44.5973 26.4635 44.6521 26.4929 44.7163C26.7232 45.3373 27.0552 45.9156 27.4753 46.4276C27.8701 46.8888 28.3353 47.2845 28.8539 47.6002C29.2298 47.8256 29.628 48.0115 30.0423 48.1548C30.0423 48.0439 30.0423 47.9488 30.0423 47.8379C30.0144 47.6627 29.9472 47.496 29.8457 47.3506C29.7441 47.2051 29.6109 47.0846 29.456 46.9981C28.9632 46.711 28.5192 46.3473 28.1408 45.9206C27.6194 45.3136 27.2501 44.5912 27.0633 43.8131C27.0559 43.7819 27.0559 43.7493 27.0633 43.7181C27.0893 43.7114 27.1166 43.7114 27.1426 43.7181C27.2207 43.7151 27.2975 43.7385 27.3607 43.7845C27.424 43.8305 27.4699 43.8964 27.4912 43.9716C27.5753 44.2864 27.6977 44.5897 27.8556 44.8748C28.0073 45.1606 28.1935 45.4267 28.4102 45.667C28.7572 46.071 29.1697 46.4138 29.6303 46.6811H29.7095C29.5432 45.8001 29.3155 44.9318 29.0282 44.0825C28.8622 43.5813 28.6161 43.1104 28.2993 42.6881C28.0056 42.2778 27.6406 41.9236 27.2218 41.6423C27.1752 41.6287 27.1257 41.6287 27.0792 41.6423C27.0541 41.6319 27.0271 41.6265 27 41.6265C26.9728 41.6265 26.9458 41.6319 26.9207 41.6423C26.6607 41.8475 26.3654 42.0032 26.0492 42.1018C25.7342 42.216 25.4019 42.2749 25.0668 42.2761H24.7182C24.6788 42.2759 24.6407 42.2904 24.6114 42.3168C24.5821 42.3432 24.5637 42.3795 24.5598 42.4187V42.7673C24.5591 43.6435 24.7147 44.5128 25.0193 45.3343C25.6057 46.8591 26.6812 48.1464 28.0774 48.9946C28.736 49.4006 29.4597 49.69 30.2166 49.8502C30.2094 49.7712 30.2094 49.6916 30.2166 49.6126C30.2322 49.4006 30.1922 49.1882 30.1005 48.9964C30.0088 48.8046 29.8685 48.6401 29.6937 48.5192Z" fill="#062FA8"/>
<path id="Vector_16" d="M25.1152 48.9625C25.1152 48.9625 25.1152 48.8357 25.1152 48.7723L24.83 48.5347H24.7349C24.7349 48.6139 24.7349 48.6773 24.7349 48.7565V48.8357L25.036 49.01C25.036 49.01 25.0994 48.9942 25.1152 48.9625Z" fill="#062FA8"/>
<path id="Vector_17" d="M25.0838 38.0454C24.8738 38.0454 24.6686 38.1077 24.494 38.2243C24.3194 38.341 24.1833 38.5068 24.103 38.7008C24.0226 38.8948 24.0016 39.1082 24.0426 39.3142C24.0835 39.5201 24.1846 39.7093 24.3331 39.8577C24.4816 40.0062 24.6707 40.1073 24.8767 40.1483C25.0826 40.1893 25.2961 40.1682 25.4901 40.0879C25.6841 40.0075 25.8499 39.8715 25.9665 39.6969C26.0832 39.5223 26.1454 39.317 26.1454 39.1071C26.1454 38.8255 26.0336 38.5555 25.8345 38.3564C25.6354 38.1573 25.3654 38.0454 25.0838 38.0454ZM25.0838 39.8359C24.8972 39.8282 24.7203 39.7505 24.5882 39.6185C24.4562 39.4864 24.3785 39.3095 24.3708 39.1229C24.3679 38.9717 24.4121 38.8234 24.4973 38.6985C24.5825 38.5736 24.7044 38.4783 24.8461 38.4257C24.8461 38.4257 24.957 38.4257 24.8461 38.5208C24.801 38.5727 24.7666 38.633 24.7448 38.6983C24.7231 38.7635 24.7144 38.8325 24.7194 38.9011C24.7266 39.0389 24.7835 39.1695 24.8797 39.2686C24.9758 39.3677 25.1047 39.4285 25.2423 39.4398C25.312 39.4435 25.3819 39.4328 25.4473 39.4082C25.5127 39.3837 25.5724 39.3459 25.6225 39.2972H25.7176C25.6779 39.4415 25.5938 39.5697 25.4772 39.6635C25.3606 39.7574 25.2174 39.8122 25.068 39.8201L25.0838 39.8359Z" fill="#062FA8"/>
<path id="Vector_18" d="M20.6582 38.2243C20.8328 38.1077 21.0381 38.0454 21.248 38.0454C21.5296 38.0454 21.7996 38.1573 21.9987 38.3564C22.1978 38.5555 22.3097 38.8255 22.3097 39.1071C22.3097 39.317 22.2474 39.5223 22.1308 39.6969C22.0141 39.8715 21.8483 40.0075 21.6543 40.0879C21.4603 40.1682 21.2469 40.1893 21.0409 40.1483C20.835 40.1073 20.6458 40.0062 20.4973 39.8577C20.3489 39.7093 20.2478 39.5201 20.2068 39.3142C20.1658 39.1082 20.1869 38.8948 20.2672 38.7008C20.3476 38.5068 20.4836 38.341 20.6582 38.2243Z" fill="#062FA8"/>
<path id="Vector_19" d="M8.46119 7.62208C8.32843 7.62149 8.19773 7.65496 8.08158 7.71929C7.96544 7.78361 7.86773 7.87665 7.79779 7.9895C7.72786 8.10236 7.68802 8.23126 7.68211 8.36389C7.67619 8.49653 7.70439 8.62847 7.764 8.7471L8.38197 10.0464C8.38936 10.0634 8.40155 10.0778 8.41703 10.088C8.43251 10.0981 8.45061 10.1035 8.46912 10.1035C8.48762 10.1035 8.50572 10.0981 8.5212 10.088C8.53669 10.0778 8.54887 10.0634 8.55627 10.0464L9.17424 8.7471C9.22456 8.64328 9.2516 8.52971 9.25347 8.41435C9.24941 8.2055 9.16463 8.00633 9.01692 7.85862C8.86921 7.71091 8.67005 7.62613 8.46119 7.62208Z" fill="#062FA8"/>
<path id="Vector_20" d="M5.29175 10.4584C5.29758 10.3208 5.26511 10.1843 5.19798 10.064C5.13084 9.94369 5.03166 9.84438 4.91145 9.77709H4.83223C4.81129 9.76305 4.78701 9.75482 4.76186 9.75322C4.7367 9.75162 4.71157 9.75671 4.68903 9.76798C4.66648 9.77926 4.64733 9.7963 4.63351 9.81739C4.6197 9.83847 4.61172 9.86284 4.61039 9.88801C4.59414 10.1201 4.59414 10.3531 4.61039 10.5852C4.61175 11.7049 4.92447 12.8021 5.51358 13.7543C5.67037 14.0084 5.85075 14.2471 6.05233 14.4673C6.06976 14.4829 6.09232 14.4915 6.11571 14.4915C6.13909 14.4915 6.16166 14.4829 6.17909 14.4673C6.19709 14.4449 6.2069 14.4169 6.2069 14.3881C6.2069 14.3593 6.19709 14.3314 6.17909 14.3089C5.59136 13.2014 5.28654 11.9658 5.29175 10.712V10.4584Z" fill="#062FA8"/>
<path id="Vector_21" d="M9.04759 18.1912C9.12681 18.0645 9.20604 17.9377 9.26942 17.8109C9.3065 17.7384 9.3157 17.6548 9.29525 17.576C9.27481 17.4971 9.22615 17.4285 9.1585 17.3831L8.98421 17.2881C8.97529 17.2779 8.96431 17.2698 8.95201 17.2643C8.93972 17.2587 8.92639 17.2559 8.9129 17.2559C8.89941 17.2559 8.88608 17.2587 8.87379 17.2643C8.86149 17.2698 8.85052 17.2779 8.8416 17.2881C8.68412 17.6425 8.50417 17.9865 8.30285 18.318C8.21368 18.4599 8.0897 18.5765 7.94271 18.657C7.79572 18.7374 7.63059 18.7789 7.46304 18.7775H7.19367C7.1229 18.7873 7.05607 18.816 7.00029 18.8606C6.9445 18.9052 6.90182 18.9641 6.87677 19.031V19.142C6.86652 19.1548 6.86052 19.1705 6.85957 19.1868C6.85862 19.2032 6.86278 19.2195 6.87148 19.2334C6.88017 19.2473 6.89297 19.2582 6.90811 19.2645C6.92325 19.2708 6.93998 19.2723 6.95599 19.2687H7.11445C7.1293 19.2758 7.14554 19.2794 7.16198 19.2794C7.17843 19.2794 7.19466 19.2758 7.20952 19.2687C7.24465 19.1859 7.31043 19.1199 7.39312 19.0844C7.47581 19.049 7.56899 19.0469 7.65319 19.0786C7.64794 19.0934 7.64642 19.1092 7.64878 19.1247C7.65114 19.1402 7.6573 19.1549 7.66671 19.1675C7.67612 19.18 7.6885 19.1901 7.70273 19.1967C7.71696 19.2033 7.7326 19.2063 7.74826 19.2053H8.23947V19.0786V18.8884C8.31104 18.723 8.43304 18.5843 8.58807 18.4923C8.76141 18.4267 8.91826 18.324 9.04759 18.1912Z" fill="#062FA8"/>
<path id="Vector_22" d="M10.9649 17.1611C10.9649 17.1611 10.8381 17.1611 10.8223 17.1611C10.6587 17.557 10.4626 17.9386 10.236 18.302C10.1468 18.4439 10.0228 18.5605 9.87584 18.641C9.72885 18.7214 9.56373 18.7629 9.39618 18.7615H9.11097C9.03185 18.7626 8.95485 18.7872 8.88989 18.8324C8.82494 18.8776 8.775 18.9412 8.74652 19.015V19.126C8.74127 19.1407 8.73975 19.1566 8.74211 19.1721C8.74447 19.1876 8.75063 19.2023 8.76004 19.2149C8.76946 19.2274 8.78183 19.2374 8.79606 19.244C8.81029 19.2506 8.82593 19.2536 8.8416 19.2527H9.00005C9.0149 19.2598 9.03114 19.2634 9.04758 19.2634C9.06402 19.2634 9.08027 19.2598 9.09512 19.2527C9.13025 19.1699 9.19603 19.1039 9.27872 19.0684C9.36141 19.033 9.45459 19.0309 9.53879 19.0626C9.52855 19.0754 9.52254 19.0911 9.5216 19.1075C9.52065 19.1238 9.52481 19.1401 9.5335 19.154C9.5422 19.1679 9.555 19.1788 9.57014 19.1851C9.58528 19.1915 9.60201 19.1929 9.61802 19.1893H10.2677H10.4103H10.5054C10.5377 19.1661 10.5765 19.1536 10.6163 19.1536C10.6561 19.1536 10.6949 19.1661 10.7272 19.1893L10.9015 19.2844H11.0916H11.2659V19.0309C11.2492 18.9765 11.2156 18.9288 11.1701 18.8946C11.1246 18.8604 11.0693 18.8416 11.0124 18.8407H10.8064C10.7933 18.8321 10.7826 18.8203 10.7752 18.8065C10.7678 18.7927 10.7639 18.7772 10.7639 18.7615C10.7639 18.7458 10.7678 18.7304 10.7752 18.7166C10.7826 18.7027 10.7933 18.691 10.8064 18.6823L10.9173 18.5238C11.0441 18.3337 11.1709 18.1435 11.2818 17.9534C11.3302 17.8776 11.3725 17.7981 11.4086 17.7157C11.4447 17.6456 11.4533 17.5645 11.4328 17.4883C11.4123 17.4121 11.3641 17.3463 11.2976 17.3037L10.9649 17.1611Z" fill="#062FA8"/>
<path id="Vector_23" d="M11.424 6.101C11.5418 6.22465 11.643 6.36314 11.7251 6.51297C11.7673 6.59368 11.8257 6.66486 11.8965 6.7221C11.9674 6.77933 12.0492 6.82142 12.137 6.84573C12.4456 6.91462 12.7335 7.05582 12.9768 7.25771C12.9809 6.75506 12.8317 6.26312 12.549 5.84747C12.5236 5.81137 12.4905 5.78129 12.4522 5.75939C12.4139 5.73748 12.3712 5.72427 12.3272 5.7207H12.2479C11.9082 5.73008 11.5827 5.85916 11.3289 6.08515C11.3289 6.08515 11.424 6.08515 11.424 6.101Z" fill="#062FA8"/>
<path id="Vector_24" d="M11.9634 7.32115C11.9464 7.53365 11.8814 7.73952 11.7733 7.92328C11.7423 7.99592 11.7264 8.07407 11.7264 8.15303C11.7264 8.23199 11.7423 8.31014 11.7733 8.38279C11.8887 8.66358 11.9375 8.96731 11.9159 9.27013C12.311 9.03164 12.6298 8.68532 12.8349 8.27187C12.8822 8.14407 12.8822 8.00354 12.8349 7.87574C12.8243 7.80939 12.8007 7.74581 12.7653 7.68869C12.73 7.63156 12.6836 7.58204 12.6289 7.54298C12.4302 7.37506 12.1889 7.26538 11.9317 7.22607L11.9634 7.32115Z" fill="#062FA8"/>
<path id="Vector_25" d="M9.63393 5.92659C9.86138 5.79752 10.1172 5.72675 10.3787 5.7206H10.6956H10.8223C10.9427 5.72304 11.0603 5.68386 11.1551 5.60968C11.3888 5.42044 11.6582 5.28032 11.9474 5.1977C11.7329 5.04267 11.4909 4.92976 11.2343 4.86495C11.1346 4.8484 11.0329 4.8484 10.9333 4.86495H10.6639C10.4112 4.90928 10.1787 5.03111 9.99838 5.21355C9.78756 5.40555 9.62473 5.64436 9.52301 5.91075L9.63393 5.92659Z" fill="#062FA8"/>
<path id="Vector_26" d="M7.74788 5.45114C7.87997 5.70452 7.9709 5.9773 8.01726 6.25925C8.08353 6.56085 8.11017 6.8698 8.09649 7.17829C8.31379 7.11491 8.54468 7.11491 8.76199 7.17829C8.72216 6.87324 8.72216 6.5643 8.76199 6.25925C8.82096 5.97847 8.91686 5.70673 9.04721 5.45114C9.10641 5.3296 9.1753 5.21302 9.2532 5.10254C8.98351 5.24875 8.74632 5.44822 8.556 5.68882C8.49473 5.71194 8.42713 5.71194 8.36585 5.68882C8.30958 5.70942 8.24783 5.70942 8.19156 5.68882C7.99202 5.45115 7.75028 5.25238 7.47852 5.10254C7.57801 5.2109 7.66812 5.32753 7.74788 5.45114Z" fill="#062FA8"/>
<path id="Vector_27" d="M5.79955 5.65722C5.89926 5.73372 6.02257 5.77295 6.14815 5.76813H6.25907H6.57598C6.83742 5.77429 7.09327 5.84505 7.32071 5.97412C7.20764 5.71382 7.04635 5.47726 6.84535 5.27692C6.66056 5.10066 6.42996 4.97987 6.17984 4.92832H5.89463C5.80015 4.91322 5.70388 4.91322 5.60941 4.92832C5.35281 4.99313 5.11085 5.10605 4.89636 5.26108C5.22582 5.31552 5.53635 5.45172 5.79955 5.65722Z" fill="#062FA8"/>
<path id="Vector_28" d="M5.2923 6.5445C5.36974 6.39181 5.47141 6.25268 5.59337 6.13252C5.33542 5.90303 5.00369 5.77372 4.65849 5.76808C4.6136 5.76767 4.56941 5.77919 4.53043 5.80147C4.49146 5.82374 4.45909 5.85596 4.43665 5.89484C4.14927 6.3091 3.99455 6.8009 3.99298 7.30508C4.23992 7.10878 4.52641 6.96824 4.83279 6.8931C4.93062 6.87319 5.02273 6.83151 5.10228 6.77117C5.18182 6.71082 5.24677 6.63335 5.2923 6.5445Z" fill="#062FA8"/>
<path id="Vector_29" d="M5.11804 9.38097C5.10453 9.07856 5.15306 8.77658 5.26065 8.49363C5.31749 8.4135 5.35062 8.31898 5.35623 8.22089C5.36183 8.12281 5.33969 8.02512 5.29234 7.93904C5.18426 7.75528 5.11925 7.54941 5.10219 7.33691C4.84344 7.39553 4.60028 7.50901 4.38915 7.66967C4.29326 7.75205 4.22656 7.8632 4.19901 7.98658C4.15128 8.10885 4.15128 8.2446 4.19901 8.36687C4.40511 8.78881 4.73006 9.1413 5.13388 9.38097H5.11804Z" fill="#062FA8"/>
<path id="Vector_30" d="M11.4881 15.7664C10.8698 15.0901 10.3811 14.306 10.0462 13.453C9.7108 12.578 9.53893 11.6488 9.53916 10.7118C9.53125 10.564 9.53125 10.4159 9.53916 10.2681C9.50672 10.2646 9.47644 10.2502 9.45337 10.2271C9.4303 10.204 9.41583 10.1738 9.41239 10.1413C9.41239 10.0489 9.44912 9.9602 9.5145 9.89483C9.57987 9.82945 9.66854 9.79272 9.76099 9.79272H10.5691H10.9336C11.0322 9.77897 11.1234 9.73241 11.1923 9.66056C11.2613 9.5887 11.3041 9.49572 11.3138 9.39659C11.3372 9.14303 11.2992 8.88758 11.2029 8.65186C10.9814 8.77942 10.7297 8.84509 10.474 8.842C10.2548 8.84221 10.0383 8.79348 9.84022 8.69939C9.82461 8.80637 9.78683 8.90891 9.7293 9.00045L9.01626 10.585C8.9826 10.6571 8.92877 10.7179 8.86129 10.7601C8.7938 10.8023 8.71554 10.824 8.63597 10.8227C8.55718 10.8204 8.48042 10.7972 8.41358 10.7554C8.34675 10.7136 8.29224 10.6548 8.25568 10.585L7.54263 9.00045C7.49675 8.90514 7.46474 8.80376 7.44756 8.69939C7.24354 8.79235 7.02211 8.84096 6.7979 8.842C6.54257 8.84283 6.2914 8.77731 6.06901 8.65186C5.97274 8.88758 5.93469 9.14303 5.95809 9.39659C5.96702 9.49343 6.00753 9.58466 6.07338 9.65624C6.13923 9.72781 6.22677 9.77576 6.32254 9.79272H6.70283H7.51095C7.6034 9.79272 7.69207 9.82945 7.75744 9.89483C7.82282 9.9602 7.85954 10.0489 7.85954 10.1413C7.8561 10.1738 7.84164 10.204 7.81857 10.2271C7.7955 10.2502 7.76522 10.2646 7.73278 10.2681H6.40177H5.9264C5.90639 10.2659 5.88613 10.2679 5.86695 10.274C5.84778 10.2802 5.83012 10.2903 5.81515 10.3038C5.80019 10.3173 5.78824 10.3338 5.7801 10.3522C5.77197 10.3706 5.76782 10.3906 5.76795 10.4107C5.76795 10.5533 5.76795 10.6801 5.76795 10.8068C5.78243 12.1472 6.16622 13.4575 6.87713 14.5939C7.20635 15.112 7.6004 15.5859 8.04969 16.0041C8.49095 16.427 8.9865 16.7894 9.52331 17.0816V16.939C9.57086 16.7733 9.57086 16.5976 9.52331 16.432C9.49876 16.2641 9.421 16.1086 9.30147 15.9883C8.9643 15.6153 8.66197 15.2122 8.39829 14.784C8.38668 14.7679 8.38044 14.7485 8.38044 14.7286C8.38044 14.7087 8.38668 14.6893 8.39829 14.6731C8.39124 14.6583 8.38759 14.642 8.38759 14.6256C8.38759 14.6091 8.39124 14.5929 8.39829 14.578C8.45524 14.5617 8.51563 14.5617 8.57259 14.578C8.62945 14.5792 8.68516 14.5942 8.73488 14.6218C8.78459 14.6495 8.82679 14.6888 8.8578 14.7365C9.19714 15.261 9.6018 15.7402 10.0621 16.1626C10.2576 16.3439 10.464 16.5133 10.68 16.6696L11.2505 17.0499L11.3455 16.7806C11.3851 16.6246 11.3851 16.4612 11.3455 16.3052C11.3095 16.149 11.2392 16.0029 11.1395 15.8774L11.4881 15.7664Z" fill="#062FA8"/>
<path id="Vector_31" d="M12.2805 16.5586C12.1681 16.9239 12.025 17.2791 11.8527 17.6202C12.3381 17.838 12.8354 18.0285 13.3421 18.1907C13.3597 18.1981 13.3785 18.2019 13.3976 18.2019C13.4166 18.2019 13.4355 18.1981 13.4531 18.1907L13.659 17.8421L13.7541 17.6836C13.7811 17.6499 13.7958 17.608 13.7958 17.5648C13.7958 17.5216 13.7811 17.4797 13.7541 17.4459C13.2304 17.2078 12.7359 16.9101 12.2805 16.5586Z" fill="#062FA8"/>
<path id="Vector_32" d="M10.4431 17.0984V16.9077L10.1572 16.6694H10.0778V16.8919C10.1727 16.9594 10.2738 17.0179 10.3796 17.0666L10.4431 17.0984Z" fill="#062FA8"/>
<path id="Vector_33" d="M9.82052 6.34298C9.99511 6.22633 10.2004 6.16406 10.4103 6.16406C10.5498 6.16406 10.6878 6.19152 10.8166 6.24487C10.9454 6.29822 11.0625 6.37642 11.161 6.47501C11.2596 6.57359 11.3378 6.69063 11.3912 6.81943C11.4445 6.94823 11.472 7.08629 11.472 7.2257C11.472 7.43568 11.4097 7.64094 11.2931 7.81552C11.1764 7.99011 11.0106 8.12618 10.8166 8.20653C10.6226 8.28689 10.4092 8.30791 10.2032 8.26695C9.99728 8.22598 9.80812 8.12487 9.65964 7.9764C9.51117 7.82793 9.41006 7.63876 9.36909 7.43282C9.32813 7.22688 9.34916 7.01342 9.42951 6.81943C9.50986 6.62544 9.64594 6.45964 9.82052 6.34298Z" fill="#062FA8"/>
<path id="Vector_34" d="M5.98641 6.34298C6.161 6.22633 6.36626 6.16406 6.57623 6.16406C6.8578 6.16406 7.12783 6.27591 7.32692 6.47501C7.52602 6.6741 7.63787 6.94414 7.63787 7.2257C7.63787 7.43568 7.57561 7.64094 7.45895 7.81552C7.3423 7.99011 7.17649 8.12618 6.9825 8.20653C6.78851 8.28689 6.57505 8.30791 6.36912 8.26695C6.16318 8.22598 5.97401 8.12487 5.82554 7.9764C5.67706 7.82793 5.57595 7.63876 5.53499 7.43282C5.49402 7.22688 5.51505 7.01342 5.5954 6.81943C5.67576 6.62544 5.81183 6.45964 5.98641 6.34298Z" fill="#062FA8"/>
<path id="Vector_35" d="M36.0642 7.62231C35.9314 7.62173 35.8007 7.65519 35.6845 7.71952C35.5684 7.78385 35.4707 7.87688 35.4008 7.98974C35.3308 8.10259 35.291 8.23149 35.2851 8.36413C35.2792 8.49677 35.3073 8.6287 35.367 8.74734L35.9849 10.0467C35.9923 10.0636 36.0045 10.0781 36.02 10.0882C36.0355 10.0983 36.0536 10.1037 36.0721 10.1037C36.0906 10.1037 36.1087 10.0983 36.1242 10.0882C36.1397 10.0781 36.1518 10.0636 36.1592 10.0467L36.7772 8.74734C36.8375 8.62749 36.8657 8.49408 36.859 8.3601C36.8524 8.22612 36.8112 8.09615 36.7394 7.98285C36.6675 7.86955 36.5676 7.77678 36.4493 7.7136C36.3309 7.65041 36.1983 7.61896 36.0642 7.62231Z" fill="#062FA8"/>
<path id="Vector_36" d="M32.8792 10.4584C32.885 10.3208 32.8526 10.1843 32.7854 10.064C32.7183 9.94369 32.6191 9.84438 32.4989 9.77709H32.4197C32.3987 9.76305 32.3745 9.75482 32.3493 9.75322C32.3242 9.75162 32.299 9.75671 32.2765 9.76798C32.2539 9.77926 32.2348 9.7963 32.221 9.81739C32.2071 9.83847 32.1992 9.86284 32.1978 9.88801C32.1817 10.1201 32.1817 10.3531 32.1978 10.5852C32.1662 12.0129 32.6756 13.3997 33.6239 14.4673C33.6414 14.4829 33.6639 14.4915 33.6873 14.4915C33.7107 14.4915 33.7333 14.4829 33.7507 14.4673C33.7612 14.457 33.7696 14.4447 33.7753 14.4311C33.781 14.4175 33.784 14.4029 33.784 14.3881C33.784 14.3734 33.781 14.3587 33.7753 14.3451C33.7696 14.3315 33.7612 14.3192 33.7507 14.3089C33.163 13.2014 32.8581 11.9658 32.8634 10.712L32.8792 10.4584Z" fill="#062FA8"/>
<path id="Vector_37" d="M36.6191 18.1904C36.6191 18.0636 36.7776 17.9369 36.8409 17.8101C36.8818 17.7384 36.8931 17.6535 36.8724 17.5736C36.8517 17.4938 36.8006 17.4251 36.73 17.3823L36.5557 17.2872C36.5357 17.2704 36.5105 17.2612 36.4844 17.2612C36.4583 17.2612 36.4331 17.2704 36.4131 17.2872C36.262 17.6447 36.0818 17.9891 35.8744 18.3171C35.7852 18.459 35.6612 18.5757 35.5142 18.6561C35.3672 18.7365 35.2021 18.778 35.0346 18.7767H34.7652C34.6834 18.7745 34.6029 18.7976 34.5348 18.843C34.4667 18.8884 34.4143 18.9538 34.3849 19.0302V19.1411C34.3751 19.1485 34.3671 19.1581 34.3616 19.1691C34.3561 19.1801 34.3532 19.1922 34.3532 19.2045C34.3532 19.2168 34.3561 19.2289 34.3616 19.2399C34.3671 19.2509 34.3751 19.2605 34.3849 19.2679H34.5434H34.6384C34.6703 19.1862 34.7331 19.1204 34.8132 19.0848C34.8934 19.0492 34.9843 19.0467 35.0663 19.0777C35.061 19.0925 35.0595 19.1084 35.0618 19.1239C35.0642 19.1394 35.0704 19.1541 35.0798 19.1666C35.0892 19.1792 35.1016 19.1892 35.1158 19.1958C35.13 19.2024 35.1457 19.2054 35.1613 19.2045H35.6525C35.683 19.2168 35.7171 19.2168 35.7476 19.2045V19.0777L35.8268 18.8876C35.8923 18.7232 36.009 18.5843 36.1596 18.4914C36.3399 18.4403 36.5002 18.3352 36.6191 18.1904Z" fill="#062FA8"/>
<path id="Vector_38" d="M38.5679 17.1606C38.559 17.1505 38.548 17.1424 38.5357 17.1368C38.5234 17.1313 38.5101 17.1284 38.4966 17.1284C38.4831 17.1284 38.4698 17.1313 38.4575 17.1368C38.4452 17.1424 38.4342 17.1505 38.4253 17.1606C38.2617 17.5564 38.0656 17.938 37.839 18.3015C37.7498 18.4433 37.6259 18.56 37.4789 18.6404C37.3319 18.7209 37.1668 18.7624 36.9992 18.761H36.714C36.6349 18.762 36.5579 18.7867 36.4929 18.8319C36.428 18.8771 36.378 18.9407 36.3495 19.0145V19.1254C36.3443 19.1402 36.3428 19.1561 36.3451 19.1716C36.3475 19.1871 36.3537 19.2018 36.3631 19.2143C36.3725 19.2269 36.3849 19.2369 36.3991 19.2435C36.4133 19.2501 36.429 19.2531 36.4446 19.2522H36.6031C36.6179 19.2592 36.6342 19.2629 36.6506 19.2629C36.6671 19.2629 36.6833 19.2592 36.6981 19.2522C36.7333 19.1694 36.7991 19.1034 36.8818 19.0679C36.9644 19.0325 37.0576 19.0304 37.1418 19.0621C37.1418 19.0621 37.1418 19.1888 37.2369 19.1888H37.8707H38.0133H38.1084C38.1439 19.1663 38.1851 19.1543 38.2272 19.1543C38.2693 19.1543 38.3105 19.1663 38.3461 19.1888L38.5204 19.2839H38.7105H38.8848V19.0304C38.8704 18.9746 38.8375 18.9254 38.7914 18.8908C38.7453 18.8562 38.6889 18.8384 38.6313 18.8402H38.4253C38.4122 18.8315 38.4015 18.8198 38.3941 18.8059C38.3867 18.7921 38.3828 18.7767 38.3828 18.761C38.3828 18.7453 38.3867 18.7299 38.3941 18.716C38.4015 18.7022 38.4122 18.6904 38.4253 18.6818L38.5362 18.5233C38.663 18.3332 38.7897 18.143 38.9007 17.9529L39.0433 17.7152C39.0745 17.6426 39.0788 17.5614 39.0556 17.4859C39.0324 17.4104 38.9831 17.3457 38.9165 17.3032L38.5679 17.1606Z" fill="#062FA8"/>
<path id="Vector_39" d="M39.0111 6.101C39.133 6.22116 39.2347 6.36028 39.3121 6.51297C39.3544 6.59368 39.4127 6.66486 39.4836 6.7221C39.5545 6.77933 39.6363 6.82142 39.7241 6.84573C40.0327 6.91462 40.3206 7.05582 40.5639 7.25771C40.5623 6.75353 40.4076 6.26173 40.1202 5.84747C40.0966 5.80963 40.064 5.77824 40.0253 5.75611C39.9866 5.73399 39.943 5.72182 39.8984 5.7207H39.8192C39.4795 5.73008 39.154 5.85916 38.9001 6.08515L39.0111 6.101Z" fill="#062FA8"/>
<path id="Vector_40" d="M39.5499 7.32115C39.5328 7.53365 39.4678 7.73952 39.3598 7.92328C39.3248 7.99481 39.3066 8.07339 39.3066 8.15303C39.3066 8.23267 39.3248 8.31125 39.3598 8.38279C39.4704 8.6647 39.5138 8.96852 39.4865 9.27013C39.8816 9.03164 40.2005 8.68532 40.4056 8.27187C40.4448 8.14274 40.4448 8.00487 40.4056 7.87574C40.3718 7.74668 40.3 7.63075 40.1996 7.54298C39.9947 7.3752 39.7484 7.26572 39.4865 7.22607L39.5499 7.32115Z" fill="#062FA8"/>
<path id="Vector_41" d="M37.2207 5.92625C37.4482 5.79718 37.704 5.72641 37.9654 5.72025H38.2665H38.3933C38.5141 5.72549 38.6325 5.686 38.726 5.60934C38.9634 5.41664 39.2388 5.27625 39.5341 5.19736C39.3197 5.04233 39.0777 4.92941 38.8211 4.86461C38.7418 4.82036 38.6564 4.7883 38.5676 4.76953H38.2824C38.031 4.81766 37.7995 4.93893 37.6168 5.11813C37.4158 5.31847 37.2545 5.55503 37.1415 5.81533L37.2207 5.92625Z" fill="#062FA8"/>
<path id="Vector_42" d="M35.3986 5.45114C35.529 5.70673 35.6249 5.97847 35.6838 6.25925C35.7159 6.56476 35.7159 6.87278 35.6838 7.17829C35.7888 7.16168 35.8958 7.16168 36.0008 7.17829C36.111 7.16053 36.2233 7.16053 36.3335 7.17829C36.3015 6.87278 36.3015 6.56476 36.3335 6.25925C36.3925 5.97847 36.4884 5.70673 36.6187 5.45114C36.6779 5.3296 36.7468 5.21302 36.8247 5.10254C36.553 5.25238 36.3112 5.45115 36.1117 5.68882C36.0504 5.71194 35.9828 5.71194 35.9215 5.68882C35.8653 5.70942 35.8035 5.70942 35.7472 5.68882C35.5477 5.45115 35.3059 5.25238 35.0342 5.10254C35.1768 5.21346 35.256 5.32438 35.3986 5.45114Z" fill="#062FA8"/>
<path id="Vector_43" d="M33.3867 5.65698C33.4802 5.73364 33.5987 5.77313 33.7195 5.76789H33.8145H34.1156C34.377 5.77405 34.6329 5.84481 34.8603 5.97388C34.7473 5.71358 34.586 5.47702 34.385 5.27668C34.2499 5.05437 34.0512 4.87773 33.8145 4.76963H33.5293C33.4349 4.75452 33.3386 4.75452 33.2441 4.76963C32.9875 4.83444 32.7456 4.94735 32.5311 5.10238C32.8563 5.21669 33.1496 5.4068 33.3867 5.65698Z" fill="#062FA8"/>
<path id="Vector_44" d="M32.8154 6.5445C32.8929 6.39181 32.9946 6.25268 33.1165 6.13252C32.8586 5.90303 32.5268 5.77372 32.1816 5.76808C32.1367 5.76767 32.0925 5.77919 32.0536 5.80147C32.0146 5.82374 31.9822 5.85596 31.9598 5.89484C31.6724 6.3091 31.5177 6.8009 31.5161 7.30508C31.7671 7.10583 32.0595 6.96509 32.3718 6.8931C32.4667 6.87104 32.5557 6.82839 32.6324 6.76815C32.709 6.70791 32.7715 6.63156 32.8154 6.5445Z" fill="#062FA8"/>
<path id="Vector_45" d="M32.689 9.38063C32.6617 9.07901 32.7051 8.7752 32.8157 8.49328C32.8507 8.42174 32.8689 8.34316 32.8689 8.26353C32.8689 8.18389 32.8507 8.10531 32.8157 8.03377C32.7077 7.85001 32.6426 7.64414 32.6256 7.43164C32.3637 7.48084 32.1185 7.59529 31.9125 7.76439C31.8079 7.84169 31.7347 7.95426 31.7066 8.0813C31.6666 8.20491 31.6666 8.33798 31.7066 8.4616C31.9178 8.88001 32.2415 9.23121 32.6414 9.4757L32.689 9.38063Z" fill="#062FA8"/>
<path id="Vector_46" d="M39.0587 15.7664C38.463 15.0851 37.9959 14.3012 37.6801 13.453C37.3447 12.578 37.1728 11.6488 37.1731 10.7118C37.1652 10.564 37.1652 10.4159 37.1731 10.2681C37.1406 10.2646 37.1104 10.2502 37.0873 10.2271C37.0642 10.204 37.0498 10.1738 37.0463 10.1413C37.0463 10.0489 37.083 9.9602 37.1484 9.89483C37.2138 9.82945 37.3025 9.79272 37.3949 9.79272H38.203H38.5675C38.6661 9.77897 38.7573 9.73241 38.8263 9.66056C38.8952 9.5887 38.938 9.49572 38.9478 9.39659C38.9712 9.14303 38.9331 8.88758 38.8368 8.65186C38.6145 8.77731 38.3633 8.84283 38.108 8.842C37.8837 8.84096 37.6623 8.79235 37.4583 8.69939C37.4411 8.80376 37.4091 8.90514 37.3632 9.00045L36.6343 10.585C36.6007 10.6571 36.5468 10.7179 36.4794 10.7601C36.4119 10.8023 36.3336 10.824 36.254 10.8227C36.1767 10.8229 36.101 10.8006 36.0363 10.7583C35.9715 10.7161 35.9205 10.6559 35.8896 10.585L35.1607 9.00045C35.1148 8.90514 35.0828 8.80376 35.0656 8.69939C34.8616 8.79235 34.6402 8.84096 34.416 8.842C34.1606 8.84283 33.9095 8.77731 33.6871 8.65186C33.5908 8.88758 33.5528 9.14303 33.5762 9.39659C33.5859 9.49572 33.6287 9.5887 33.6977 9.66056C33.7666 9.73241 33.8578 9.77897 33.9565 9.79272H34.3209H35.129C35.2215 9.79272 35.3101 9.82945 35.3755 9.89483C35.4409 9.9602 35.4776 10.0489 35.4776 10.1413C35.4742 10.1738 35.4597 10.204 35.4366 10.2271C35.4136 10.2502 35.3833 10.2646 35.3509 10.2681H33.9723H33.4969C33.4575 10.2679 33.4194 10.2824 33.3901 10.3088C33.3608 10.3351 33.3424 10.3715 33.3385 10.4107V10.8068C33.3306 11.7991 33.5293 12.7821 33.9222 13.6932C34.315 14.6044 34.8933 15.4238 35.6202 16.0992C36.0641 16.526 36.5654 16.8887 37.1097 17.1767C37.1037 17.1293 37.1037 17.0814 37.1097 17.0341C37.1494 16.8674 37.1494 16.6937 37.1097 16.527C37.0797 16.3576 36.9964 16.2022 36.872 16.0834C36.5348 15.7103 36.2325 15.3072 35.9688 14.8791C35.9688 14.8791 35.9688 14.8791 35.9688 14.7682C35.9618 14.7533 35.9581 14.7371 35.9581 14.7206C35.9581 14.7042 35.9618 14.688 35.9688 14.6731C36.0258 14.6568 36.0862 14.6568 36.1431 14.6731C36.2 14.6743 36.2557 14.6893 36.3054 14.7169C36.3551 14.7445 36.3973 14.7839 36.4283 14.8316C36.7677 15.3561 37.1723 15.8353 37.6326 16.2577C37.8281 16.439 38.0345 16.6083 38.2506 16.7647L38.821 17.145L38.9161 16.8756C38.9556 16.7196 38.9556 16.5562 38.9161 16.4003C38.8868 16.2418 38.8157 16.0941 38.7101 15.9724L39.0587 15.7664Z" fill="#062FA8"/>
<path id="Vector_47" d="M39.8513 16.5586C39.7375 16.9211 39.5998 17.2758 39.4393 17.6202C39.9248 17.838 40.4221 18.0285 40.9288 18.1907C40.9596 18.2016 40.9931 18.2016 41.0239 18.1907L41.2299 17.8421L41.3249 17.6836C41.355 17.6514 41.3717 17.6089 41.3717 17.5648C41.3717 17.5207 41.355 17.4782 41.3249 17.4459C40.8058 17.1992 40.3122 16.902 39.8513 16.5586Z" fill="#062FA8"/>
<path id="Vector_48" d="M43.3214 17.4461C43.2816 17.2556 43.1938 17.0784 43.0662 16.9314C42.9386 16.7844 42.7755 16.6725 42.5925 16.6063C42.2353 16.4607 41.8908 16.2858 41.5625 16.0834C41.0087 15.746 40.5114 15.3236 40.0889 14.8316C39.5518 14.2013 39.1379 13.4757 38.8688 12.6925C38.8614 12.6612 38.8614 12.6287 38.8688 12.5974H38.9639C39.0354 12.5958 39.1057 12.6162 39.1652 12.6559C39.2248 12.6955 39.2706 12.7526 39.2966 12.8192C39.5403 13.4749 39.8999 14.0814 40.3583 14.6098C40.7511 15.0668 41.2105 15.4621 41.721 15.7823C42.0982 16.0053 42.4962 16.1911 42.9094 16.3369V16.02C42.8746 15.8452 42.8029 15.6799 42.699 15.5351C42.5952 15.3902 42.4616 15.2693 42.3073 15.1802C41.8165 14.8969 41.3772 14.5326 41.008 14.1027C40.4808 13.4997 40.1106 12.7758 39.9305 11.9953C39.9234 11.9804 39.9198 11.9642 39.9198 11.9477C39.9198 11.9313 39.9234 11.9151 39.9305 11.9002C40.0066 11.898 40.0811 11.922 40.1417 11.9681C40.2022 12.0143 40.2451 12.0798 40.2632 12.1537C40.4408 12.7845 40.7546 13.3686 41.1823 13.865C41.5353 14.2648 41.9531 14.6022 42.4182 14.8633H42.4974C42.3435 13.9811 42.121 13.1122 41.8319 12.2646C41.6596 11.7662 41.4139 11.2963 41.103 10.8702C40.8015 10.4668 40.4378 10.1138 40.0255 9.82445C40.0788 9.79726 40.1207 9.75214 40.1439 9.69706C40.1671 9.64197 40.17 9.58046 40.1523 9.52339C40.0963 9.50132 40.034 9.50132 39.978 9.52339C39.7227 9.7305 39.4331 9.89138 39.1223 9.99875C38.8043 10.0989 38.4734 10.1523 38.1399 10.1572H37.7755C37.7568 10.1572 37.7382 10.1609 37.7209 10.1681C37.7036 10.1752 37.6879 10.1857 37.6746 10.199C37.6614 10.2122 37.6509 10.2279 37.6437 10.2452C37.6366 10.2625 37.6329 10.2811 37.6329 10.2998C37.625 10.4159 37.625 10.5323 37.6329 10.6484C37.6372 12.3913 38.2605 14.0761 39.3917 15.402C40.4147 16.5994 41.7902 17.4424 43.3214 17.8105C43.3383 17.6896 43.3383 17.567 43.3214 17.4461Z" fill="#062FA8"/>
<path id="Vector_49" d="M15.7214 17.4461C15.6816 17.2556 15.5938 17.0784 15.4662 16.9314C15.3386 16.7844 15.1756 16.6725 14.9925 16.6063C14.6354 16.4607 14.2909 16.2858 13.9626 16.0834C13.4087 15.746 12.9114 15.3236 12.4889 14.8316C11.9518 14.2013 11.5379 13.4757 11.2688 12.6925C11.2614 12.6612 11.2614 12.6287 11.2688 12.5974H11.3639C11.4354 12.5958 11.5057 12.6162 11.5653 12.6559C11.6248 12.6955 11.6707 12.7526 11.6967 12.8192C11.9403 13.4749 12.2999 14.0814 12.7583 14.6098C13.1511 15.0668 13.6105 15.4621 14.121 15.7823C14.4982 16.0053 14.8962 16.1911 15.3094 16.3369V16.02C15.2746 15.8452 15.2029 15.6799 15.0991 15.5351C14.9952 15.3902 14.8617 15.2693 14.7073 15.1802C14.2165 14.8969 13.7772 14.5326 13.408 14.1027C12.8808 13.4997 12.5107 12.7758 12.3305 11.9953C12.3234 11.9804 12.3198 11.9642 12.3198 11.9477C12.3198 11.9313 12.3234 11.9151 12.3305 11.9002C12.4066 11.898 12.4811 11.922 12.5417 11.9681C12.6022 12.0143 12.6451 12.0798 12.6632 12.1537C12.8409 12.7845 13.1546 13.3686 13.5823 13.865C13.9353 14.2648 14.3532 14.6022 14.8182 14.8633H14.8974C14.7436 13.9811 14.5211 13.1122 14.2319 12.2646C14.0596 11.7662 13.8139 11.2963 13.503 10.8702C13.2016 10.4668 12.8379 10.1138 12.4256 9.82445C12.4788 9.79726 12.5207 9.75214 12.5439 9.69706C12.5671 9.64197 12.5701 9.58046 12.5523 9.52339C12.4963 9.50132 12.434 9.50132 12.378 9.52339C12.1227 9.7305 11.8331 9.89138 11.5224 9.99875C11.2043 10.0989 10.8734 10.1523 10.54 10.1572H10.1755C10.1568 10.1572 10.1382 10.1609 10.1209 10.1681C10.1036 10.1752 10.0879 10.1857 10.0747 10.199C10.0614 10.2122 10.0509 10.2279 10.0438 10.2452C10.0366 10.2625 10.0329 10.2811 10.0329 10.2998C10.025 10.4159 10.025 10.5323 10.0329 10.6484C10.0372 12.3913 10.6605 14.0761 11.7917 15.402C12.8147 16.5994 14.1902 17.4424 15.7214 17.8105C15.7383 17.6896 15.7383 17.567 15.7214 17.4461Z" fill="#062FA8"/>
<path id="Vector_50" d="M38.0139 17.0984L38.0934 16.9077L37.8074 16.6694L37.728 16.8919C37.8229 16.9594 37.924 17.0179 38.0298 17.0666L38.0139 17.0984Z" fill="#062FA8"/>
<path id="Vector_51" d="M37.4072 6.34298C37.5818 6.22633 37.787 6.16406 37.997 6.16406C38.2786 6.16406 38.5486 6.27591 38.7477 6.47501C38.9468 6.6741 39.0587 6.94414 39.0587 7.2257C39.0587 7.43568 38.9964 7.64094 38.8797 7.81552C38.7631 7.99011 38.5973 8.12618 38.4033 8.20653C38.2093 8.28689 37.9958 8.30791 37.7899 8.26695C37.584 8.22598 37.3948 8.12487 37.2463 7.9764C37.0978 7.82793 36.9967 7.63876 36.9558 7.43282C36.9148 7.22688 36.9358 7.01342 37.0162 6.81943C37.0965 6.62544 37.2326 6.45964 37.4072 6.34298Z" fill="#062FA8"/>
<path id="Vector_52" d="M33.5576 6.34298C33.7322 6.22633 33.9375 6.16406 34.1475 6.16406C34.429 6.16406 34.6991 6.27591 34.8982 6.47501C35.0972 6.6741 35.2091 6.94414 35.2091 7.2257C35.2091 7.43568 35.1468 7.64094 35.0302 7.81552C34.9135 7.99011 34.7477 8.12618 34.5537 8.20653C34.3597 8.28689 34.1463 8.30791 33.9403 8.26695C33.7344 8.22598 33.5452 8.12487 33.3968 7.9764C33.2483 7.82793 33.1472 7.63876 33.1062 7.43282C33.0653 7.22688 33.0863 7.01342 33.1666 6.81943C33.247 6.62544 33.3831 6.45964 33.5576 6.34298Z" fill="#062FA8"/>
<path id="Vector_53" d="M23.6103 22.1997L5.11871 40.7071C5.6733 41.7213 6.27543 42.7037 6.92509 43.6702L7.5906 44.5734L23.6103 28.5379L39.6459 44.5734L40.2955 43.6702C40.9539 42.718 41.557 41.7286 42.1019 40.7071L23.6103 22.1997Z" fill="#062FA8"/>
<path id="Vector_54" d="M23.609 12.6924L2.40784 33.9094C2.81403 35.532 3.34376 37.1212 3.99238 38.663L23.609 19.0305L43.1464 38.5838C43.8271 37.0446 44.3886 35.4554 44.826 33.8302L23.609 12.6924Z" fill="#062FA8"/>
</g>
</svg>
